<svg width="40" height="40" viewBox="0 0 40 40" fill="none" xmlns="http://www.w3.org/2000/svg"><path d="M13.333 20v-6.667A6.667 6.667 0 0 1 20 6.667v0a6.667 6.667 0 0 1 6.667 6.666V20" stroke="#7F213C" stroke-width="2" stroke-linecap="round"/><path d="M6.361 18.668c.145-1.741.218-2.611.792-3.14C7.727 15 8.6 15 10.347 15h19.306c1.747 0 2.62 0 3.194.528.574.528.647 1.399.792 3.14l1.18 14.166c.085 1.013.127 1.52-.17 1.843-.297.323-.806.323-1.823.323H7.174c-1.017 0-1.526 0-1.823-.323-.297-.323-.255-.83-.17-1.843l1.18-14.166z" stroke="#7F213C" stroke-width="2"/></svg>