<svg width="40" height="40" viewBox="0 0 40 40" fill="none" xmlns="http://www.w3.org/2000/svg">
<path d="M13.3333 20L13.3333 13.3333C13.3333 9.65143 16.318 6.66667 19.9999 6.66667V6.66667C23.6818 6.66667 26.6666 9.65144 26.6666 13.3333L26.6666 20" stroke="#7F213C" stroke-width="2" stroke-linecap="round"/>
<path d="M6.36102 18.6678C6.50609 16.9269 6.57863 16.0565 7.15271 15.5282C7.7268 15 8.60027 15 10.3472 15H29.6528C31.3997 15 32.2732 15 32.8473 15.5282C33.4214 16.0565 33.4939 16.9269 33.639 18.6678L34.8195 32.8339C34.904 33.8474 34.9462 34.3542 34.6491 34.6771C34.352 35 33.8435 35 32.8264 35H7.1736C6.15655 35 5.64802 35 5.35092 34.6771C5.05382 34.3542 5.09605 33.8474 5.18051 32.8339L6.36102 18.6678Z" stroke="#7F213C" stroke-width="2"/>
</svg>
