<svg width="40" height="40" viewBox="0 0 40 40" fill="none" xmlns="http://www.w3.org/2000/svg"><path d="M16.906 11.046C18.217 7.778 18.873 6.144 20 6.144c1.127 0 1.783 1.634 3.094 4.902l.06.152c.741 1.847 1.112 2.77 1.866 3.331.755.561 1.746.65 3.727.827l.359.033c3.243.29 4.864.435 5.211 1.467.347 1.031-.857 2.127-3.265 4.318l-.804.731c-1.22 1.11-1.829 1.664-2.113 2.391a3.342 3.342 0 0 0-.132.416c-.187.758-.008 1.562.349 3.171l.11.501c.657 2.957.985 4.436.412 5.074-.214.238-.492.41-.8.494-.828.226-2.002-.731-4.35-2.644-1.542-1.257-2.313-1.885-3.198-2.026a3.333 3.333 0 0 0-1.052 0c-.885.14-1.656.77-3.198 2.026-2.348 1.913-3.522 2.87-4.35 2.644a1.666 1.666 0 0 1-.8-.494c-.573-.638-.245-2.116.411-5.074l.111-.5c.357-1.61.536-2.414.349-3.172a3.342 3.342 0 0 0-.132-.416c-.284-.727-.894-1.281-2.113-2.39l-.804-.732c-2.408-2.191-3.612-3.287-3.265-4.318.347-1.032 1.968-1.177 5.211-1.468l.358-.032c1.982-.177 2.973-.266 3.727-.827.755-.561 1.126-1.484 1.866-3.33l.061-.153z" stroke="#7F213C" stroke-width="2"/></svg>