<svg xmlns="http://www.w3.org/2000/svg" width="40" height="40" viewBox="0 0 40 40" fill="none">
<path d="M20.0002 35V21.6667M20.0002 35L9.17102 27.2649C8.76045 26.9716 8.55516 26.825 8.44433 26.6096C8.3335 26.3943 8.3335 26.142 8.3335 25.6374V13.3333M20.0002 35L30.8293 27.2649C31.2399 26.9716 31.4452 26.825 31.556 26.6096C31.6668 26.3943 31.6668 26.142 31.6668 25.6374V13.3333M20.0002 21.6667L8.3335 13.3333M20.0002 21.6667L31.6668 13.3333M8.3335 13.3333L18.8377 5.83034C19.399 5.42938 19.6797 5.2289 20.0002 5.2289C20.3206 5.2289 20.6013 5.42938 21.1626 5.83034L31.6668 13.3333" stroke="#7F213C" stroke-width="2" stroke-linejoin="round"/>
</svg>