<svg width="110" height="111" viewBox="0 0 110 111" fill="none" xmlns="http://www.w3.org/2000/svg"><path d="M68.477 69.102a2.142 2.142 0 0 0 2.146-2.138c0-1.181-.96-2.139-2.146-2.139a2.142 2.142 0 0 0-2.147 2.139c0 1.18.961 2.138 2.147 2.138zM44.863 66.964c0 1.18-.96 2.138-2.146 2.138a2.142 2.142 0 0 1-2.147-2.138c0-1.181.961-2.139 2.147-2.139 1.185 0 2.146.958 2.146 2.139z" fill="#BF5C7A"/><path fill-rule="evenodd" clip-rule="evenodd" d="M64.739 34.844H27.748l.022 1.85c.039 3.231.052 4.334.053 5.436 0 .608-.003 1.201-.009 2.105-.015 2.592-.044 7.735-.044 23.085v1.828h7.738c.217.906.61 1.894 1.265 2.799 1.199 1.658 3.185 2.903 6.082 2.903 2.898 0 4.884-1.245 6.083-2.903a7.94 7.94 0 0 0 1.264-2.8h11.086c.223.861.617 1.795 1.254 2.66 1.182 1.607 3.117 2.862 5.957 3.039 2.952.184 4.991-1.047 6.208-2.76.67-.942 1.062-1.986 1.273-2.938h5.574V56.126L74.317 44.11h-9.578v-9.266zm0 20.871v-7.95h7.478l4.789 7.95H64.739zm0 1.828v9.777c0 .573.2 1.534.79 2.337.537.728 1.463 1.433 3.203 1.54 1.628.102 2.451-.508 2.951-1.213.584-.82.81-1.919.81-2.664v-1.828h5.366v-7.95H64.74zM61.043 38.5v26.992h-14.31v1.828c0 .66-.215 1.69-.801 2.5-.518.718-1.394 1.374-3.077 1.374-1.682 0-2.558-.656-3.076-1.373-.587-.811-.8-1.84-.8-2.501v-1.828h-7.514c.002-13.903.03-18.787.045-21.28.012-2.238.014-2.57-.023-5.712h29.557z" fill="#BF5C7A"/></svg>