<svg width="110" height="111" viewBox="0 0 110 111" fill="none" xmlns="http://www.w3.org/2000/svg">
<path d="M68.4766 69.1018C69.6622 69.1018 70.6233 68.1445 70.6233 66.9636C70.6233 65.7827 69.6622 64.8254 68.4766 64.8254C67.2911 64.8254 66.33 65.7827 66.33 66.9636C66.33 68.1445 67.2911 69.1018 68.4766 69.1018Z" fill="#BF5C7A"/>
<path d="M44.8632 66.9636C44.8632 68.1445 43.9021 69.1018 42.7166 69.1018C41.531 69.1018 40.5699 68.1445 40.5699 66.9636C40.5699 65.7827 41.531 64.8254 42.7166 64.8254C43.9021 64.8254 44.8632 65.7827 44.8632 66.9636Z" fill="#BF5C7A"/>
<path fill-rule="evenodd" clip-rule="evenodd" d="M64.7387 34.8444H27.7476L27.7699 36.6939C27.809 39.9255 27.8223 41.0277 27.8228 42.1299C27.823 42.7379 27.8196 43.3314 27.8144 44.2352C27.7994 46.8269 27.7697 51.9697 27.7697 67.32L27.7697 69.1477H35.5082C35.7251 70.054 36.1188 71.0421 36.7728 71.9468C37.9717 73.6054 39.9579 74.8496 42.8553 74.8496C45.7528 74.8496 47.7389 73.6054 48.9378 71.9468C49.5918 71.0421 49.9856 70.054 50.2024 69.1477H61.2879C61.5109 70.0084 61.9049 70.9416 62.5421 71.8077C63.7236 73.4137 65.6593 74.6692 68.4995 74.846C71.451 75.0298 73.4902 73.7986 74.7069 72.086C75.3763 71.1437 75.7693 70.1 75.9802 69.1477H81.5544V56.1256L74.3165 44.11H64.7387V34.8444ZM64.7387 55.715V47.7653H72.2169L77.0056 55.715H64.7387ZM64.7387 57.5427V67.32C64.7387 67.8932 64.9388 68.8535 65.5298 69.6568C66.0656 70.3851 66.9923 71.0897 68.7316 71.1979C70.3601 71.2993 71.183 70.689 71.6835 69.9844C72.2666 69.1636 72.4925 68.0652 72.4925 67.32L72.4925 65.4924H77.8592V57.5427H64.7387ZM61.0435 38.4997V65.4924H46.7322V67.32C46.7322 67.9802 46.5183 69.0096 45.932 69.8207C45.4137 70.5378 44.5376 71.1943 42.8553 71.1943C41.173 71.1943 40.297 70.5378 39.7786 69.8207C39.1923 69.0096 38.9784 67.9802 38.9784 67.32V65.4924H31.4651C31.4674 51.5888 31.4954 46.7053 31.5097 44.2125C31.5225 41.9745 31.5243 41.6427 31.4871 38.4997H61.0435Z" fill="#BF5C7A"/>
</svg>
