<svg width="110" height="111" viewBox="0 0 110 111" fill="none" xmlns="http://www.w3.org/2000/svg">
<path d="M57.4775 65.5651L53.0181 71.0155H56.982L57.4775 74.484L61.937 68.538" stroke="#BF5C7A" stroke-width="1.5"/>
<path d="M66.8921 65.5651L71.3516 71.0155H67.3876L66.8921 74.484L62.4326 68.538" stroke="#BF5C7A" stroke-width="1.5"/>
<path d="M40.6309 42.7722H54.0092" stroke="#BF5C7A" stroke-width="2"/>
<path d="M40.6309 51.1957H64.4146" stroke="#BF5C7A" stroke-width="2"/>
<path d="M40.6309 59.6191H49.5498" stroke="#BF5C7A" stroke-width="2"/>
<path d="M60.4506 30.8804H38.6758C37.0189 30.8804 35.6758 32.2235 35.6758 33.8804V75.9434C35.6758 77.6003 37.0189 78.9434 38.6758 78.9434H71.8199C73.4768 78.9434 74.8199 77.6003 74.8199 75.9434V44.7542L60.4506 30.8804Z" stroke="#BF5C7A" stroke-width="3"/>
<path d="M60.9463 31.8713V44.7542H74.8202" stroke="#BF5C7A" stroke-width="2"/>
<ellipse cx="62.4328" cy="62.5921" rx="5.94595" ry="5.94594" stroke="#BF5C7A" stroke-width="2"/>
</svg>
