<svg width="110" height="111" viewBox="0 0 110 111" fill="none" xmlns="http://www.w3.org/2000/svg"><path d="m57.477 65.565-4.459 5.45h3.964l.495 3.469 4.46-5.946M66.892 65.565l4.46 5.45h-3.964l-.496 3.469-4.46-5.946" stroke="#BF5C7A" stroke-width="1.5"/><path d="M40.63 42.772h13.38M40.63 51.196h23.785M40.63 59.62h8.92" stroke="#BF5C7A" stroke-width="2"/><path d="M60.45 30.88H38.677a3 3 0 0 0-3 3v42.063a3 3 0 0 0 3 3H71.82a3 3 0 0 0 3-3V44.754L60.45 30.88z" stroke="#BF5C7A" stroke-width="3"/><path d="M60.946 31.871v12.883H74.82" stroke="#BF5C7A" stroke-width="2"/><circle cx="62.433" cy="62.592" stroke="#BF5C7A" stroke-width="2" r="5.946"/></svg>