<svg width="110" height="111" viewBox="0 0 110 111" fill="none" xmlns="http://www.w3.org/2000/svg"><path d="m62.035 72.71 6.017 8.873a.997.997 0 0 0 .969.424.966.966 0 0 0 .792-.682l2.446-8.434 8.905 1.09a.981.981 0 0 0 .952-.445.946.946 0 0 0-.02-1.037l-7.55-11.133.036.221c.14.864-.12 1.707-.652 2.335l5.351 7.892-7.624-.934a.974.974 0 0 0-1.059.686l-2.094 7.22-4.737-6.986a2.932 2.932 0 0 1-1.732.91zM34.645 63.444 27.79 73.09a.946.946 0 0 0-.043 1.036.981.981 0 0 0 .942.466l8.927-.9 2.257 8.483c.097.362.4.635.777.699a.998.998 0 0 0 .979-.402l6.192-8.713a2.893 2.893 0 0 1-1.282-1.138l-.135-.224-5.166 7.267-1.932-7.261a.973.973 0 0 0-1.045-.709l-7.642.772 4.343-6.11a2.884 2.884 0 0 1-.057-.348l-.26-2.563z" fill="#BF5C7A"/><path fill-rule="evenodd" clip-rule="evenodd" d="M68.452 49.042c0 8.317-6.834 15.059-15.264 15.059s-15.264-6.742-15.264-15.06c0-8.316 6.834-15.058 15.264-15.058s15.264 6.742 15.264 15.059zm-2.92 0c0 6.68-5.497 12.147-12.344 12.147-6.847 0-12.345-5.468-12.345-12.147 0-6.68 5.498-12.148 12.345-12.148s12.344 5.468 12.344 12.148z" fill="#BF5C7A"/><path fill-rule="evenodd" clip-rule="evenodd" d="M50.395 73.686a2.924 2.924 0 0 1-3.856-1.066l-2.593-4.28-5.994.272c-1.554.07-2.891-1.073-3.047-2.605l-.622-6.128-5.193-3.818a2.906 2.906 0 0 1-.701-3.958l2.816-4.21-2.237-6.52a2.91 2.91 0 0 1 1.692-3.643l5.332-2.118.726-4.953c.223-1.523 1.609-2.606 3.157-2.468l6.008.534 3.832-3.802a2.926 2.926 0 0 1 3.997-.114l3.757 3.324 6.107-1.273c1.52-.317 3.02.595 3.423 2.079l1.467 5.41L74 35.922c1.5.426 2.404 1.943 2.055 3.449l-1.176 5.075L77.87 48.3a2.906 2.906 0 0 1-.418 3.998L73.6 55.57l.98 6.017a2.912 2.912 0 0 1-2.153 3.278l-6.61 1.725-1.445 4.194c-.5 1.453-2.058 2.264-3.552 1.848l-5.489-1.526-4.937 2.58zm-3.416-41.94-7.363-.655H39.606l-.969 6.604-6.896 2.74-.005.001-.002.002 2.7 7.873-3.614 5.404.003.003 6.234 4.584.752 7.4.002.001H37.82l7.727-.35 3.613 5.662 5.842-3.023 6.604 1.836.004.001h.004l1.95-5.661 8.125-2.12a.07.07 0 0 0 .006-.002h.002v-.001l-1.242-7.627 5.103-4.335.002-.002-3.838-4.945 1.486-6.41h-.001l-.008-.003-7.121-2.026-1.895-6.988h-.01l-7.543 1.574-4.855-4.296-4.796 4.759z" fill="#BF5C7A"/></svg>