<svg width="110" height="111" viewBox="0 0 110 111" fill="none" xmlns="http://www.w3.org/2000/svg">
<path d="M62.0346 72.7107L68.0516 81.5834C68.2642 81.897 68.6426 82.0622 69.0209 82.0066C69.3991 81.951 69.7083 81.6848 69.8127 81.3246L72.2591 72.8911L81.1644 73.9819C81.5447 74.0285 81.9163 73.8544 82.1163 73.536C82.3163 73.2175 82.3082 72.8128 82.0955 72.4992L74.5456 61.3661L74.5817 61.5874C74.7224 62.4507 74.4622 63.2943 73.9297 63.9224L79.2815 71.8142L71.6574 70.8803C71.1786 70.8217 70.7298 71.112 70.5982 71.5655L68.5038 78.7857L63.7666 71.8003C63.3133 72.2918 62.6996 72.6142 62.0346 72.7107Z" fill="#BF5C7A"/>
<path d="M34.645 63.4444L27.79 73.0893C27.5705 73.3982 27.5536 73.8026 27.7467 74.1253C27.9398 74.448 28.3077 74.63 28.689 74.5915L37.6157 73.6907L39.8731 82.1735C39.9696 82.5359 40.2728 82.8088 40.6499 82.8727C41.0269 82.9365 41.409 82.7796 41.6285 82.4707L47.8212 73.7577C47.305 73.5234 46.8531 73.1373 46.5395 72.62L46.4037 72.3959L41.2384 79.6634L39.3059 72.4015C39.1845 71.9451 38.7417 71.6449 38.2613 71.6934L30.6195 72.4646L34.962 66.3547C34.9363 66.2415 34.9173 66.1256 34.9053 66.0074L34.645 63.4444Z" fill="#BF5C7A"/>
<path fill-rule="evenodd" clip-rule="evenodd" d="M68.4517 49.0419C68.4517 57.3589 61.6178 64.101 53.1877 64.101C44.7576 64.101 37.9236 57.3589 37.9236 49.0419C37.9236 40.725 44.7576 33.9828 53.1877 33.9828C61.6178 33.9828 68.4517 40.725 68.4517 49.0419ZM65.5318 49.0419C65.5318 55.7215 60.0347 61.1894 53.1877 61.1894C46.3407 61.1894 40.8435 55.7215 40.8435 49.0419C40.8435 42.3623 46.3407 36.8945 53.1877 36.8945C60.0347 36.8945 65.5318 42.3623 65.5318 49.0419Z" fill="#BF5C7A"/>
<path fill-rule="evenodd" clip-rule="evenodd" d="M50.3955 73.6857C49.0257 74.4014 47.3363 73.9345 46.5395 72.62L43.9457 68.3408L37.952 68.6118C36.3981 68.6821 35.0608 67.5389 34.9053 66.0074L34.2829 59.8793L29.0902 56.0611C27.8339 55.1374 27.5252 53.395 28.389 52.1032L31.2045 47.8927L28.9677 41.3723C28.4654 39.9081 29.2098 38.3058 30.6599 37.7297L35.9919 35.6116L36.7182 30.6586C36.9414 29.1362 38.327 28.0532 39.8754 28.1909L45.8833 28.725L49.7149 24.9227C50.8078 23.8382 52.5584 23.7886 53.7123 24.8093L57.4694 28.133L63.5757 26.8599C65.0951 26.5431 66.5963 27.4549 66.9987 28.9388L68.4657 34.3483L74 35.9227C75.5004 36.3495 76.4039 37.866 76.055 39.3717L74.8788 44.4465L77.8703 48.301C78.8239 49.5297 78.6396 51.29 77.4516 52.2991L73.6009 55.5703L74.5817 61.5874C74.8224 63.0641 73.8899 64.4832 72.4283 64.8646L65.8172 66.5895L64.3728 70.784C63.8723 72.2374 62.3152 73.0479 60.8214 72.6325L55.3324 71.1064L50.3955 73.6857ZM46.9788 31.7455L39.6161 31.091C39.6108 31.0905 39.6074 31.0908 39.6074 31.0908L39.606 31.0911L38.6373 37.6949L31.7405 40.4346L31.7363 40.4364L31.7338 40.4378L34.4341 48.3113L30.8204 53.7155L30.8231 53.7177L37.0575 58.3018L37.8091 65.7025L37.8109 65.703L37.8135 65.7032C37.8135 65.7032 37.8172 65.7033 37.8197 65.7032L45.547 65.3538L49.1598 71.0148L55.0022 67.9919L61.6056 69.8279L61.6103 69.829L61.6132 69.8294L61.6143 69.8294L63.5639 64.1677L71.6892 62.0478C71.6915 62.0472 71.6945 62.0461 71.6945 62.0461L71.6966 62.0453L71.6978 62.0446L70.4548 54.418L75.5581 50.0827L75.5598 50.0812L71.7221 45.1364L73.2077 38.7261L73.2066 38.7254C73.2066 38.7254 73.204 38.724 73.199 38.7226L66.0778 36.6969L64.1828 29.7089L64.1814 29.7087C64.1814 29.7087 64.1784 29.7088 64.1733 29.7099L56.6299 31.2826L51.7746 26.9874L46.9788 31.7455Z" fill="#BF5C7A"/>
</svg>
