<svg width="110" height="111" viewBox="0 0 110 111" fill="none" xmlns="http://www.w3.org/2000/svg"><path d="M34.271 35.835h39.186v2.587h1.982v-4.569h-43.15v4.569h1.982v-2.587zM34.271 60.123H32.29v17.132h43.15V60.123h-1.982v15.15H34.27v-15.15z" fill="#BF5C7A"/><path d="M56.135 60.123v4.569h14.762v-4.57h-1.982v2.587H58.117v-2.586h-1.982zM36.832 60.123v12.563h17.033V60.123h-1.982v10.581h-13.07V60.123h-1.981zM27.748 57.839V39.564h1.982V57.84h-1.982zM32.29 39.564V57.84h1.981V39.564H32.29zM36.832 57.839V39.564h1.982V57.84h-1.982zM41.374 39.564V57.84h1.982V39.564h-1.982zM45.915 57.839V39.564h1.982V57.84h-1.982zM50.458 39.564V57.84h1.982V39.564h-1.982zM55 57.839V39.564h1.982V57.84H55zM59.541 39.564V57.84h1.983V39.564H59.54zM64.084 57.839V39.564h1.982V57.84h-1.982zM68.626 39.564V57.84h1.982V39.564h-1.982zM73.168 57.839V39.564h1.982V57.84h-1.982zM77.71 39.564V57.84h1.982V39.564H77.71z" fill="#BF5C7A"/></svg>