<svg width="110" height="111" viewBox="0 0 110 111" fill="none" xmlns="http://www.w3.org/2000/svg">
<path d="M34.2713 35.8354H73.4567V38.422H75.4387V33.8534H32.2893V38.422H34.2713V35.8354Z" fill="#BF5C7A"/>
<path d="M34.2713 60.1229H32.2893V77.2551H75.4387V60.1229H73.4567V75.2731H34.2713V60.1229Z" fill="#BF5C7A"/>
<path d="M56.135 60.1229V64.6915H70.8966V60.1229H68.9147V62.7095H58.117V60.1229H56.135Z" fill="#BF5C7A"/>
<path d="M36.832 60.1229V72.6865H53.8646V60.1229H51.8826V70.7045H38.8139V60.1229H36.832Z" fill="#BF5C7A"/>
<path d="M27.7476 57.8386V39.5642H29.7295L29.7295 57.8386H27.7476Z" fill="#BF5C7A"/>
<path d="M32.2893 39.5642L32.2893 57.8386H34.2713L34.2713 39.5642H32.2893Z" fill="#BF5C7A"/>
<path d="M36.832 57.8386L36.832 39.5642H38.8139L38.8139 57.8386H36.832Z" fill="#BF5C7A"/>
<path d="M41.3737 39.5642L41.3737 57.8386H43.3557L43.3557 39.5642H41.3737Z" fill="#BF5C7A"/>
<path d="M45.9154 57.8386V39.5642H47.8974V57.8386H45.9154Z" fill="#BF5C7A"/>
<path d="M50.4581 39.5642V57.8386H52.4401V39.5642H50.4581Z" fill="#BF5C7A"/>
<path d="M54.9998 57.8386V39.5642H56.9818V57.8386H54.9998Z" fill="#BF5C7A"/>
<path d="M59.5415 39.5642V57.8386H61.5235V39.5642H59.5415Z" fill="#BF5C7A"/>
<path d="M64.0842 57.8386V39.5642H66.0662V57.8386H64.0842Z" fill="#BF5C7A"/>
<path d="M68.6259 39.5642V57.8386H70.6079V39.5642H68.6259Z" fill="#BF5C7A"/>
<path d="M73.1677 57.8386V39.5642H75.1496V57.8386H73.1677Z" fill="#BF5C7A"/>
<path d="M77.7103 39.5642V57.8386H79.6923V39.5642H77.7103Z" fill="#BF5C7A"/>
</svg>
