<svg width="110" height="111" viewBox="0 0 110 111" fill="none" xmlns="http://www.w3.org/2000/svg">
<path fill-rule="evenodd" clip-rule="evenodd" d="M76.515 57.8246C76.515 61.0197 73.9463 63.6098 70.7777 63.6098C67.609 63.6098 65.0404 61.0197 65.0404 57.8246C65.0404 54.6295 67.609 52.0393 70.7777 52.0393C73.9463 52.0393 76.515 54.6295 76.515 57.8246ZM74.533 57.8246C74.533 59.9407 72.8362 61.6278 70.7777 61.6278C68.7192 61.6278 67.0224 59.9407 67.0224 57.8246C67.0224 55.7085 68.7192 54.0213 70.7777 54.0213C72.8362 54.0213 74.533 55.7085 74.533 57.8246Z" fill="#BF5C7A"/>
<path fill-rule="evenodd" clip-rule="evenodd" d="M42.0133 28.3069C42.3088 27.9096 42.8522 27.7914 43.286 28.03L54.2331 34.051L66.7614 28.0058C67.1372 27.8245 67.5864 27.898 67.8848 28.1898L75.7737 35.9035C75.8438 35.972 75.9015 36.0484 75.947 36.1299H78.2881C80.4773 36.1299 82.2521 37.9047 82.2521 40.0939V78.4479C82.2521 80.6372 80.4773 82.4119 78.2881 82.4119H31.7115C29.5223 82.4119 27.7476 80.6372 27.7476 78.4479V40.0939C27.7476 37.9047 29.5223 36.1299 31.7115 36.1299H36.1946L42.0133 28.3069ZM66.9964 30.0931L73.1703 36.1299H58.0128L56.3644 35.2233L66.9964 30.0931ZM43.0879 30.1831L53.9002 36.1299H38.6647L43.0879 30.1831ZM78.2881 39.1029H31.7115C31.1642 39.1029 30.7205 39.5466 30.7205 40.0939V78.4479C30.7205 78.9952 31.1642 79.4389 31.7115 79.4389H78.2881C78.8354 79.4389 79.2791 78.9952 79.2791 78.4479V67.4935H61.1809V48.8789H79.2791V40.0939C79.2791 39.5466 78.8354 39.1029 78.2881 39.1029ZM63.1629 50.8609V65.5115H79.11V50.8609H63.1629Z" fill="#BF5C7A"/>
</svg>
