<svg width="110" height="111" viewBox="0 0 110 111" fill="none" xmlns="http://www.w3.org/2000/svg"><path fill-rule="evenodd" clip-rule="evenodd" d="M76.515 57.825c0 3.195-2.569 5.785-5.737 5.785-3.169 0-5.738-2.59-5.738-5.785 0-3.196 2.569-5.786 5.738-5.786 3.168 0 5.737 2.59 5.737 5.786zm-1.982 0c0 2.116-1.697 3.803-3.755 3.803-2.059 0-3.756-1.687-3.756-3.803 0-2.117 1.697-3.804 3.756-3.804 2.058 0 3.755 1.688 3.755 3.804z" fill="#BF5C7A"/><path fill-rule="evenodd" clip-rule="evenodd" d="M42.013 28.307a.991.991 0 0 1 1.273-.277l10.947 6.021 12.528-6.045a.991.991 0 0 1 1.124.184l7.889 7.713c.07.069.127.145.173.227h2.341a3.964 3.964 0 0 1 3.964 3.964v38.354a3.964 3.964 0 0 1-3.964 3.964H31.712a3.964 3.964 0 0 1-3.964-3.964V40.094a3.964 3.964 0 0 1 3.963-3.964h4.484l5.818-7.823zm24.983 1.786 6.174 6.037H58.013l-1.649-.907 10.632-5.13zm-23.908.09L53.9 36.13H38.665l4.423-5.947zm35.2 8.92H31.712a.991.991 0 0 0-.991.99v38.355c0 .547.443.99.99.99h46.577a.991.991 0 0 0 .991-.99V67.494H61.181V48.879h18.098v-8.785a.991.991 0 0 0-.99-.991zM63.163 50.86v14.65H79.11v-14.65H63.163z" fill="#BF5C7A"/></svg>