<svg width="225" height="74" viewBox="0 0 225 74" fill="none" xmlns="http://www.w3.org/2000/svg">
<path d="M0.653809 11.1428C0.653809 5.28111 5.40562 0.529297 11.2673 0.529297H214.04C219.902 0.529297 224.654 5.28111 224.654 11.1428V63.0929C224.654 68.9545 219.902 73.7064 214.04 73.7064H11.2673C5.40561 73.7064 0.653809 68.9545 0.653809 63.0929V11.1428Z" fill="black"/>
<path d="M71.6911 21.795V20.6219H71.9593C72.0598 20.6219 72.1827 20.6219 72.3279 20.6219C72.4732 20.6219 72.6184 20.6163 72.7637 20.6052C72.9201 20.594 73.0653 20.5884 73.1994 20.5884C73.3446 20.5772 73.4619 20.5605 73.5513 20.5381C73.8418 20.4934 74.1155 20.4208 74.3724 20.3203C74.6294 20.2086 74.8528 20.0689 75.0428 19.9013C75.2327 19.7337 75.3835 19.5382 75.4952 19.3148C75.607 19.0914 75.6628 18.8456 75.6628 18.5774C75.6628 18.2088 75.6014 17.9015 75.4785 17.6557C75.3556 17.41 75.1824 17.2144 74.959 17.0692C74.7467 16.9128 74.4953 16.8067 74.2049 16.7508C73.9256 16.6838 73.6239 16.6503 73.2999 16.6503C72.6966 16.6503 72.1827 16.6949 71.7582 16.7843C71.3336 16.8625 70.9929 16.9631 70.7359 17.086L70.3673 15.9799C70.5907 15.857 70.9929 15.7341 71.5738 15.6113C72.1548 15.4772 72.8083 15.4102 73.5345 15.4102C73.9814 15.4102 74.4171 15.4604 74.8417 15.561C75.2774 15.6504 75.6628 15.8068 75.998 16.0302C76.3443 16.2425 76.618 16.5385 76.8191 16.9184C77.0314 17.2871 77.1375 17.7451 77.1375 18.2926C77.1375 18.8512 76.9532 19.3874 76.5845 19.9013C76.2158 20.4041 75.6628 20.7672 74.9255 20.9906V21.0576C75.7187 21.1694 76.3443 21.4654 76.8024 21.9458C77.2604 22.4262 77.4894 23.0686 77.4894 23.873C77.4894 24.5098 77.361 25.0628 77.104 25.5321C76.8582 25.9901 76.5286 26.37 76.1153 26.6716C75.7131 26.9732 75.2439 27.1967 74.7076 27.3419C74.1825 27.476 73.6463 27.543 73.0988 27.543C72.3615 27.543 71.7526 27.4983 71.2722 27.409C70.803 27.3308 70.4119 27.2302 70.0991 27.1073L70.451 25.8505C70.708 25.9733 71.0655 26.0795 71.5236 26.1689C71.9928 26.2582 72.557 26.3029 73.2161 26.3029C73.5625 26.3029 73.9032 26.2582 74.2384 26.1689C74.5735 26.0683 74.8696 25.9231 75.1266 25.7332C75.3947 25.5321 75.607 25.2863 75.7634 24.9958C75.9309 24.7053 76.0147 24.359 76.0147 23.9568C76.0147 23.253 75.7689 22.739 75.2774 22.415C74.7858 22.0799 74.1434 21.8844 73.3502 21.8285C73.2161 21.8173 73.0877 21.8118 72.9648 21.8118C72.853 21.8006 72.7357 21.795 72.6128 21.795H71.6911Z" fill="white"/>
<path d="M85.4331 24.0909H81.1095L79.9364 27.3419H78.5622L83.0031 15.4269H83.6399L88.0976 27.3419H86.6396L85.4331 24.0909ZM81.5619 22.8843H85.0141L83.707 19.3148L83.288 17.5384H83.2713L82.8523 19.3483L81.5619 22.8843Z" fill="white"/>
<path d="M95.9397 16.8514H91.0464V27.3419H89.6554V15.6113H95.9397V16.8514Z" fill="white"/>
<path d="M97.0689 15.7286C97.4935 15.628 97.9515 15.561 98.4431 15.5275C98.9347 15.4939 99.4207 15.4772 99.9011 15.4772C100.415 15.4772 100.934 15.5275 101.46 15.628C101.996 15.7286 102.482 15.9129 102.918 16.181C103.353 16.4492 103.705 16.8178 103.973 17.2871C104.253 17.7563 104.392 18.354 104.392 19.0802C104.392 19.7952 104.264 20.3985 104.007 20.8901C103.75 21.3816 103.409 21.7838 102.985 22.0966C102.56 22.3983 102.074 22.6161 101.527 22.7502C100.979 22.8843 100.415 22.9513 99.834 22.9513C99.7782 22.9513 99.6832 22.9513 99.5491 22.9513C99.4262 22.9513 99.2922 22.9513 99.1469 22.9513C99.0129 22.9401 98.8788 22.929 98.7447 22.9178C98.6107 22.9066 98.5157 22.8954 98.4599 22.8843V27.3419H97.0689V15.7286ZM99.9346 16.6838C99.6441 16.6838 99.3648 16.6894 99.0967 16.7005C98.8285 16.7117 98.6163 16.7396 98.4599 16.7843V21.6442C98.5157 21.6665 98.6051 21.6833 98.728 21.6944C98.8509 21.6944 98.9794 21.7 99.1134 21.7112C99.2475 21.7112 99.376 21.7112 99.4989 21.7112C99.6218 21.7112 99.7111 21.7112 99.767 21.7112C100.147 21.7112 100.521 21.6777 100.89 21.6107C101.27 21.5325 101.61 21.3984 101.912 21.2085C102.214 21.0185 102.454 20.7504 102.633 20.4041C102.823 20.0577 102.918 19.6164 102.918 19.0802C102.918 18.6221 102.828 18.2423 102.649 17.9406C102.482 17.6278 102.253 17.382 101.962 17.2033C101.683 17.0133 101.365 16.8793 101.007 16.8011C100.65 16.7229 100.292 16.6838 99.9346 16.6838Z" fill="white"/>
<path d="M109.42 21.795L109.856 23.2865H109.94L110.275 21.7447L112.521 15.6113H113.945L110.979 23.2362C110.677 24.0294 110.409 24.6941 110.174 25.2304C109.951 25.7555 109.722 26.1856 109.487 26.5208C109.253 26.8448 109.001 27.0794 108.733 27.2246C108.465 27.3587 108.136 27.4257 107.745 27.4257C107.376 27.4257 107.08 27.3978 106.856 27.3419C106.644 27.2749 106.443 27.1799 106.253 27.057L106.672 25.9007C106.895 26.0236 107.102 26.1018 107.292 26.1353C107.482 26.1689 107.655 26.1856 107.812 26.1856C108.124 26.1856 108.387 26.0292 108.599 25.7164C108.811 25.3924 108.996 24.9176 109.152 24.292L104.812 15.6113H106.421L109.42 21.795Z" fill="white"/>
<path d="M116.287 21.795V20.6219H116.555C116.655 20.6219 116.778 20.6219 116.923 20.6219C117.069 20.6219 117.214 20.6163 117.359 20.6052C117.516 20.594 117.661 20.5884 117.795 20.5884C117.94 20.5772 118.057 20.5605 118.147 20.5381C118.437 20.4934 118.711 20.4208 118.968 20.3203C119.225 20.2086 119.448 20.0689 119.638 19.9013C119.828 19.7337 119.979 19.5382 120.091 19.3148C120.202 19.0914 120.258 18.8456 120.258 18.5774C120.258 18.2088 120.197 17.9015 120.074 17.6557C119.951 17.41 119.778 17.2144 119.555 17.0692C119.342 16.9128 119.091 16.8067 118.8 16.7508C118.521 16.6838 118.219 16.6503 117.895 16.6503C117.292 16.6503 116.778 16.6949 116.354 16.7843C115.929 16.8625 115.588 16.9631 115.331 17.086L114.963 15.9799C115.186 15.857 115.588 15.7341 116.169 15.6113C116.75 15.4772 117.404 15.4102 118.13 15.4102C118.577 15.4102 119.013 15.4604 119.437 15.561C119.873 15.6504 120.258 15.8068 120.594 16.0302C120.94 16.2425 121.214 16.5385 121.415 16.9184C121.627 17.2871 121.733 17.7451 121.733 18.2926C121.733 18.8512 121.549 19.3874 121.18 19.9013C120.811 20.4041 120.258 20.7672 119.521 20.9906V21.0576C120.314 21.1694 120.94 21.4654 121.398 21.9458C121.856 22.4262 122.085 23.0686 122.085 23.873C122.085 24.5098 121.957 25.0628 121.7 25.5321C121.454 25.9901 121.124 26.37 120.711 26.6716C120.309 26.9732 119.839 27.1967 119.303 27.3419C118.778 27.476 118.242 27.543 117.694 27.543C116.957 27.543 116.348 27.4983 115.868 27.409C115.399 27.3308 115.007 27.2302 114.695 27.1073L115.047 25.8505C115.304 25.9733 115.661 26.0795 116.119 26.1689C116.588 26.2582 117.153 26.3029 117.812 26.3029C118.158 26.3029 118.499 26.2582 118.834 26.1689C119.169 26.0683 119.465 25.9231 119.722 25.7332C119.99 25.5321 120.202 25.2863 120.359 24.9958C120.526 24.7053 120.61 24.359 120.61 23.9568C120.61 23.253 120.364 22.739 119.873 22.415C119.381 22.0799 118.739 21.8844 117.946 21.8285C117.812 21.8173 117.683 21.8118 117.56 21.8118C117.449 21.8006 117.331 21.795 117.208 21.795H116.287Z" fill="white"/>
<path d="M131.621 19.3986L131.721 18.0579H131.654L130.934 19.4321L125.269 27.3419H124.448V15.6113H125.839V23.6551L125.722 24.979H125.789L126.526 23.6049L132.19 15.6113H133.012V27.3419H131.621V19.3986Z" fill="white"/>
<path d="M143.429 16.8514H139.776V27.3419H138.385V16.8514H134.732V15.6113H143.429V16.8514Z" fill="white"/>
<path d="M145.15 15.6113H151.535V16.8514H146.541V20.689H151.116V21.9291H146.541V26.1018H151.619V27.3419H145.15V15.6113Z" fill="white"/>
<path d="M165.675 18.2926C165.675 18.5719 165.63 18.8567 165.54 19.1472C165.451 19.4377 165.317 19.7114 165.138 19.9684C164.96 20.2141 164.73 20.432 164.451 20.6219C164.172 20.8119 163.842 20.9571 163.462 21.0576V21.1247C163.798 21.1805 164.116 21.2755 164.418 21.4096C164.73 21.5436 165.004 21.728 165.239 21.9626C165.473 22.1972 165.663 22.4821 165.809 22.8172C165.954 23.1524 166.026 23.549 166.026 24.0071C166.026 24.6104 165.898 25.1354 165.641 25.5823C165.395 26.018 165.066 26.3755 164.652 26.6548C164.25 26.9341 163.786 27.1408 163.261 27.2749C162.736 27.409 162.2 27.476 161.653 27.476C161.463 27.476 161.239 27.476 160.982 27.476C160.725 27.476 160.457 27.4648 160.178 27.4425C159.899 27.4313 159.619 27.409 159.34 27.3754C159.061 27.3531 158.815 27.314 158.603 27.2581V15.7118C159.016 15.6448 159.496 15.5889 160.044 15.5442C160.591 15.4995 161.189 15.4772 161.837 15.4772C162.273 15.4772 162.714 15.5163 163.161 15.5945C163.619 15.6615 164.032 15.8012 164.401 16.0134C164.77 16.2145 165.071 16.4994 165.306 16.8681C165.552 17.2368 165.675 17.7116 165.675 18.2926ZM161.787 26.2694C162.144 26.2694 162.49 26.2303 162.826 26.1521C163.161 26.0627 163.457 25.9287 163.714 25.7499C163.971 25.56 164.172 25.331 164.317 25.0628C164.474 24.7947 164.552 24.4763 164.552 24.1076C164.552 23.6496 164.457 23.2809 164.267 23.0016C164.088 22.7223 163.848 22.5044 163.546 22.348C163.256 22.1916 162.926 22.0855 162.558 22.0296C162.189 21.9737 161.82 21.9458 161.451 21.9458H159.994V26.1521C160.072 26.1744 160.183 26.1912 160.329 26.2024C160.474 26.2135 160.63 26.2247 160.798 26.2359C160.965 26.2471 161.139 26.2582 161.317 26.2694C161.496 26.2694 161.653 26.2694 161.787 26.2694ZM160.865 20.7728C161.055 20.7728 161.284 20.7672 161.552 20.756C161.82 20.7448 162.044 20.7281 162.222 20.7057C162.49 20.6163 162.742 20.5102 162.976 20.3873C163.211 20.2532 163.418 20.1024 163.597 19.9348C163.786 19.7561 163.932 19.555 164.032 19.3316C164.144 19.0969 164.2 18.8456 164.2 18.5774C164.2 18.2088 164.127 17.9071 163.982 17.6725C163.848 17.4267 163.664 17.2312 163.429 17.086C163.194 16.9407 162.926 16.8402 162.625 16.7843C162.323 16.7173 162.016 16.6838 161.703 16.6838C161.334 16.6838 160.993 16.6949 160.681 16.7173C160.379 16.7285 160.15 16.7508 159.994 16.7843V20.7728H160.865Z" fill="white"/>
<path d="M80.3993 52.2435H71.4857V49.1516H80.3993V52.2435ZM75.4825 39.8157H76.4176L70.1735 57.5072H66.7046L74.2307 36.392H77.6543L85.1955 57.5072H81.7115L75.4825 39.8157Z" fill="white"/>
<path d="M87.3852 64.8071V42.5305H90.0699L90.7184 45.3509L89.723 44.9135C90.3967 44.1091 91.1558 43.4706 92.0004 42.9981C92.8551 42.5154 93.8958 42.2741 95.1225 42.2741C96.5603 42.2741 97.7719 42.626 98.7573 43.3299C99.7527 44.0337 100.507 44.9738 101.02 46.1503C101.532 47.3267 101.789 48.6238 101.789 50.0415C101.789 51.4592 101.537 52.7563 101.035 53.9327C100.532 55.1091 99.7879 56.0493 98.8025 56.7531C97.8172 57.457 96.5905 57.8089 95.1225 57.8089C93.946 57.8089 92.9506 57.6178 92.1362 57.2358C91.3318 56.8537 90.6129 56.2604 89.9794 55.456L90.7486 54.7773V64.8071H87.3852ZM94.5795 54.9734C95.766 54.9734 96.691 54.526 97.3546 53.6311C98.0183 52.7261 98.3501 51.5296 98.3501 50.0415C98.3501 48.5433 98.0183 47.3468 97.3546 46.4519C96.691 45.557 95.766 45.1096 94.5795 45.1096C93.7349 45.1096 93.0109 45.3107 92.4076 45.7129C91.8144 46.105 91.3619 46.6681 91.0502 47.4021C90.7385 48.1361 90.5827 49.0159 90.5827 50.0415C90.5827 51.0872 90.7385 51.9771 91.0502 52.7111C91.3619 53.4451 91.8144 54.0081 92.4076 54.4003C93.0109 54.7824 93.7349 54.9734 94.5795 54.9734Z" fill="white"/>
<path d="M104.772 64.8071V42.5305H107.457L108.105 45.3509L107.11 44.9135C107.784 44.1091 108.543 43.4706 109.387 42.9981C110.242 42.5154 111.283 42.2741 112.51 42.2741C113.947 42.2741 115.159 42.626 116.144 43.3299C117.14 44.0337 117.894 44.9738 118.407 46.1503C118.919 47.3267 119.176 48.6238 119.176 50.0415C119.176 51.4592 118.925 52.7563 118.422 53.9327C117.919 55.1091 117.175 56.0493 116.19 56.7531C115.204 57.457 113.978 57.8089 112.51 57.8089C111.333 57.8089 110.338 57.6178 109.523 57.2358C108.719 56.8537 108 56.2604 107.366 55.456L108.136 54.7773V64.8071H104.772ZM111.967 54.9734C113.153 54.9734 114.078 54.526 114.742 53.6311C115.405 52.7261 115.737 51.5296 115.737 50.0415C115.737 48.5433 115.405 47.3468 114.742 46.4519C114.078 45.557 113.153 45.1096 111.967 45.1096C111.122 45.1096 110.398 45.3107 109.795 45.7129C109.201 46.105 108.749 46.6681 108.437 47.4021C108.126 48.1361 107.97 49.0159 107.97 50.0415C107.97 51.0872 108.126 51.9771 108.437 52.7111C108.749 53.4451 109.201 54.0081 109.795 54.4003C110.398 54.7824 111.122 54.9734 111.967 54.9734Z" fill="white"/>
<path d="M131.729 57.9295C129.597 57.9295 127.742 57.4771 126.163 56.5721C124.585 55.6672 123.358 54.3902 122.483 52.7412C121.618 51.0922 121.186 49.1516 121.186 46.9195C121.186 44.7074 121.654 42.7819 122.589 41.1429C123.534 39.504 124.831 38.2321 126.48 37.3271C128.139 36.4222 130.039 35.9697 132.181 35.9697C133.307 35.9697 134.378 36.0853 135.394 36.3166C136.419 36.5479 137.304 36.8395 138.048 37.1914L137.686 40.4492C136.902 40.1073 136.052 39.8258 135.137 39.6045C134.222 39.3833 133.247 39.2727 132.211 39.2727C130.562 39.2727 129.205 39.6096 128.139 40.2833C127.083 40.9569 126.299 41.8669 125.786 43.0131C125.273 44.1594 125.017 45.4515 125.017 46.8893C125.017 48.3875 125.273 49.7197 125.786 50.8861C126.309 52.0525 127.093 52.9675 128.139 53.6311C129.195 54.2947 130.522 54.6265 132.121 54.6265C132.563 54.6265 133.061 54.5913 133.614 54.5209C134.167 54.4506 134.71 54.345 135.243 54.2042V49.8907H132.196V46.9195H138.742V56.3308C137.978 56.7732 136.987 57.1503 135.771 57.462C134.554 57.7737 133.207 57.9295 131.729 57.9295Z" fill="white"/>
<path d="M145.619 57.8089C144.775 57.8089 144.015 57.6279 143.342 57.2659C142.668 56.9039 142.135 56.3911 141.743 55.7275C141.361 55.0639 141.17 54.2796 141.17 53.3747C141.17 52.5301 141.361 51.8061 141.743 51.2028C142.135 50.5895 142.648 50.0817 143.281 49.6795C143.925 49.2773 144.624 48.9606 145.378 48.7293C146.142 48.488 146.906 48.3121 147.67 48.2015C148.445 48.0909 149.148 48.0305 149.782 48.0205C149.752 46.9547 149.505 46.2206 149.043 45.8185C148.59 45.4062 147.871 45.2001 146.886 45.2001C146.253 45.2001 145.619 45.2906 144.986 45.4716C144.352 45.6525 143.633 45.9693 142.829 46.4217L142.482 43.6768C143.276 43.2344 144.121 42.8925 145.016 42.6512C145.921 42.3998 146.846 42.2741 147.791 42.2741C148.967 42.2741 149.953 42.4802 150.747 42.8925C151.541 43.3047 152.14 43.9834 152.542 44.9286C152.954 45.8738 153.16 47.1356 153.16 48.7143V52.3943C153.16 53.1283 153.196 53.6864 153.266 54.0685C153.336 54.4506 153.472 54.712 153.673 54.8528C153.884 54.9935 154.201 55.0639 154.623 55.0639H155.031L154.669 57.8089H153.733C153.05 57.8089 152.482 57.7284 152.029 57.5676C151.577 57.4167 151.205 57.2006 150.913 56.919C150.632 56.6375 150.39 56.3007 150.189 55.9085C149.676 56.4917 149.013 56.9542 148.198 57.2961C147.394 57.6379 146.534 57.8089 145.619 57.8089ZM146.796 55.1996C147.268 55.1996 147.786 55.079 148.349 54.8377C148.912 54.5863 149.395 54.2344 149.797 53.7819V50.313C148.832 50.3431 147.962 50.4688 147.188 50.69C146.414 50.9012 145.8 51.2179 145.348 51.6402C144.905 52.0525 144.684 52.5804 144.684 53.2239C144.684 53.8975 144.86 54.3953 145.212 54.717C145.574 55.0388 146.102 55.1996 146.796 55.1996Z" fill="white"/>
<path d="M161.251 57.8089C160.336 57.8089 159.592 57.6329 159.019 57.281C158.456 56.9291 158.043 56.4666 157.782 55.8934C157.52 55.3102 157.39 54.6768 157.39 53.9931V34.8838H160.768V52.4547C160.768 53.2691 160.818 53.8623 160.919 54.2344C161.02 54.5963 161.211 54.8276 161.492 54.9282C161.784 55.0187 162.216 55.0639 162.789 55.0639L162.427 57.8089H161.251Z" fill="white"/>
<path d="M169.182 57.8089C168.267 57.8089 167.523 57.6329 166.95 57.281C166.387 56.9291 165.974 56.4666 165.713 55.8934C165.452 55.3102 165.321 54.6768 165.321 53.9931V34.8838H168.699V52.4547C168.699 53.2691 168.75 53.8623 168.85 54.2344C168.951 54.5963 169.142 54.8276 169.423 54.9282C169.715 55.0187 170.147 55.0639 170.72 55.0639L170.358 57.8089H169.182Z" fill="white"/>
<path d="M180.329 57.8089C178.539 57.8089 177.041 57.4469 175.835 56.723C174.638 55.999 173.733 55.0438 173.12 53.8573C172.517 52.6608 172.215 51.3486 172.215 49.9208C172.215 48.5433 172.496 47.2764 173.06 46.1201C173.633 44.9537 174.462 44.0237 175.548 43.3299C176.644 42.626 177.971 42.2741 179.53 42.2741C180.897 42.2741 182.064 42.5506 183.029 43.1036C183.994 43.6567 184.728 44.4208 185.231 45.3961C185.744 46.3614 186 47.4675 186 48.7143C186 48.9958 185.98 49.2924 185.94 49.6041C185.91 49.9058 185.864 50.2175 185.804 50.5392H175.699C175.84 51.6352 176.146 52.5049 176.619 53.1484C177.092 53.792 177.68 54.2595 178.384 54.5511C179.087 54.8326 179.847 54.9734 180.661 54.9734C181.465 54.9734 182.24 54.8779 182.984 54.6868C183.738 54.4857 184.437 54.2143 185.08 53.8724L185.337 56.6626C184.763 56.9442 184.055 57.2056 183.21 57.4469C182.365 57.6882 181.405 57.8089 180.329 57.8089ZM175.85 48.2467H182.561C182.561 47.7037 182.456 47.196 182.245 46.7234C182.044 46.2408 181.717 45.8536 181.264 45.5621C180.822 45.2604 180.239 45.1096 179.515 45.1096C178.459 45.1096 177.634 45.3961 177.041 45.9693C176.458 46.5424 176.061 47.3015 175.85 48.2467Z" fill="white"/>
<path d="M188.916 57.5072V42.5305H191.963L192.129 44.446C192.652 43.8326 193.26 43.3098 193.954 42.8774C194.647 42.445 195.397 42.2289 196.201 42.2289C196.442 42.2289 196.669 42.254 196.88 42.3043L196.608 45.728C196.417 45.6777 196.226 45.6475 196.035 45.6375C195.844 45.6174 195.648 45.6073 195.447 45.6073C194.763 45.6073 194.135 45.7632 193.562 46.0749C192.988 46.3866 192.586 46.7485 192.355 47.1608V57.5072H188.916Z" fill="white"/>
<path d="M200.204 64.8071L203.567 56.6325L197.338 42.5305H201.093L205.226 52.7111L209.238 42.5305H212.978L203.688 64.8071H200.204Z" fill="white"/>
<g clip-path="url(#clip0_3880_14704)">
<path d="M47.3987 15.2832H22.2148C16.9522 15.2832 12.686 19.5494 12.686 24.812V49.9958C12.686 55.2584 16.9522 59.5246 22.2148 59.5246H47.3987C52.6612 59.5246 56.9274 55.2584 56.9274 49.9958V24.812C56.9274 19.5494 52.6612 15.2832 47.3987 15.2832Z" fill="#CF152D"/>
<path d="M23.4703 18.1749C23.1366 18.1753 22.8167 18.3078 22.581 18.5433C22.3453 18.7787 22.2131 19.0977 22.2134 19.4302C22.2137 19.7627 22.3465 20.0815 22.5827 20.3165C22.8188 20.5514 23.1389 20.6833 23.4726 20.6832C23.8063 20.683 24.1263 20.5508 24.3622 20.3157C24.5981 20.0805 24.7307 19.7616 24.7307 19.4291V19.4266C24.7301 19.0941 24.597 18.7754 24.3606 18.5407C24.1243 18.306 23.804 18.1744 23.4703 18.1748V18.1749ZM45.9834 18.1749C45.6496 18.1754 45.3297 18.3078 45.094 18.5433C44.8583 18.7787 44.7261 19.0977 44.7264 19.4302C44.7267 19.7628 44.8596 20.0816 45.0957 20.3165C45.3319 20.5515 45.6521 20.6834 45.9858 20.6832C46.3195 20.683 46.6394 20.5508 46.8753 20.3156C47.1112 20.0805 47.2437 19.7616 47.2437 19.4291V19.4266C47.2431 19.0941 47.11 18.7754 46.8736 18.5407C46.6373 18.306 46.3171 18.1744 45.9834 18.1748V18.1749Z" fill="#C73148"/>
<path d="M23.4207 19.2565C22.9833 19.28 23.0055 19.9162 23.0055 19.9162C25.3562 24.4939 29.6846 26.7393 34.676 26.7395C39.6608 26.7322 44.0322 24.4621 46.3798 19.8904C46.3798 19.8904 46.4728 19.0295 45.5567 19.3279C43.1491 23.3185 39.1044 25.6793 34.6789 25.6867C30.2451 25.6878 26.2149 23.3518 23.8027 19.3537C23.6469 19.2785 23.5217 19.2511 23.4207 19.2565ZM39.3302 37.0503L37.9928 41.0333L36.6909 37.0532H35.42L37.4719 42.8429H38.4613L39.8016 39.0396L41.1404 42.8429H42.1379L44.1853 37.0532H42.9462L41.6421 41.0333L40.3048 37.0503H39.3302ZM32.2266 37.0517L29.6317 42.8399H30.8516L31.3525 41.7194L31.388 41.6347H34.0842L34.6125 42.8399H35.8656L33.2943 37.0856L33.2714 37.0517L32.2266 37.0517ZM51.0192 37.0525V42.8363H52.1984V37.0525L51.0192 37.0525ZM17.2075 37.0532V42.8451H18.403V40.4929H21.1014V42.8451H22.2969V37.0532H21.1014V39.39H18.403V37.0532L17.2075 37.0532ZM27.8288 37.0546V40.3699C27.8288 41.3116 27.3536 41.8143 26.49 41.8143C25.6216 41.8143 25.143 41.2975 25.143 40.3301V37.0584H23.9483V40.3699C23.9483 41.9995 24.8695 42.9335 26.4745 42.9335C28.0947 42.9335 29.0236 41.9815 29.0236 40.3221V37.0547L27.8288 37.0546ZM45.1488 37.0568V42.8406H49.5968V41.7864H46.3273V40.3522H48.5011V39.2973H46.3273V38.112H49.4831V37.0569L45.1488 37.0568ZM32.7328 38.5175L33.5854 40.4567L33.643 40.59H31.8358L31.8927 40.4567L32.7328 38.5175Z" fill="white"/>
</g>
<defs>
<clipPath id="clip0_3880_14704">
<rect width="44.6883" height="44.6883" fill="white" transform="translate(12.3843 15.0527)"/>
</clipPath>
</defs>
</svg>
