<svg width="225" height="74" viewBox="0 0 225 74" fill="none" xmlns="http://www.w3.org/2000/svg"><path d="M.654 11.143C.654 5.28 5.406.529 11.267.529H214.04c5.862 0 10.614 4.752 10.614 10.614v51.95c0 5.861-4.752 10.613-10.614 10.613H11.267C5.406 73.706.654 68.954.654 63.093v-51.95z" fill="#000"/><path d="M71.691 21.795v-1.173h.637c.145 0 .29-.006.436-.017.156-.011.301-.017.435-.017.146-.01.263-.027.352-.05.29-.045.564-.117.821-.218.257-.111.48-.251.67-.419.19-.167.341-.363.453-.586.112-.224.168-.47.168-.738 0-.368-.062-.676-.184-.921a1.469 1.469 0 0 0-.52-.587 1.838 1.838 0 0 0-.754-.318c-.28-.067-.581-.1-.905-.1-.603 0-1.117.044-1.542.133-.424.079-.765.18-1.022.302l-.369-1.106c.224-.123.626-.246 1.207-.369a8.743 8.743 0 0 1 1.96-.2c.447 0 .883.05 1.308.15.435.09.82.246 1.156.47.346.212.62.508.821.887.212.37.319.827.319 1.375 0 .558-.185 1.094-.553 1.608-.37.503-.922.866-1.66 1.09v.067c.794.111 1.42.407 1.877.888.458.48.687 1.123.687 1.927 0 .637-.128 1.19-.385 1.66a3.356 3.356 0 0 1-.989 1.139 4.11 4.11 0 0 1-1.407.67 6.476 6.476 0 0 1-1.61.201c-.736 0-1.345-.045-1.826-.134a5.917 5.917 0 0 1-1.173-.302l.352-1.256c.257.122.615.229 1.073.318.469.09 1.033.134 1.692.134.347 0 .687-.045 1.022-.134.335-.1.632-.246.889-.436a2.24 2.24 0 0 0 .636-.737c.168-.29.252-.637.252-1.04 0-.703-.246-1.217-.738-1.541-.491-.335-1.134-.53-1.927-.587a4.634 4.634 0 0 0-.385-.016 3.534 3.534 0 0 0-.352-.017h-.922zM85.433 24.09H81.11l-1.173 3.252h-1.374l4.441-11.915h.637l4.458 11.915H86.64l-1.207-3.251zm-3.871-1.206h3.452l-1.307-3.57-.419-1.776h-.017l-.419 1.81-1.29 3.536zM95.94 16.851h-4.894v10.49h-1.39v-11.73h6.284v1.24zM97.069 15.729c.424-.101.882-.168 1.374-.201.492-.034.978-.05 1.458-.05.514 0 1.033.05 1.559.15.536.1 1.022.285 1.458.553.435.268.787.637 1.055 1.106.28.47.419 1.067.419 1.793 0 .715-.128 1.319-.385 1.81a3.475 3.475 0 0 1-1.022 1.207c-.425.301-.911.52-1.458.653a7.095 7.095 0 0 1-1.693.201h-.687l-.402-.033a2.91 2.91 0 0 1-.285-.034v4.458h-1.391V15.729zm2.866.955c-.29 0-.57.005-.838.017-.268.01-.48.039-.637.083v4.86c.056.023.145.04.268.05.123 0 .251.006.385.017h.654c.38 0 .754-.033 1.123-.1.38-.079.72-.213 1.022-.402.302-.19.542-.459.721-.805.19-.346.285-.788.285-1.324 0-.458-.09-.838-.269-1.14a1.893 1.893 0 0 0-.687-.737 2.701 2.701 0 0 0-.955-.402 5.002 5.002 0 0 0-1.072-.117zM109.42 21.795l.436 1.491h.084l.335-1.541 2.246-6.134h1.424l-2.966 7.625a44.92 44.92 0 0 1-.805 1.994 7.105 7.105 0 0 1-.687 1.29c-.234.325-.486.56-.754.705-.268.134-.597.2-.988.2-.369 0-.665-.027-.889-.083a2.485 2.485 0 0 1-.603-.285l.419-1.156c.223.123.43.2.62.234s.363.05.52.05c.312 0 .575-.156.787-.469.212-.324.397-.798.553-1.424l-4.34-8.68h1.609l2.999 6.183zM116.287 21.795v-1.173h.636c.146 0 .291-.006.436-.017a6.15 6.15 0 0 1 .436-.017 2.21 2.21 0 0 0 .352-.05c.29-.045.564-.117.821-.218.257-.111.48-.251.67-.419.19-.167.341-.363.453-.586.111-.224.167-.47.167-.738 0-.368-.061-.676-.184-.921a1.471 1.471 0 0 0-.519-.587 1.842 1.842 0 0 0-.755-.318 3.872 3.872 0 0 0-.905-.1c-.603 0-1.117.044-1.541.133-.425.079-.766.18-1.023.302l-.368-1.106c.223-.123.625-.246 1.206-.369a8.747 8.747 0 0 1 1.961-.2c.447 0 .883.05 1.307.15.436.09.821.246 1.157.47.346.212.62.508.821.887.212.37.318.827.318 1.375 0 .558-.184 1.094-.553 1.608-.369.503-.922.866-1.659 1.09v.067c.793.111 1.419.407 1.877.888.458.48.687 1.123.687 1.927 0 .637-.128 1.19-.385 1.66a3.362 3.362 0 0 1-.989 1.139 4.112 4.112 0 0 1-1.408.67 6.474 6.474 0 0 1-1.609.201c-.737 0-1.346-.045-1.826-.134a5.905 5.905 0 0 1-1.173-.302l.352-1.256c.257.122.614.229 1.072.318.469.09 1.034.134 1.693.134.346 0 .687-.045 1.022-.134.335-.1.631-.246.888-.436.268-.2.48-.447.637-.737.167-.29.251-.637.251-1.04 0-.703-.246-1.217-.737-1.541-.492-.335-1.134-.53-1.927-.587a4.644 4.644 0 0 0-.386-.016 3.52 3.52 0 0 0-.352-.017h-.921zM131.621 19.399l.1-1.341h-.067l-.72 1.374-5.665 7.91h-.821v-11.73h1.391v8.043l-.117 1.324h.067l.737-1.374 5.664-7.994h.822v11.73h-1.391V19.4zM143.429 16.851h-3.653v10.49h-1.391v-10.49h-3.653v-1.24h8.697v1.24zM145.15 15.611h6.385v1.24h-4.994v3.838h4.575v1.24h-4.575v4.173h5.078v1.24h-6.469v-11.73zM165.675 18.293c0 .279-.045.564-.135.854-.089.29-.223.564-.402.821a2.742 2.742 0 0 1-.687.654c-.279.19-.609.335-.989.436v.067c.336.055.654.15.956.285.312.134.586.318.821.553.234.234.424.52.57.854.145.335.217.732.217 1.19 0 .603-.128 1.128-.385 1.575a3.134 3.134 0 0 1-.989 1.073c-.402.28-.866.486-1.391.62a6.472 6.472 0 0 1-1.608.201h-.671c-.257 0-.525-.011-.804-.034a10.555 10.555 0 0 1-.838-.067 4.24 4.24 0 0 1-.737-.117V15.712c.413-.067.893-.123 1.441-.168a22.124 22.124 0 0 1 1.793-.067c.436 0 .877.04 1.324.117.458.068.871.207 1.24.42.369.2.67.485.905.854.246.369.369.844.369 1.425zm-3.888 7.976c.357 0 .703-.039 1.039-.117.335-.09.631-.223.888-.402.257-.19.458-.419.603-.687.157-.268.235-.587.235-.955 0-.458-.095-.827-.285-1.106a1.85 1.85 0 0 0-.721-.654 3.023 3.023 0 0 0-.988-.318 7.38 7.38 0 0 0-1.107-.084h-1.457v4.206c.078.022.189.04.335.05a47.823 47.823 0 0 0 .988.067h.47zm-.922-5.496c.19 0 .419-.006.687-.017.268-.011.492-.028.67-.05.268-.09.52-.196.754-.319.235-.134.442-.285.621-.452.189-.179.335-.38.435-.603.112-.235.168-.486.168-.755 0-.368-.073-.67-.218-.905a1.547 1.547 0 0 0-.553-.586 2.318 2.318 0 0 0-.804-.302 4.242 4.242 0 0 0-.922-.1c-.369 0-.71.01-1.022.033a4.269 4.269 0 0 0-.687.067v3.989h.871zM80.4 52.243h-8.914v-3.091h8.913v3.091zm-4.918-12.427h.936l-6.245 17.691h-3.468l7.526-21.115h3.423l7.541 21.115h-3.483l-6.23-17.691zM87.385 64.807V42.531h2.685l.648 2.82-.995-.438A8.174 8.174 0 0 1 92 42.998c.855-.483 1.896-.724 3.123-.724 1.437 0 2.649.352 3.634 1.056.996.704 1.75 1.644 2.263 2.82.512 1.177.769 2.474.769 3.892 0 1.417-.252 2.714-.754 3.89-.503 1.177-1.247 2.117-2.233 2.821-.985.704-2.212 1.056-3.68 1.056-1.176 0-2.171-.191-2.986-.573-.804-.382-1.523-.976-2.157-1.78l.77-.679v10.03h-3.364zm7.194-9.834c1.187 0 2.112-.447 2.776-1.342.663-.905.995-2.101.995-3.59 0-1.498-.332-2.694-.995-3.59-.664-.894-1.589-1.341-2.776-1.341-.844 0-1.568.2-2.171.603-.594.392-1.046.955-1.358 1.69-.311.733-.467 1.613-.467 2.639 0 1.045.156 1.935.467 2.67.312.733.764 1.296 1.358 1.688.603.382 1.327.573 2.171.573zM104.772 64.807V42.531h2.685l.648 2.82-.995-.438a8.185 8.185 0 0 1 2.277-1.915c.855-.483 1.896-.724 3.123-.724 1.437 0 2.649.352 3.634 1.056.996.704 1.75 1.644 2.263 2.82.512 1.177.769 2.474.769 3.892 0 1.417-.251 2.714-.754 3.89-.503 1.177-1.247 2.117-2.232 2.821-.986.704-2.212 1.056-3.68 1.056-1.177 0-2.172-.191-2.987-.573-.804-.382-1.523-.976-2.157-1.78l.77-.679v10.03h-3.364zm7.195-9.834c1.186 0 2.111-.447 2.775-1.342.663-.905.995-2.101.995-3.59 0-1.498-.332-2.694-.995-3.59-.664-.894-1.589-1.341-2.775-1.341-.845 0-1.569.2-2.172.603-.594.392-1.046.955-1.358 1.69-.311.733-.467 1.613-.467 2.639 0 1.045.156 1.935.467 2.67.312.733.764 1.296 1.358 1.688.603.382 1.327.573 2.172.573zM131.729 57.93c-2.132 0-3.987-.453-5.566-1.358-1.578-.905-2.805-2.182-3.68-3.83-.865-1.65-1.297-3.59-1.297-5.822 0-2.213.468-4.138 1.403-5.777a9.926 9.926 0 0 1 3.891-3.816c1.659-.905 3.559-1.357 5.701-1.357 1.126 0 2.197.115 3.213.347 1.025.23 1.91.523 2.654.874l-.362 3.258a15.46 15.46 0 0 0-2.549-.844 12.42 12.42 0 0 0-2.926-.332c-1.649 0-3.006.337-4.072 1.01a6.15 6.15 0 0 0-2.353 2.73c-.513 1.146-.769 2.439-.769 3.876 0 1.498.256 2.83.769 3.997.523 1.166 1.307 2.081 2.353 2.745 1.056.664 2.383.995 3.982.995.442 0 .94-.035 1.493-.105.553-.07 1.096-.176 1.629-.317v-4.313h-3.047V46.92h6.546v9.41c-.764.443-1.755.82-2.971 1.132-1.217.312-2.564.467-4.042.467zM145.619 57.809c-.844 0-1.604-.181-2.277-.543a4.053 4.053 0 0 1-1.599-1.538c-.382-.664-.573-1.448-.573-2.353 0-.845.191-1.569.573-2.172a4.947 4.947 0 0 1 1.538-1.524 8.824 8.824 0 0 1 2.097-.95 14.5 14.5 0 0 1 2.292-.527c.775-.111 1.478-.171 2.112-.181-.03-1.066-.277-1.8-.739-2.203-.453-.412-1.172-.618-2.157-.618-.633 0-1.267.09-1.9.272-.634.18-1.353.497-2.157.95l-.347-2.745a11.147 11.147 0 0 1 2.534-1.026 10.32 10.32 0 0 1 2.775-.377c1.176 0 2.162.206 2.956.618.794.413 1.393 1.091 1.795 2.037.412.945.618 2.207.618 3.785v3.68c0 .734.036 1.292.106 1.675.07.382.206.643.407.784.211.14.528.21.95.21h.408l-.362 2.746h-.936c-.683 0-1.251-.08-1.704-.241a2.903 2.903 0 0 1-1.116-.649 3.999 3.999 0 0 1-.724-1.01c-.513.583-1.176 1.045-1.991 1.387a6.524 6.524 0 0 1-2.579.513zm1.177-2.61c.472 0 .99-.12 1.553-.361a4.208 4.208 0 0 0 1.448-1.056v-3.469c-.965.03-1.835.156-2.609.377-.774.211-1.388.528-1.84.95-.443.413-.664.94-.664 1.584 0 .674.176 1.171.528 1.493.362.322.89.483 1.584.483zM161.251 57.809c-.915 0-1.659-.176-2.232-.528a3.16 3.16 0 0 1-1.237-1.388 4.583 4.583 0 0 1-.392-1.9v-19.11h3.378v17.572c0 .814.05 1.407.151 1.78.101.361.292.593.573.693.292.09.724.136 1.297.136l-.362 2.745h-1.176zM169.182 57.809c-.915 0-1.659-.176-2.232-.528a3.16 3.16 0 0 1-1.237-1.388 4.598 4.598 0 0 1-.392-1.9v-19.11h3.378v17.572c0 .814.051 1.407.151 1.78.101.361.292.593.573.693.292.09.724.136 1.297.136l-.362 2.745h-1.176zM180.329 57.809c-1.79 0-3.288-.362-4.494-1.086-1.197-.724-2.102-1.68-2.715-2.866-.603-1.196-.905-2.508-.905-3.936 0-1.378.281-2.645.845-3.8a6.81 6.81 0 0 1 2.488-2.791c1.096-.704 2.423-1.056 3.982-1.056 1.367 0 2.534.277 3.499.83a5.5 5.5 0 0 1 2.202 2.292c.513.965.769 2.072.769 3.318 0 .282-.02.578-.06.89-.03.302-.076.614-.136.935h-10.105c.141 1.096.447 1.966.92 2.61a4.119 4.119 0 0 0 1.765 1.402 6.072 6.072 0 0 0 2.277.422c.804 0 1.579-.095 2.323-.286a9.86 9.86 0 0 0 2.096-.815l.257 2.79c-.574.282-1.282.544-2.127.785-.845.241-1.805.362-2.881.362zm-4.479-9.562h6.711c0-.543-.105-1.051-.316-1.524a2.498 2.498 0 0 0-.981-1.16c-.442-.303-1.025-.453-1.749-.453-1.056 0-1.881.286-2.474.86-.583.572-.98 1.331-1.191 2.277zM188.916 57.507V42.531h3.047l.166 1.915a7.808 7.808 0 0 1 1.825-1.569 4.17 4.17 0 0 1 2.247-.648c.241 0 .468.025.679.075l-.272 3.424a2.825 2.825 0 0 0-.573-.09 5.616 5.616 0 0 0-.588-.03 3.88 3.88 0 0 0-1.885.467c-.574.312-.976.673-1.207 1.086v10.346h-3.439zM200.204 64.807l3.363-8.175-6.229-14.101h3.755l4.133 10.18 4.012-10.18h3.74l-9.29 22.276h-3.484z" fill="#fff"/><g clip-path="url(#a)"><path d="M47.399 15.283H22.215a9.529 9.529 0 0 0-9.529 9.529v25.184a9.529 9.529 0 0 0 9.529 9.529h25.184a9.529 9.529 0 0 0 9.528-9.53V24.813a9.529 9.529 0 0 0-9.528-9.529z" fill="#CF152D"/><path d="M23.47 18.175a1.26 1.26 0 0 0-1.257 1.255 1.261 1.261 0 0 0 2.517-.001v-.002c0-.333-.133-.652-.37-.886a1.261 1.261 0 0 0-.89-.366zm22.513 0a1.26 1.26 0 0 0-.889.368 1.252 1.252 0 0 0 .892 2.14 1.252 1.252 0 0 0 1.258-1.254v-.002c0-.333-.134-.652-.37-.886a1.261 1.261 0 0 0-.89-.366z" fill="#C73148"/><path d="M23.42 19.256c-.437.024-.415.66-.415.66 2.351 4.578 6.68 6.823 11.671 6.823 4.985-.007 9.356-2.277 11.704-6.849 0 0 .093-.86-.823-.562-2.408 3.99-6.453 6.351-10.878 6.359-4.434 0-8.464-2.335-10.876-6.333a.799.799 0 0 0-.382-.098zM39.33 37.05l-1.337 3.983-1.302-3.98H35.42l2.052 5.79h.99l1.34-3.803 1.338 3.803h.998l2.047-5.79h-1.239l-1.304 3.98-1.337-3.983h-.975zm-7.103.002-2.595 5.788h1.22l.5-1.12.036-.085h2.696l.528 1.205h1.254l-2.572-5.754-.023-.034h-1.044zm18.792 0v5.784h1.18v-5.783h-1.18zm-33.812.001v5.792h1.196v-2.352h2.698v2.352h1.196v-5.792H21.1v2.337h-2.698v-2.337h-1.195zm10.622.002v3.315c0 .942-.475 1.444-1.339 1.444-.868 0-1.347-.517-1.347-1.484v-3.272h-1.195v3.312c0 1.63.921 2.564 2.526 2.564 1.62 0 2.55-.953 2.55-2.612v-3.267h-1.195zm17.32.002v5.784h4.448v-1.055h-3.27v-1.434h2.174v-1.055h-2.174v-1.185h3.156v-1.055H45.15zm-12.416 1.46.852 1.94.058.133h-1.807l.057-.133.84-1.94z" fill="#fff"/></g><defs><clipPath id="a"><path fill="#fff" transform="translate(12.384 15.053)" d="M0 0h44.688v44.688H0z"/></clipPath></defs></svg>