<svg width="225" height="74" fill="none" xmlns="http://www.w3.org/2000/svg"><path d="M.654 10.789C.654 4.927 5.406.175 11.267.175H214.04c5.862 0 10.614 4.752 10.614 10.614v51.95c0 5.861-4.752 10.613-10.614 10.613H11.267C5.406 73.352.654 68.6.654 62.74v-51.95z" fill="#000"/><path d="M30.758 57.238c-6.081-.035-11.112-12.45-11.112-18.772 0-10.328 7.747-12.589 10.733-12.589 1.346 0 2.783.529 4.05.996.886.326 1.803.663 2.312.663.306 0 1.025-.286 1.66-.538 1.353-.539 3.038-1.208 5-1.208h.011c1.465 0 5.906.321 8.577 4.33l.625.94-.9.68c-1.286.97-3.633 2.74-3.633 6.247 0 4.152 2.658 5.75 3.934 6.517.564.34 1.147.689 1.147 1.453 0 .5-3.984 11.219-9.77 11.219-1.416 0-2.416-.426-3.299-.801-.893-.38-1.664-.707-2.937-.707-.645 0-1.461.305-2.325.629-1.18.44-2.517.94-4.033.94h-.04zM44.014 16.375c.15 5.434-3.735 9.203-7.616 8.966-.64-4.335 3.88-8.966 7.616-8.966zM83.369 52.5h-8.42l-2.021 6h-3.566l7.974-22.204h3.705l7.975 22.205h-3.627l-2.02-6.002zm-7.547-2.77h6.673l-3.29-9.74h-.092l-3.291 9.74zm30.416.678c0 5.03-2.679 8.262-6.72 8.262a5.436 5.436 0 0 1-2.939-.684 5.474 5.474 0 0 1-2.128-2.148h-.077v8.018H91.07V42.312h3.2v2.693h.06a5.727 5.727 0 0 1 2.17-2.143 5.69 5.69 0 0 1 2.958-.72c4.087 0 6.781 3.249 6.781 8.265zm-3.398 0c0-3.278-1.685-5.433-4.255-5.433-2.526 0-4.224 2.2-4.224 5.432 0 3.262 1.698 5.447 4.224 5.447 2.57 0 4.255-2.14 4.255-5.447zm21.123 0c0 5.03-2.679 8.262-6.721 8.262a5.439 5.439 0 0 1-2.939-.684 5.475 5.475 0 0 1-2.128-2.148h-.077v8.018h-3.305V42.312h3.199v2.693h.061a5.73 5.73 0 0 1 2.171-2.143 5.688 5.688 0 0 1 2.957-.72c4.087 0 6.782 3.249 6.782 8.265zm-3.399 0c0-3.278-1.685-5.433-4.255-5.433-2.526 0-4.225 2.2-4.225 5.432 0 3.262 1.699 5.447 4.225 5.447 2.57 0 4.255-2.14 4.255-5.447zm15.111 1.906c.245 2.202 2.373 3.648 5.28 3.648 2.787 0 4.791-1.446 4.791-3.431 0-1.724-1.209-2.756-4.071-3.463l-2.863-.693c-4.056-.985-5.939-2.892-5.939-5.986 0-3.831 3.322-6.463 8.036-6.463 4.669 0 7.868 2.632 7.976 6.463h-3.337c-.2-2.216-2.022-3.554-4.684-3.554-2.663 0-4.485 1.354-4.485 3.323 0 1.57 1.163 2.494 4.01 3.201l2.434.6c4.532 1.078 6.413 2.908 6.413 6.156 0 4.154-3.29 6.756-8.525 6.756-4.899 0-8.206-2.54-8.42-6.557h3.384zm20.698-13.833v3.831h3.062v2.632h-3.062v8.924c0 1.387.613 2.033 1.959 2.033.364-.007.727-.032 1.088-.077v2.616a9.038 9.038 0 0 1-1.836.153c-3.261 0-4.532-1.23-4.532-4.37v-9.28h-2.342v-2.63h2.342V38.48h3.321zm4.834 11.926c0-5.093 2.984-8.294 7.637-8.294 4.669 0 7.64 3.2 7.64 8.294 0 5.108-2.955 8.295-7.64 8.295-4.683 0-7.637-3.187-7.637-8.294zm11.909 0c0-3.494-1.593-5.556-4.272-5.556-2.678 0-4.271 2.078-4.271 5.556 0 3.509 1.593 5.555 4.271 5.555 2.679 0 4.272-2.047 4.272-5.555zm6.093-8.095h3.152v2.756h.077a3.862 3.862 0 0 1 1.42-2.154 3.828 3.828 0 0 1 2.453-.771c.381-.002.761.04 1.133.124v3.108a4.602 4.602 0 0 0-1.485-.2 3.32 3.32 0 0 0-2.575 1.065 3.352 3.352 0 0 0-.87 2.659V58.5h-3.305V42.312zm23.475 11.434c-.445 2.939-3.292 4.956-6.934 4.956-4.685 0-7.592-3.155-7.592-8.218 0-5.078 2.923-8.37 7.453-8.37 4.455 0 7.257 3.076 7.257 7.984v1.139h-11.374v.2a4.245 4.245 0 0 0 1.137 3.276 4.196 4.196 0 0 0 3.196 1.31 3.628 3.628 0 0 0 2.235-.518 3.655 3.655 0 0 0 1.483-1.759h3.139zm-11.174-4.832h8.051a3.91 3.91 0 0 0-1.082-2.922 3.87 3.87 0 0 0-2.868-1.186A4.057 4.057 0 0 0 192.709 46a4.12 4.12 0 0 0-1.199 2.913zM71.691 21.441v-1.173h.637c.145 0 .29-.006.436-.017.156-.011.301-.017.435-.017.146-.01.263-.028.352-.05.29-.045.564-.117.821-.218.257-.111.48-.251.67-.419.19-.167.341-.363.453-.586.112-.224.168-.47.168-.738 0-.368-.062-.675-.184-.921a1.469 1.469 0 0 0-.52-.587 1.838 1.838 0 0 0-.754-.318c-.28-.067-.581-.1-.905-.1-.603 0-1.117.044-1.542.133-.424.079-.765.18-1.022.302l-.369-1.106c.224-.123.626-.246 1.207-.369a8.75 8.75 0 0 1 1.96-.2c.447 0 .883.05 1.308.15.435.09.82.246 1.156.47.346.212.62.508.821.887.212.37.319.827.319 1.375 0 .558-.185 1.094-.553 1.608-.37.503-.922.866-1.66 1.09v.067c.794.111 1.42.407 1.877.888.458.48.687 1.123.687 1.927 0 .637-.128 1.19-.385 1.659a3.355 3.355 0 0 1-.989 1.14 4.11 4.11 0 0 1-1.407.67 6.476 6.476 0 0 1-1.61.201c-.736 0-1.345-.045-1.826-.134a5.917 5.917 0 0 1-1.173-.302l.352-1.256c.257.122.615.229 1.073.318.469.09 1.033.134 1.692.134.347 0 .687-.045 1.022-.134.335-.1.632-.246.889-.436a2.24 2.24 0 0 0 .636-.737c.168-.29.252-.637.252-1.04 0-.703-.246-1.217-.738-1.541-.491-.335-1.134-.53-1.927-.587a4.635 4.635 0 0 0-.385-.016 3.565 3.565 0 0 0-.352-.017h-.922zM85.433 23.737H81.11l-1.173 3.25h-1.374l4.441-11.914h.637l4.458 11.915H86.64l-1.207-3.251zm-3.871-1.207h3.452l-1.307-3.57-.419-1.776h-.017l-.419 1.81-1.29 3.536zM95.94 16.497h-4.894v10.49h-1.39v-11.73h6.284v1.24zM97.069 15.375c.424-.101.882-.168 1.374-.201.492-.034.978-.05 1.458-.05.514 0 1.033.05 1.559.15.536.1 1.022.285 1.458.553.435.268.787.637 1.055 1.106.28.47.419 1.067.419 1.793 0 .715-.128 1.319-.385 1.81a3.475 3.475 0 0 1-1.022 1.207c-.425.301-.911.52-1.458.653a7.095 7.095 0 0 1-1.693.201h-.687l-.402-.033a2.91 2.91 0 0 1-.285-.034v4.458h-1.391V15.375zm2.866.955c-.29 0-.57.005-.838.017-.268.01-.48.039-.637.083v4.86c.056.023.145.04.268.05.123 0 .251.006.385.017h.654c.38 0 .754-.033 1.123-.1a3.06 3.06 0 0 0 1.022-.402c.302-.19.542-.459.721-.805.19-.346.285-.788.285-1.324 0-.458-.09-.838-.269-1.14a1.893 1.893 0 0 0-.687-.737 2.701 2.701 0 0 0-.955-.402 5.002 5.002 0 0 0-1.072-.117zM109.42 21.441l.436 1.492h.084l.335-1.542 2.246-6.134h1.424l-2.966 7.625a44.92 44.92 0 0 1-.805 1.994 7.105 7.105 0 0 1-.687 1.29c-.234.325-.486.56-.754.705-.268.134-.597.2-.988.2-.369 0-.665-.027-.889-.083a2.485 2.485 0 0 1-.603-.285l.419-1.156c.223.123.43.2.62.234s.363.05.52.05c.312 0 .575-.156.787-.469.212-.324.397-.798.553-1.424l-4.34-8.68h1.609l2.999 6.183zM116.287 21.441v-1.173h.636c.146 0 .291-.006.436-.017a6.15 6.15 0 0 1 .436-.017 2.21 2.21 0 0 0 .352-.05c.29-.045.564-.117.821-.218.257-.111.48-.251.67-.419.19-.167.341-.363.453-.586.111-.224.167-.47.167-.738 0-.368-.061-.675-.184-.921a1.471 1.471 0 0 0-.519-.587 1.842 1.842 0 0 0-.755-.318 3.872 3.872 0 0 0-.905-.1c-.603 0-1.117.044-1.541.133-.425.079-.766.18-1.023.302l-.368-1.106c.223-.123.625-.246 1.206-.369a8.753 8.753 0 0 1 1.961-.2c.447 0 .883.05 1.307.15.436.09.821.246 1.157.47.346.212.62.508.821.887.212.37.318.827.318 1.375 0 .558-.184 1.094-.553 1.608-.369.503-.922.866-1.659 1.09v.067c.793.111 1.419.407 1.877.888.458.48.687 1.123.687 1.927 0 .637-.128 1.19-.385 1.659a3.361 3.361 0 0 1-.989 1.14 4.112 4.112 0 0 1-1.408.67 6.474 6.474 0 0 1-1.609.201c-.737 0-1.346-.045-1.826-.134a5.905 5.905 0 0 1-1.173-.302l.352-1.256c.257.122.614.229 1.072.318.469.09 1.034.134 1.693.134.346 0 .687-.045 1.022-.134.335-.1.631-.246.888-.436.268-.201.48-.447.637-.737.167-.29.251-.637.251-1.04 0-.703-.246-1.217-.737-1.541-.492-.335-1.134-.53-1.927-.587a4.645 4.645 0 0 0-.386-.016 3.551 3.551 0 0 0-.352-.017h-.921zM131.621 19.045l.1-1.341h-.067l-.72 1.374-5.665 7.91h-.821v-11.73h1.391V23.3l-.117 1.324h.067l.737-1.374 5.664-7.994h.822v11.73h-1.391v-7.942zM143.429 16.497h-3.653v10.49h-1.391v-10.49h-3.653v-1.24h8.697v1.24zM145.15 15.257h6.385v1.24h-4.994v3.838h4.575v1.24h-4.575v4.173h5.078v1.24h-6.469v-11.73zM165.675 17.939c0 .279-.045.564-.135.854-.089.29-.223.564-.402.821a2.742 2.742 0 0 1-.687.654c-.279.19-.609.335-.989.436v.067c.336.055.654.15.956.285.312.134.586.318.821.553.234.234.424.52.57.854.145.335.217.732.217 1.19 0 .603-.128 1.128-.385 1.575a3.134 3.134 0 0 1-.989 1.073c-.402.28-.866.486-1.391.62a6.472 6.472 0 0 1-1.608.201h-.671c-.257 0-.525-.011-.804-.034a10.555 10.555 0 0 1-.838-.067 4.24 4.24 0 0 1-.737-.117V15.358c.413-.067.893-.123 1.441-.168a22.124 22.124 0 0 1 1.793-.067c.436 0 .877.04 1.324.118.458.066.871.206 1.24.418.369.201.67.486.905.855.246.369.369.844.369 1.425zm-3.888 7.976c.357 0 .703-.039 1.039-.117.335-.09.631-.223.888-.402.257-.19.458-.419.603-.687.157-.268.235-.587.235-.955 0-.458-.095-.827-.285-1.106a1.85 1.85 0 0 0-.721-.654 3.023 3.023 0 0 0-.988-.318 7.38 7.38 0 0 0-1.107-.084h-1.457v4.206c.078.022.189.04.335.05a47.823 47.823 0 0 0 .988.067h.47zm-.922-5.496c.19 0 .419-.006.687-.017.268-.011.492-.028.67-.05.268-.09.52-.196.754-.319.235-.134.442-.285.621-.452.189-.179.335-.38.435-.604.112-.234.168-.485.168-.754 0-.368-.073-.67-.218-.904a1.547 1.547 0 0 0-.553-.587 2.318 2.318 0 0 0-.804-.302 4.242 4.242 0 0 0-.922-.1c-.369 0-.71.01-1.022.033a4.269 4.269 0 0 0-.687.067v3.989h.871z" fill="#fff"/></svg>