<svg width="225" height="74" viewBox="0 0 225 74" fill="none" xmlns="http://www.w3.org/2000/svg">
<path d="M0.653809 10.7888C0.653809 4.9271 5.40562 0.175293 11.2673 0.175293H214.04C219.902 0.175293 224.654 4.9271 224.654 10.7888V62.7389C224.654 68.6005 219.902 73.3523 214.04 73.3523H11.2673C5.40561 73.3523 0.653809 68.6005 0.653809 62.7389V10.7888Z" fill="black"/>
<path d="M30.758 57.2377C24.6765 57.2026 19.646 44.7882 19.646 38.4658C19.646 28.1382 27.3935 25.8772 30.3793 25.8772C31.7249 25.8772 33.1617 26.4056 34.4289 26.8732C35.3151 27.1994 36.2317 27.5361 36.7414 27.5361C37.0465 27.5361 37.7655 27.2497 38.4003 26.9983C39.7541 26.4594 41.4387 25.7896 43.4004 25.7896C43.404 25.7896 43.4087 25.7896 43.4121 25.7896C44.8769 25.7896 49.3183 26.111 51.9885 30.1209L52.6139 31.0609L51.7137 31.7401C50.4278 32.7104 48.0814 34.4804 48.0814 37.9865C48.0814 42.1391 50.7387 43.7361 52.0153 44.5041C52.5789 44.8432 53.1622 45.1927 53.1622 45.9573C53.1622 46.4565 49.178 57.1757 43.3922 57.1757C41.9765 57.1757 40.9758 56.7502 40.0931 56.3749C39.1999 55.995 38.4295 55.6677 37.1563 55.6677C36.511 55.6677 35.695 55.9728 34.831 56.2966C33.6504 56.7373 32.3141 57.2377 30.7978 57.2377H30.758Z" fill="white"/>
<path d="M44.0136 16.3755C44.1643 21.8086 40.2788 25.5778 36.3979 25.3414C35.7584 21.0056 40.2783 16.3755 44.0136 16.3755Z" fill="white"/>
<path d="M83.3689 52.4994H74.9498L72.928 58.5009H69.3618L77.3364 36.2964H81.0414L89.0158 58.5009H85.3891L83.3689 52.4994ZM75.8217 49.7298H82.4952L79.2054 39.9897H79.1133L75.8217 49.7298ZM106.238 50.4075C106.238 55.4381 103.559 58.6703 99.5175 58.6703C98.4937 58.7241 97.4754 58.487 96.5793 57.9861C95.6833 57.4852 94.9456 56.7407 94.4509 55.8379H94.3744V63.8564H91.0687V42.3121H94.2684V45.0048H94.3292C94.8467 44.1063 95.5968 43.3657 96.4997 42.8617C97.4026 42.3578 98.4245 42.1093 99.4567 42.1427C103.544 42.1427 106.238 45.3908 106.238 50.4075ZM102.84 50.4075C102.84 47.1299 101.155 44.9751 98.5848 44.9751C96.0591 44.9751 94.3605 47.1752 94.3605 50.4073C94.3605 53.6693 96.0591 55.8538 98.5848 55.8538C101.155 55.8538 102.84 53.7149 102.84 50.4075ZM123.963 50.4075C123.963 55.4381 121.284 58.6703 117.242 58.6703C116.218 58.7241 115.199 58.487 114.303 57.9861C113.407 57.4852 112.67 56.7407 112.175 55.8379H112.098V63.8564H108.793V42.3121H111.992V45.0048H112.053C112.571 44.1063 113.321 43.3657 114.224 42.8617C115.127 42.3578 116.148 42.1093 117.181 42.1427C121.268 42.1427 123.963 45.3908 123.963 50.4075ZM120.564 50.4075C120.564 47.1299 118.879 44.9751 116.309 44.9751C113.783 44.9751 112.084 47.1752 112.084 50.4073C112.084 53.6693 113.783 55.8538 116.309 55.8538C118.879 55.8538 120.564 53.7149 120.564 50.4075ZM135.675 52.3143C135.92 54.5162 138.048 55.962 140.955 55.962C143.742 55.962 145.746 54.5162 145.746 52.5307C145.746 50.8071 144.537 49.7752 141.675 49.068L138.812 48.3748C134.756 47.3899 132.873 45.4831 132.873 42.3888C132.873 38.5576 136.195 35.9263 140.909 35.9263C145.578 35.9263 148.777 38.5576 148.885 42.3888H145.548C145.348 40.173 143.526 38.8353 140.864 38.8353C138.201 38.8353 136.379 40.1887 136.379 42.1583C136.379 43.7283 137.542 44.652 140.389 45.359L142.823 45.9598C147.355 47.0371 149.236 48.8672 149.236 52.1149C149.236 56.2692 145.946 58.8711 140.711 58.8711C135.812 58.8711 132.505 56.3302 132.291 52.3141L135.675 52.3143ZM156.373 38.4811V42.3121H159.435V44.9436H156.373V53.8683C156.373 55.2548 156.986 55.9009 158.332 55.9009C158.696 55.8945 159.059 55.8688 159.42 55.824V58.44C158.814 58.5536 158.199 58.605 157.584 58.5934C154.323 58.5934 153.052 57.3624 153.052 54.2227V44.9436H150.71V42.3121H153.052V38.4811H156.373ZM161.207 50.4075C161.207 45.3138 164.191 42.1131 168.844 42.1131C173.513 42.1131 176.484 45.3138 176.484 50.4075C176.484 55.515 173.529 58.7017 168.844 58.7017C164.161 58.7017 161.207 55.515 161.207 50.4075ZM173.116 50.4075C173.116 46.9134 171.523 44.851 168.844 44.851C166.166 44.851 164.573 46.9289 164.573 50.4075C164.573 53.9155 166.166 55.962 168.844 55.962C171.523 55.962 173.116 53.9155 173.116 50.4075ZM179.209 42.3121H182.361V45.0675H182.438C182.651 44.2069 183.153 43.4464 183.858 42.9138C184.564 42.3811 185.43 42.1089 186.311 42.1427C186.692 42.1414 187.072 42.183 187.444 42.2667V45.3749C186.963 45.2272 186.461 45.1594 185.959 45.1741C185.479 45.1545 185 45.2396 184.555 45.4236C184.111 45.6076 183.711 45.886 183.384 46.2399C183.057 46.5937 182.81 47.0146 182.66 47.4735C182.51 47.9325 182.46 48.4187 182.514 48.8987V58.5009H179.209V42.3121ZM202.684 53.746C202.239 56.6849 199.392 58.7017 195.75 58.7017C191.065 58.7017 188.158 55.5465 188.158 50.4842C188.158 45.4064 191.081 42.1131 195.611 42.1131C200.066 42.1131 202.868 45.1898 202.868 50.0983V51.2368H191.494V51.4376C191.442 52.0334 191.516 52.6336 191.712 53.1984C191.908 53.7632 192.221 54.2796 192.631 54.7133C193.041 55.147 193.538 55.4881 194.089 55.7139C194.639 55.9398 195.232 56.0452 195.827 56.0232C196.608 56.0967 197.392 55.9149 198.062 55.5046C198.732 55.0943 199.252 54.4775 199.545 53.746H202.684ZM191.51 48.9144H199.561C199.591 48.3787 199.51 47.8426 199.324 47.3398C199.138 46.8369 198.85 46.3782 198.479 45.9924C198.108 45.6066 197.662 45.302 197.168 45.0978C196.675 44.8935 196.145 44.7941 195.611 44.8056C195.073 44.8023 194.539 44.9063 194.041 45.1115C193.543 45.3166 193.09 45.619 192.709 46.001C192.328 46.383 192.025 46.8371 191.82 47.3372C191.614 47.8372 191.509 48.3733 191.51 48.9144Z" fill="white"/>
<path d="M71.6911 21.441V20.2679H71.9593C72.0598 20.2679 72.1827 20.2679 72.3279 20.2679C72.4732 20.2679 72.6184 20.2623 72.7637 20.2512C72.9201 20.24 73.0653 20.2344 73.1994 20.2344C73.3446 20.2232 73.4619 20.2065 73.5513 20.1841C73.8418 20.1394 74.1155 20.0668 74.3724 19.9663C74.6294 19.8546 74.8528 19.7149 75.0428 19.5473C75.2327 19.3797 75.3835 19.1842 75.4952 18.9608C75.607 18.7373 75.6628 18.4916 75.6628 18.2234C75.6628 17.8548 75.6014 17.5475 75.4785 17.3017C75.3556 17.056 75.1824 16.8604 74.959 16.7152C74.7467 16.5588 74.4953 16.4527 74.2049 16.3968C73.9256 16.3298 73.6239 16.2963 73.2999 16.2963C72.6966 16.2963 72.1827 16.3409 71.7582 16.4303C71.3336 16.5085 70.9929 16.6091 70.7359 16.732L70.3673 15.6259C70.5907 15.503 70.9929 15.3801 71.5738 15.2572C72.1548 15.1232 72.8083 15.0562 73.5345 15.0562C73.9814 15.0562 74.4171 15.1064 74.8417 15.207C75.2774 15.2964 75.6628 15.4528 75.998 15.6762C76.3443 15.8885 76.618 16.1845 76.8191 16.5644C77.0314 16.9331 77.1375 17.3911 77.1375 17.9385C77.1375 18.4972 76.9532 19.0334 76.5845 19.5473C76.2158 20.0501 75.6628 20.4132 74.9255 20.6366V20.7036C75.7187 20.8154 76.3443 21.1114 76.8024 21.5918C77.2604 22.0722 77.4894 22.7146 77.4894 23.519C77.4894 24.1558 77.361 24.7088 77.104 25.178C76.8582 25.6361 76.5286 26.016 76.1153 26.3176C75.7131 26.6192 75.2439 26.8427 74.7076 26.9879C74.1825 27.122 73.6463 27.189 73.0988 27.189C72.3615 27.189 71.7526 27.1443 71.2722 27.055C70.803 26.9768 70.4119 26.8762 70.0991 26.7533L70.451 25.4965C70.708 25.6193 71.0655 25.7255 71.5236 25.8149C71.9928 25.9042 72.557 25.9489 73.2161 25.9489C73.5625 25.9489 73.9032 25.9042 74.2384 25.8149C74.5735 25.7143 74.8696 25.5691 75.1266 25.3791C75.3947 25.178 75.607 24.9323 75.7634 24.6418C75.9309 24.3513 76.0147 24.005 76.0147 23.6028C76.0147 22.8989 75.7689 22.385 75.2774 22.061C74.7858 21.7259 74.1434 21.5304 73.3502 21.4745C73.2161 21.4633 73.0877 21.4577 72.9648 21.4577C72.853 21.4466 72.7357 21.441 72.6128 21.441H71.6911Z" fill="white"/>
<path d="M85.4331 23.7369H81.1095L79.9364 26.9879H78.5622L83.0031 15.0729H83.6399L88.0976 26.9879H86.6396L85.4331 23.7369ZM81.5619 22.5303H85.0141L83.707 18.9608L83.288 17.1844H83.2713L82.8523 18.9943L81.5619 22.5303Z" fill="white"/>
<path d="M95.9397 16.4973H91.0464V26.9879H89.6554V15.2572H95.9397V16.4973Z" fill="white"/>
<path d="M97.0689 15.3746C97.4935 15.274 97.9515 15.207 98.4431 15.1735C98.9347 15.1399 99.4207 15.1232 99.9011 15.1232C100.415 15.1232 100.934 15.1735 101.46 15.274C101.996 15.3746 102.482 15.5589 102.918 15.827C103.353 16.0952 103.705 16.4638 103.973 16.9331C104.253 17.4023 104.392 18 104.392 18.7262C104.392 19.4412 104.264 20.0445 104.007 20.5361C103.75 21.0276 103.409 21.4298 102.985 21.7426C102.56 22.0443 102.074 22.2621 101.527 22.3962C100.979 22.5303 100.415 22.5973 99.834 22.5973C99.7782 22.5973 99.6832 22.5973 99.5491 22.5973C99.4262 22.5973 99.2922 22.5973 99.1469 22.5973C99.0129 22.5861 98.8788 22.575 98.7447 22.5638C98.6107 22.5526 98.5157 22.5414 98.4599 22.5303V26.9879H97.0689V15.3746ZM99.9346 16.3298C99.6441 16.3298 99.3648 16.3354 99.0967 16.3465C98.8285 16.3577 98.6163 16.3856 98.4599 16.4303V21.2902C98.5157 21.3125 98.6051 21.3293 98.728 21.3404C98.8509 21.3404 98.9794 21.346 99.1134 21.3572C99.2475 21.3572 99.376 21.3572 99.4989 21.3572C99.6218 21.3572 99.7111 21.3572 99.767 21.3572C100.147 21.3572 100.521 21.3237 100.89 21.2567C101.27 21.1784 101.61 21.0444 101.912 20.8545C102.214 20.6645 102.454 20.3964 102.633 20.0501C102.823 19.7037 102.918 19.2624 102.918 18.7262C102.918 18.2681 102.828 17.8883 102.649 17.5866C102.482 17.2738 102.253 17.028 101.962 16.8493C101.683 16.6593 101.365 16.5253 101.007 16.4471C100.65 16.3689 100.292 16.3298 99.9346 16.3298Z" fill="white"/>
<path d="M109.42 21.441L109.856 22.9325H109.94L110.275 21.3907L112.521 15.2572H113.945L110.979 22.8822C110.677 23.6754 110.409 24.3401 110.174 24.8764C109.951 25.4015 109.722 25.8316 109.487 26.1668C109.253 26.4908 109.001 26.7254 108.733 26.8706C108.465 27.0047 108.136 27.0717 107.745 27.0717C107.376 27.0717 107.08 27.0438 106.856 26.9879C106.644 26.9209 106.443 26.8259 106.253 26.703L106.672 25.5467C106.895 25.6696 107.102 25.7478 107.292 25.7813C107.482 25.8149 107.655 25.8316 107.812 25.8316C108.124 25.8316 108.387 25.6752 108.599 25.3624C108.811 25.0384 108.996 24.5636 109.152 23.9379L104.812 15.2572H106.421L109.42 21.441Z" fill="white"/>
<path d="M116.287 21.441V20.2679H116.555C116.655 20.2679 116.778 20.2679 116.923 20.2679C117.069 20.2679 117.214 20.2623 117.359 20.2512C117.516 20.24 117.661 20.2344 117.795 20.2344C117.94 20.2232 118.057 20.2065 118.147 20.1841C118.437 20.1394 118.711 20.0668 118.968 19.9663C119.225 19.8546 119.448 19.7149 119.638 19.5473C119.828 19.3797 119.979 19.1842 120.091 18.9608C120.202 18.7373 120.258 18.4916 120.258 18.2234C120.258 17.8548 120.197 17.5475 120.074 17.3017C119.951 17.056 119.778 16.8604 119.555 16.7152C119.342 16.5588 119.091 16.4527 118.8 16.3968C118.521 16.3298 118.219 16.2963 117.895 16.2963C117.292 16.2963 116.778 16.3409 116.354 16.4303C115.929 16.5085 115.588 16.6091 115.331 16.732L114.963 15.6259C115.186 15.503 115.588 15.3801 116.169 15.2572C116.75 15.1232 117.404 15.0562 118.13 15.0562C118.577 15.0562 119.013 15.1064 119.437 15.207C119.873 15.2964 120.258 15.4528 120.594 15.6762C120.94 15.8885 121.214 16.1845 121.415 16.5644C121.627 16.9331 121.733 17.3911 121.733 17.9385C121.733 18.4972 121.549 19.0334 121.18 19.5473C120.811 20.0501 120.258 20.4132 119.521 20.6366V20.7036C120.314 20.8154 120.94 21.1114 121.398 21.5918C121.856 22.0722 122.085 22.7146 122.085 23.519C122.085 24.1558 121.957 24.7088 121.7 25.178C121.454 25.6361 121.124 26.016 120.711 26.3176C120.309 26.6192 119.839 26.8427 119.303 26.9879C118.778 27.122 118.242 27.189 117.694 27.189C116.957 27.189 116.348 27.1443 115.868 27.055C115.399 26.9768 115.007 26.8762 114.695 26.7533L115.047 25.4965C115.304 25.6193 115.661 25.7255 116.119 25.8149C116.588 25.9042 117.153 25.9489 117.812 25.9489C118.158 25.9489 118.499 25.9042 118.834 25.8149C119.169 25.7143 119.465 25.5691 119.722 25.3791C119.99 25.178 120.202 24.9323 120.359 24.6418C120.526 24.3513 120.61 24.005 120.61 23.6028C120.61 22.8989 120.364 22.385 119.873 22.061C119.381 21.7259 118.739 21.5304 117.946 21.4745C117.812 21.4633 117.683 21.4577 117.56 21.4577C117.449 21.4466 117.331 21.441 117.208 21.441H116.287Z" fill="white"/>
<path d="M131.621 19.0446L131.721 17.7039H131.654L130.934 19.0781L125.269 26.9879H124.448V15.2572H125.839V23.3011L125.722 24.625H125.789L126.526 23.2509L132.19 15.2572H133.012V26.9879H131.621V19.0446Z" fill="white"/>
<path d="M143.429 16.4973H139.776V26.9879H138.385V16.4973H134.732V15.2572H143.429V16.4973Z" fill="white"/>
<path d="M145.15 15.2572H151.535V16.4973H146.541V20.335H151.116V21.5751H146.541V25.7478H151.619V26.9879H145.15V15.2572Z" fill="white"/>
<path d="M165.675 17.9385C165.675 18.2178 165.63 18.5027 165.54 18.7932C165.451 19.0837 165.317 19.3574 165.138 19.6144C164.96 19.8601 164.73 20.078 164.451 20.2679C164.172 20.4578 163.842 20.6031 163.462 20.7036V20.7707C163.798 20.8265 164.116 20.9215 164.418 21.0556C164.73 21.1896 165.004 21.374 165.239 21.6086C165.473 21.8432 165.663 22.1281 165.809 22.4632C165.954 22.7984 166.026 23.195 166.026 23.6531C166.026 24.2564 165.898 24.7814 165.641 25.2283C165.395 25.664 165.066 26.0215 164.652 26.3008C164.25 26.5801 163.786 26.7868 163.261 26.9209C162.736 27.055 162.2 27.122 161.653 27.122C161.463 27.122 161.239 27.122 160.982 27.122C160.725 27.122 160.457 27.1108 160.178 27.0885C159.899 27.0773 159.619 27.055 159.34 27.0214C159.061 26.9991 158.815 26.96 158.603 26.9041V15.3578C159.016 15.2908 159.496 15.2349 160.044 15.1902C160.591 15.1455 161.189 15.1232 161.837 15.1232C162.273 15.1232 162.714 15.1623 163.161 15.2405C163.619 15.3075 164.032 15.4472 164.401 15.6594C164.77 15.8605 165.071 16.1454 165.306 16.5141C165.552 16.8828 165.675 17.3576 165.675 17.9385ZM161.787 25.9154C162.144 25.9154 162.49 25.8763 162.826 25.7981C163.161 25.7087 163.457 25.5747 163.714 25.3959C163.971 25.206 164.172 24.977 164.317 24.7088C164.474 24.4407 164.552 24.1223 164.552 23.7536C164.552 23.2956 164.457 22.9269 164.267 22.6476C164.088 22.3683 163.848 22.1504 163.546 21.994C163.256 21.8376 162.926 21.7315 162.558 21.6756C162.189 21.6197 161.82 21.5918 161.451 21.5918H159.994V25.7981C160.072 25.8204 160.183 25.8372 160.329 25.8484C160.474 25.8595 160.63 25.8707 160.798 25.8819C160.965 25.8931 161.139 25.9042 161.317 25.9154C161.496 25.9154 161.653 25.9154 161.787 25.9154ZM160.865 20.4187C161.055 20.4187 161.284 20.4132 161.552 20.402C161.82 20.3908 162.044 20.3741 162.222 20.3517C162.49 20.2623 162.742 20.1562 162.976 20.0333C163.211 19.8992 163.418 19.7484 163.597 19.5808C163.786 19.4021 163.932 19.201 164.032 18.9775C164.144 18.7429 164.2 18.4916 164.2 18.2234C164.2 17.8548 164.127 17.5531 163.982 17.3185C163.848 17.0727 163.664 16.8772 163.429 16.732C163.194 16.5867 162.926 16.4862 162.625 16.4303C162.323 16.3633 162.016 16.3298 161.703 16.3298C161.334 16.3298 160.993 16.3409 160.681 16.3633C160.379 16.3745 160.15 16.3968 159.994 16.4303V20.4187H160.865Z" fill="white"/>
</svg>
