<svg width="25" height="26" viewBox="0 0 25 26" fill="none" xmlns="http://www.w3.org/2000/svg">
<g id="Union">
<path fill-rule="evenodd" clip-rule="evenodd" d="M3.80435 3.25H0V8.125H25V3.25H22.8261V1.89583C22.8261 0.848794 21.9745 0 20.9239 0C19.8734 0 19.0217 0.848794 19.0217 1.89583V3.25H7.6087V1.89583C7.6087 0.848794 6.75706 0 5.70652 0C4.65598 0 3.80435 0.848794 3.80435 1.89583V3.25ZM6.52174 3.25V1.89583C6.52174 1.4471 6.15675 1.08333 5.70652 1.08333C5.25629 1.08333 4.8913 1.4471 4.8913 1.89583V3.25H6.52174ZM21.7391 1.89583V3.25H20.1087V1.89583C20.1087 1.4471 20.4737 1.08333 20.9239 1.08333C21.3741 1.08333 21.7391 1.4471 21.7391 1.89583Z" fill="#7F203B"/>
<path fill-rule="evenodd" clip-rule="evenodd" d="M25 9.75H0V26H25V9.75ZM7.37813 12.4583H4.34783V15.4785H7.37813V12.4583ZM4.34783 16.2336H7.37813V19.2538H4.34783V16.2336ZM7.37813 20.0088H4.34783V23.029H7.37813V20.0088ZM8.89328 12.4583H11.9236V15.4785H8.89328V12.4583ZM11.9236 16.2336H8.89328V19.2538H11.9236V16.2336ZM8.89328 20.0088H11.9236V23.029H8.89328V20.0088ZM16.469 12.4583H13.4387V15.4785H16.469V12.4583ZM13.4387 16.2336H16.469V19.2538H13.4387V16.2336ZM16.469 20.0088H13.4387V23.029H16.469V20.0088ZM17.9842 12.4583H21.0145V15.4785H17.9842V12.4583ZM21.0145 16.2336H17.9842V19.2538H21.0145V16.2336ZM17.9842 20.0088H21.0145V23.029H17.9842V20.0088Z" fill="#7F203B"/>
</g>
</svg>
