<svg width="25" height="26" fill="none" xmlns="http://www.w3.org/2000/svg"><g fill-rule="evenodd" clip-rule="evenodd" fill="#7F203B"><path d="M3.804 3.25H0v4.875h25V3.25h-2.174V1.896A1.899 1.899 0 0 0 20.924 0a1.9 1.9 0 0 0-1.902 1.896V3.25H7.609V1.896A1.899 1.899 0 0 0 5.707 0C4.656 0 3.804.849 3.804 1.896V3.25zm2.718 0V1.896a.814.814 0 0 0-.815-.813.814.814 0 0 0-.816.813V3.25h1.63zm15.217-1.354V3.25h-1.63V1.896c0-.449.365-.813.815-.813.45 0 .815.364.815.813zM25 9.75H0V26h25V9.75zM7.378 12.458h-3.03v3.02h3.03v-3.02zm-3.03 3.776h3.03v3.02h-3.03v-3.02zm3.03 3.775h-3.03v3.02h3.03v-3.02zm1.515-7.55h3.03v3.02h-3.03v-3.02zm3.03 3.775h-3.03v3.02h3.03v-3.02zm-3.03 3.775h3.03v3.02h-3.03v-3.02zm7.576-7.55h-3.03v3.02h3.03v-3.02zm-3.03 3.775h3.03v3.02h-3.03v-3.02zm3.03 3.775h-3.03v3.02h3.03v-3.02zm1.515-7.55h3.03v3.02h-3.03v-3.02zm3.03 3.775h-3.03v3.02h3.03v-3.02zm-3.03 3.775h3.03v3.02h-3.03v-3.02z"/></g></svg>