<svg width="70" height="70" viewBox="0 0 70 70" fill="none" xmlns="http://www.w3.org/2000/svg">
<path d="M11.361 29.9178C11.5061 28.1769 11.5786 27.3065 12.1527 26.7782C12.7268 26.25 13.6003 26.25 15.3472 26.25H54.6528C56.3997 26.25 57.2732 26.25 57.8473 26.7782C58.4214 27.3065 58.4939 28.1769 58.639 29.9178L61.0695 59.0839C61.154 60.0975 61.1962 60.6042 60.8991 60.9271C60.602 61.25 60.0935 61.25 59.0764 61.25H10.9236C9.90655 61.25 9.39802 61.25 9.10092 60.9271C8.80382 60.6042 8.84605 60.0975 8.93051 59.0839L11.361 29.9178Z" fill="#7F213C" stroke="#7F213C" stroke-width="3"/>
<path d="M20.3335 35C20.3335 36.6568 21.6766 38 23.3335 38C24.9904 38 26.3335 36.6568 26.3335 35L26.3335 23.3333C26.3335 18.5469 30.2137 14.6667 35.0002 14.6667C39.7866 14.6667 43.6668 18.5469 43.6668 23.3333L43.6668 35C43.6668 36.6569 45.01 38 46.6668 38C48.3237 38 49.6668 36.6569 49.6668 35L49.6668 23.3333C49.6668 15.2332 43.1003 8.66667 35.0002 8.66666C26.9 8.66666 20.3335 15.2332 20.3335 23.3333L20.3335 35Z" fill="#7F213C" stroke="white" stroke-width="3" stroke-linecap="round"/>
</svg>
