<svg width="70" height="70" viewBox="0 0 70 70" fill="none" xmlns="http://www.w3.org/2000/svg"><path d="M11.361 29.918c.145-1.741.218-2.611.792-3.14.574-.528 1.447-.528 3.194-.528h39.306c1.747 0 2.62 0 3.194.528.574.529.647 1.399.792 3.14l2.43 29.166c.085 1.013.127 1.52-.17 1.843-.297.323-.806.323-1.823.323H10.924c-1.017 0-1.526 0-1.823-.323-.297-.323-.255-.83-.17-1.843l2.43-29.166z" fill="#fff" stroke="#7F213C" stroke-width="3"/><path d="M23.334 36.5a1.5 1.5 0 0 1-1.5-1.5V23.333c0-7.271 5.894-13.166 13.166-13.166s13.167 5.895 13.167 13.166V35a1.5 1.5 0 1 1-3 0V23.333c0-5.615-4.552-10.166-10.167-10.166s-10.166 4.551-10.166 10.166V35a1.5 1.5 0 0 1-1.5 1.5z" fill="#7F213C"/></svg>