<svg width="40" height="40" viewBox="0 0 40 40" fill="none" xmlns="http://www.w3.org/2000/svg">
<path d="M4.85524 17.0857L3.15096 29.8678C3.07102 30.4673 3.53739 31 4.14218 31H27.8195C28.4375 31 28.9075 30.4451 28.8059 29.8356L26.6761 17.0565C26.5809 16.4851 26.0216 16.1139 25.4581 16.2481L22.1115 17.0449C18.0909 18.0022 13.9041 18.0237 9.87393 17.1077L6.06809 16.2427C5.49458 16.1124 4.93297 16.5027 4.85524 17.0857Z" fill="#F0ACB8"/>
<path fill-rule="evenodd" clip-rule="evenodd" d="M39.7201 21.3061C40.1033 21.7038 40.0916 22.3369 39.6939 22.7201L28.6216 33.3887L22.3061 27.3034C21.9084 26.9202 21.8967 26.2872 22.2799 25.8895C22.6631 25.4918 23.2962 25.48 23.6939 25.8632L28.6216 30.6113L38.3061 21.2799C38.7038 20.8967 39.3369 20.9084 39.7201 21.3061Z" fill="#7F203B"/>
<path fill-rule="evenodd" clip-rule="evenodd" d="M23.5482 11.6667V12.3333H25.5967C26.4167 12.3333 27.1268 12.3332 27.7001 12.4077C28.3163 12.4877 28.9079 12.6675 29.4058 13.1257C29.9038 13.5838 30.1321 14.1585 30.263 14.7659C30.3848 15.3311 30.4437 16.0387 30.5118 16.8559L30.7205 19.3597C30.7643 19.8853 30.3415 20.3338 29.817 20.3894C29.2748 20.4467 28.7725 20.0679 28.7273 19.5246L28.5239 17.0842C28.4491 16.1868 28.3991 15.6104 28.3079 15.1873C28.2228 14.7923 28.1278 14.6675 28.0516 14.5975C27.9755 14.5274 27.8433 14.4431 27.4425 14.391C27.0134 14.3353 26.4347 14.3333 25.5343 14.3333H23.5482V18.3333C23.5482 18.8856 23.1005 19.3333 22.5482 19.3333C21.9959 19.3333 21.5482 18.8856 21.5482 18.3333L21.5482 14.3333H10.2148L10.2148 18.3333C10.2148 18.8856 9.76713 19.3333 9.21484 19.3333C8.66256 19.3333 8.21484 18.8856 8.21484 18.3333L8.21484 14.3333H6.22865C5.32819 14.3333 4.74954 14.3353 4.32036 14.391C3.91962 14.4431 3.78744 14.5274 3.71128 14.5975C3.63511 14.6675 3.54013 14.7923 3.45499 15.1873C3.36381 15.6104 3.31379 16.1868 3.23901 17.0842L2.05851 31.2503C2.01383 31.7864 1.99122 32.0849 2.00259 32.2934L2.00305 32.3013L2.01093 32.3024C2.21772 32.3311 2.51706 32.3333 3.05505 32.3333H20.3496C20.7757 32.3333 21.1399 32.6405 21.2555 33.0507C21.4306 33.6724 20.9907 34.3333 20.3448 34.3333H2.99752C2.53898 34.3334 2.09747 34.3335 1.73653 34.2835C1.33195 34.2275 0.866803 34.09 0.496488 33.6875C0.126173 33.2851 0.0278088 32.8101 0.00556348 32.4023C-0.0142834 32.0384 0.0224672 31.5984 0.0606356 31.1415L1.2511 16.8559C1.31916 16.0387 1.37808 15.3311 1.49988 14.7659C1.6308 14.1585 1.85914 13.5838 2.35706 13.1257C2.85498 12.6675 3.44658 12.4877 4.06282 12.4077C4.63612 12.3332 5.34619 12.3333 6.16622 12.3333L8.21484 12.3333V11.6667C8.21484 7.43248 11.6473 4 15.8815 4C20.1157 4 23.5482 7.43249 23.5482 11.6667ZM21.5482 12.3333L10.2148 12.3333V11.6667C10.2148 8.53705 12.7519 6 15.8815 6C19.0111 6 21.5482 8.53705 21.5482 11.6667V12.3333Z" fill="#7F203B"/>
</svg>
