<svg width="40" height="40" fill="none" xmlns="http://www.w3.org/2000/svg"><path fill-rule="evenodd" clip-rule="evenodd" d="M23.548 11.667v.666h2.049c.82 0 1.53 0 2.103.075.616.08 1.208.26 1.706.718.498.458.726 1.033.857 1.64.122.565.18 1.273.249 2.09l.209 2.504c.043.525-.38.974-.904 1.03-.542.057-1.044-.322-1.09-.865l-.203-2.44c-.075-.898-.125-1.475-.216-1.898-.085-.395-.18-.52-.256-.59-.076-.07-.209-.154-.61-.206-.429-.056-1.007-.058-1.908-.058h-1.986v4a1 1 0 1 1-2 0v-4H10.215v4a1 1 0 1 1-2 0v-4H6.229c-.9 0-1.48.002-1.909.058-.4.052-.533.136-.609.207-.076.07-.17.194-.256.59-.091.422-.141.999-.216 1.896L2.059 31.25c-.045.536-.068.835-.056 1.043v.008l.008.001c.207.03.506.031 1.044.031H20.35c.426 0 .79.308.905.718.176.621-.264 1.282-.91 1.282H2.998c-.459 0-.9 0-1.261-.05-.405-.056-.87-.193-1.24-.596-.37-.402-.47-.877-.491-1.285-.02-.364.016-.804.055-1.26l1.19-14.286c.068-.817.127-1.525.249-2.09.13-.607.36-1.182.857-1.64.498-.458 1.09-.638 1.706-.718.573-.075 1.283-.075 2.103-.075h2.049v-.666a7.667 7.667 0 1 1 15.333 0zm-2 .666H10.215v-.666a5.667 5.667 0 0 1 11.333 0v.666zM32.024 25.333a1 1 0 1 0-2 0v4.143h-4.142a1 1 0 0 0 0 2h4.142v3.857a1 1 0 1 0 2 0v-3.857h3.858a1 1 0 1 0 0-2h-3.858v-4.143z" fill="#B44F6C"/></svg>