<svg width="40" height="40" viewBox="0 0 40 40" fill="none" xmlns="http://www.w3.org/2000/svg">
<path fill-rule="evenodd" clip-rule="evenodd" d="M23.5482 11.6667V12.3333H25.5967C26.4167 12.3333 27.1268 12.3332 27.7001 12.4077C28.3163 12.4877 28.9079 12.6675 29.4058 13.1257C29.9038 13.5838 30.1321 14.1585 30.263 14.7659C30.3848 15.3311 30.4437 16.0387 30.5118 16.8559L30.7205 19.3597C30.7643 19.8853 30.3415 20.3338 29.817 20.3894C29.2748 20.4467 28.7725 20.0679 28.7273 19.5246L28.5239 17.0842C28.4491 16.1868 28.3991 15.6104 28.3079 15.1873C28.2228 14.7923 28.1278 14.6675 28.0516 14.5975C27.9755 14.5274 27.8433 14.4431 27.4425 14.391C27.0134 14.3353 26.4347 14.3333 25.5343 14.3333H23.5482V18.3333C23.5482 18.8856 23.1005 19.3333 22.5482 19.3333C21.9959 19.3333 21.5482 18.8856 21.5482 18.3333L21.5482 14.3333H10.2148L10.2148 18.3333C10.2148 18.8856 9.76713 19.3333 9.21484 19.3333C8.66256 19.3333 8.21484 18.8856 8.21484 18.3333L8.21484 14.3333H6.22865C5.32819 14.3333 4.74954 14.3353 4.32036 14.391C3.91962 14.4431 3.78744 14.5274 3.71128 14.5975C3.63511 14.6675 3.54013 14.7923 3.45499 15.1873C3.36381 15.6104 3.31379 16.1868 3.23901 17.0842L2.05851 31.2503C2.01383 31.7864 1.99122 32.0849 2.00259 32.2934L2.00305 32.3013L2.01093 32.3024C2.21772 32.3311 2.51706 32.3333 3.05505 32.3333H20.3496C20.7757 32.3333 21.1399 32.6405 21.2555 33.0507C21.4306 33.6724 20.9907 34.3333 20.3448 34.3333H2.99752C2.53898 34.3334 2.09747 34.3335 1.73653 34.2835C1.33195 34.2275 0.866803 34.09 0.496488 33.6875C0.126173 33.2851 0.0278088 32.8101 0.00556348 32.4023C-0.0142834 32.0384 0.0224672 31.5984 0.0606356 31.1415L1.2511 16.8559C1.31916 16.0387 1.37808 15.3311 1.49988 14.7659C1.6308 14.1585 1.85914 13.5838 2.35706 13.1257C2.85498 12.6675 3.44658 12.4877 4.06282 12.4077C4.63612 12.3332 5.34619 12.3333 6.16622 12.3333L8.21484 12.3333V11.6667C8.21484 7.43248 11.6473 4 15.8815 4C20.1157 4 23.5482 7.43249 23.5482 11.6667ZM21.5482 12.3333L10.2148 12.3333V11.6667C10.2148 8.53705 12.7519 6 15.8815 6C19.0111 6 21.5482 8.53705 21.5482 11.6667V12.3333Z" fill="#B44F6C"/>
<path fill-rule="evenodd" clip-rule="evenodd" d="M32.0244 25.3333C32.0244 24.781 31.5767 24.3333 31.0244 24.3333C30.4721 24.3333 30.0244 24.781 30.0244 25.3333V29.4762L25.8818 29.4762C25.3296 29.4762 24.8818 29.9239 24.8818 30.4762C24.8818 31.0285 25.3296 31.4762 25.8818 31.4762L30.0244 31.4762V35.3333C30.0244 35.8856 30.4721 36.3333 31.0244 36.3333C31.5767 36.3333 32.0244 35.8856 32.0244 35.3333V31.4762H35.8818C36.4341 31.4762 36.8818 31.0285 36.8818 30.4762C36.8818 29.9239 36.4341 29.4762 35.8818 29.4762H32.0244V25.3333Z" fill="#B44F6C"/>
</svg>
