<svg width="39" height="38" viewBox="0 0 39 38" fill="none" xmlns="http://www.w3.org/2000/svg">
<path d="M2.70518 35.9076C1.85512 35.0454 1.85512 33.6475 2.70518 32.7852L33.4884 1.56111C34.3384 0.698885 35.7167 0.698884 36.5667 1.56111C37.4168 2.42334 37.4168 3.8213 36.5667 4.68353L5.7835 35.9076C4.93344 36.7699 3.55523 36.7699 2.70518 35.9076Z" fill="white"/>
<path d="M2.52822 2.05364C3.37828 1.19141 4.75649 1.19141 5.60654 2.05364L36.3898 33.2778C37.2398 34.14 37.2398 35.5379 36.3898 36.4002C35.5397 37.2624 34.1615 37.2624 33.3115 36.4002L2.52822 5.17605C1.67817 4.31382 1.67817 2.91587 2.52822 2.05364Z" fill="white"/>
</svg>
