<svg xmlns="http://www.w3.org/2000/svg" width="50" height="50" viewBox="0 0 50 50" fill="none">
<path d="M2.31051 47.0965C1.16538 45.9656 1.16538 44.132 2.31051 43.0011L43.7795 2.04736C44.9246 0.916449 46.7813 0.916448 47.9264 2.04736C49.0715 3.17826 49.0715 5.01183 47.9264 6.14273L6.45741 47.0965C5.31227 48.2274 3.45564 48.2274 2.31051 47.0965Z" fill="white"/>
<path d="M2.07352 2.69417C3.21866 1.56327 5.07529 1.56327 6.22042 2.69417L47.6894 43.648C48.8345 44.7789 48.8345 46.6124 47.6894 47.7433C46.5443 48.8742 44.6876 48.8742 43.5425 47.7433L2.07352 6.78955C0.92839 5.65864 0.92839 3.82508 2.07352 2.69417Z" fill="white"/>
</svg>