<svg width="34" height="19" viewBox="0 0 34 19" fill="none" xmlns="http://www.w3.org/2000/svg"><path fill-rule="evenodd" clip-rule="evenodd" d="M2.933 0C1.64 0 .593 1.063.593 2.375v11.498H0v1.81h4.754c-.002-.05-.003-.1-.003-.151 0-2.415 1.928-4.373 4.306-4.373s4.306 1.958 4.306 4.373c0 .05 0 .1-.002.15h10.217v.065h.481a4.507 4.507 0 0 1-.005-.215c0-2.415 1.928-4.373 4.306-4.373s4.306 1.958 4.306 4.373c0 .072-.002.143-.005.215h.4a.571.571 0 0 0 .512-.608v-.997a.43.43 0 0 0 .427-.434v-.824a.43.43 0 0 0-.427-.434v-.998c-.078-.665-.376-2.316-.94-3.6-.705-1.605-1.708-3.796-2.584-4.121h-5.995V2.375C24.054 1.063 23.007 0 21.715 0H2.933zM13.07 6.963 10.038 9.5V7.635H.683V6.247h9.355V4.425l3.032 2.538zm11.191-2.191h1.922v3.687h-1.922V4.772zm2.478 0h3.331s.491.433 1.004 1.67c.513 1.236.705 2.017.705 2.017h-5.04V4.772zm-1.11 5.422c0 .12.095.217.213.217h1.239a.215.215 0 0 0 .213-.217.215.215 0 0 0-.213-.217h-1.24a.215.215 0 0 0-.213.217z" fill="#7F203B"/><path fill-rule="evenodd" clip-rule="evenodd" d="M9.123 19c1.923 0 3.482-1.583 3.482-3.535 0-1.953-1.559-3.536-3.482-3.536-1.922 0-3.48 1.583-3.48 3.536C5.642 17.417 7.2 19 9.122 19zm0-1.475c1.121 0 2.03-.922 2.03-2.06s-.909-2.06-2.03-2.06c-1.12 0-2.028.922-2.028 2.06s.908 2.06 2.028 2.06z" fill="#7F203B"/><path d="M10.17 15.443c0 .599-.478 1.084-1.068 1.084-.59 0-1.068-.485-1.068-1.084 0-.6.478-1.085 1.068-1.085.59 0 1.068.486 1.068 1.085z" fill="#7F203B"/><path fill-rule="evenodd" clip-rule="evenodd" d="M28.298 19c1.922 0 3.48-1.583 3.48-3.535 0-1.953-1.558-3.536-3.48-3.536-1.923 0-3.481 1.583-3.481 3.536 0 1.952 1.558 3.535 3.48 3.535zm0-1.475c1.12 0 2.029-.923 2.029-2.06 0-1.139-.909-2.061-2.03-2.061-1.12 0-2.028.922-2.028 2.06s.908 2.06 2.029 2.06z" fill="#7F203B"/><path d="M29.344 15.443c0 .599-.478 1.084-1.068 1.084-.59 0-1.067-.485-1.067-1.084 0-.6.478-1.085 1.067-1.085.59 0 1.068.486 1.068 1.085z" fill="#7F203B"/></svg>