<svg width="34" height="19" viewBox="0 0 34 19" fill="none" xmlns="http://www.w3.org/2000/svg">
<path fill-rule="evenodd" clip-rule="evenodd" d="M2.9325 0C1.64094 0 0.593922 1.06333 0.593922 2.37502V13.8731H0V15.6826H4.75389C4.75222 15.6325 4.75138 15.5823 4.75138 15.5318C4.75138 13.1166 6.67921 11.1588 9.05731 11.1588C11.4354 11.1588 13.3633 13.1166 13.3633 15.5318C13.3633 15.5823 13.3624 15.6325 13.3607 15.6826H23.578V15.7467H24.059C24.0556 15.6755 24.0539 15.6038 24.0539 15.5318C24.0539 13.1166 25.9817 11.1588 28.3598 11.1588C30.7379 11.1588 32.6657 13.1166 32.6657 15.5318C32.6657 15.6038 32.664 15.6755 32.6606 15.7467H33.0604C33.2312 15.7322 33.5729 15.5905 33.5729 15.1394V14.1417C33.8088 14.1417 34 13.9475 34 13.7079V12.8837C34 12.6442 33.8088 12.45 33.5729 12.4499V11.4521C33.4946 10.787 33.197 9.1357 32.6332 7.85168C31.9284 6.24666 30.9247 4.05602 30.0491 3.73068H24.0539V2.37501C24.0539 1.06333 23.0068 0 21.7153 0H2.9325ZM13.0703 6.96253L10.0376 9.50021V7.63496H0.683461V6.24684H10.0376V4.42486L13.0703 6.96253ZM24.2612 4.77152H26.1833V8.45874H24.2612V4.77152ZM26.7387 4.77155H30.0703C30.0703 4.77155 30.5615 5.20534 31.0741 6.44165C31.5867 7.67795 31.7789 8.45877 31.7789 8.45877H26.7387V4.77155ZM25.6283 10.1941C25.6283 10.3139 25.7239 10.411 25.8418 10.411H27.0805C27.1985 10.411 27.2941 10.3139 27.2941 10.1941C27.2941 10.0743 27.1985 9.97723 27.0805 9.97723L25.8418 9.97723C25.7239 9.97723 25.6283 10.0743 25.6283 10.1941Z" fill="#7F203B"/>
<path fill-rule="evenodd" clip-rule="evenodd" d="M9.12341 19C11.046 19 12.6046 17.4172 12.6046 15.4646C12.6046 13.5121 11.046 11.9292 9.12341 11.9292C7.20082 11.9292 5.64226 13.5121 5.64226 15.4646C5.64226 17.4172 7.20082 19 9.12341 19ZM9.12348 17.5251C10.244 17.5251 11.1524 16.6026 11.1524 15.4646C11.1524 14.3266 10.244 13.4041 9.12348 13.4041C8.00296 13.4041 7.09459 14.3266 7.09459 15.4646C7.09459 16.6026 8.00296 17.5251 9.12348 17.5251Z" fill="#7F203B"/>
<path d="M10.1699 15.4428C10.1699 16.0418 9.69178 16.5273 9.10203 16.5273C8.51228 16.5273 8.0342 16.0418 8.0342 15.4428C8.0342 14.8439 8.51228 14.3584 9.10203 14.3584C9.69178 14.3584 10.1699 14.8439 10.1699 15.4428Z" fill="#7F203B"/>
<path fill-rule="evenodd" clip-rule="evenodd" d="M28.2977 19C30.2203 19 31.7789 17.4172 31.7789 15.4646C31.7789 13.5121 30.2203 11.9292 28.2977 11.9292C26.3751 11.9292 24.8166 13.5121 24.8166 15.4646C24.8166 17.4172 26.3751 19 28.2977 19ZM28.2978 17.5248C29.4183 17.5248 30.3267 16.6023 30.3267 15.4643C30.3267 14.3263 29.4183 13.4038 28.2978 13.4038C27.1772 13.4038 26.2689 14.3263 26.2689 15.4643C26.2689 16.6023 27.1772 17.5248 28.2978 17.5248Z" fill="#7F203B"/>
<path d="M29.3441 15.4428C29.3441 16.0418 28.8661 16.5273 28.2763 16.5273C27.6866 16.5273 27.2085 16.0418 27.2085 15.4428C27.2085 14.8439 27.6866 14.3584 28.2763 14.3584C28.8661 14.3584 29.3441 14.8439 29.3441 15.4428Z" fill="#7F203B"/>
</svg>
