<svg width="27" height="27" fill="none" xmlns="http://www.w3.org/2000/svg"><path d="M0 25.615h27M2.065 12.654h2.522V25.5H2.065zM7.152 9.577h2.522V25.5H7.152zM12.239 16.885h2.522V25.5h-2.522zM17.326 13.808h2.522V25.5h-2.522zM22.413 10.346h2.522V25.5h-2.522z" stroke="#000"/><ellipse cx="3.522" cy="7.154" rx="1.174" ry="1.154" stroke="#000"/><ellipse cx="8.608" cy="2.154" rx="1.174" ry="1.154" stroke="#000"/><path d="M12.913 6.961 9.587 3.115M14.87 7.154l2.739-1.346M19.956 4.654 23.087 3.5" stroke="#000"/><ellipse cx="13.696" cy="7.923" rx="1.174" ry="1.154" stroke="#000"/><ellipse cx="18.783" cy="5.231" rx="1.174" ry="1.154" stroke="#000"/><ellipse cx="23.87" cy="2.923" rx="1.174" ry="1.154" stroke="#000"/><path d="m4.5 6.192 3.13-3.27" stroke="#000"/></svg>