<svg width="27" height="27" viewBox="0 0 27 27" fill="none" xmlns="http://www.w3.org/2000/svg">
<path d="M0 25.6152H27" stroke="black"/>
<rect x="2.06543" y="12.6538" width="2.52174" height="12.8462" stroke="black"/>
<rect x="7.15234" y="9.57715" width="2.52174" height="15.9231" stroke="black"/>
<rect x="12.2393" y="16.8848" width="2.52174" height="8.61538" stroke="black"/>
<rect x="17.3262" y="13.8076" width="2.52174" height="11.6923" stroke="black"/>
<rect x="22.4131" y="10.3462" width="2.52174" height="15.1538" stroke="black"/>
<ellipse cx="3.52157" cy="7.15385" rx="1.17391" ry="1.15385" stroke="black"/>
<ellipse cx="8.60848" cy="2.15385" rx="1.17391" ry="1.15385" stroke="black"/>
<path d="M12.913 6.96139L9.58691 3.11523" stroke="black"/>
<path d="M14.8696 7.15377L17.6088 5.80762" stroke="black"/>
<path d="M19.9565 4.65385L23.087 3.5" stroke="black"/>
<ellipse cx="13.6959" cy="7.92289" rx="1.17391" ry="1.15385" stroke="black"/>
<ellipse cx="18.7828" cy="5.23099" rx="1.17391" ry="1.15385" stroke="black"/>
<ellipse cx="23.8697" cy="2.92289" rx="1.17391" ry="1.15385" stroke="black"/>
<path d="M4.5 6.19208L7.63043 2.92285" stroke="black"/>
</svg>
