<svg width="20" height="29" viewBox="0 0 20 29" fill="none" xmlns="http://www.w3.org/2000/svg">
<path d="M15.0396 1.47944C15.1804 1.24189 15.4871 1.16347 15.7247 1.30427L18.8848 3.17741C19.1223 3.31821 19.2007 3.62493 19.0599 3.86248L7.23785 23.8071L3.34471 26.4636L3.23381 21.3965L15.0396 1.47944Z" stroke="#23A104"/>
<path d="M5.21393 24.4093C5.85966 24.7958 6.18517 24.985 6.18517 24.985L3.86308 26.6884L3.91657 23.6459C3.91657 23.6459 4.56819 24.0228 5.21393 24.4093Z" fill="#23A104"/>
<path d="M14.7026 1.23779L19.5444 4.10772L7.81261 23.8999C8.2316 23.1931 7.82257 21.5178 6.43922 20.6978C5.05586 19.8778 3.59935 19.9697 2.97087 21.03L14.7026 1.23779Z" fill="#23A104"/>
</svg>
