<svg width="42" height="28" viewBox="0 0 42 28" fill="none" xmlns="http://www.w3.org/2000/svg">
<path d="M37.7413 0.994182L36.7825 0L4.60188 27.0058L5.56064 28L37.7413 0.994182Z" fill="#7D7D7D"/>
<path d="M20.9375 4.01183C23.5356 4.01183 26.0232 4.51814 28.3188 5.30327L25.7101 7.49253C24.3501 6.62843 22.707 6.12332 20.9375 6.12332C16.2496 6.12332 12.4493 9.66835 12.4493 14.0414C12.4493 15.3931 12.8124 16.6657 13.4526 17.779L9.54286 21.0599C3.79874 18.1058 0 14.0414 0 14.0414C0 14.0414 9.37404 4.01183 20.9375 4.01183Z" fill="#7D7D7D"/>
<path d="M20.9375 10.3463C21.3466 10.3463 21.7413 10.4041 22.1125 10.5116L17.051 14.7591C17.002 14.527 16.9763 14.287 16.9763 14.0414C16.9763 12.0006 18.7498 10.3463 20.9375 10.3463Z" fill="#7D7D7D"/>
<path d="M13.8189 22.8679L16.3772 20.7209C17.6944 21.505 19.2591 21.9595 20.9375 21.9595C25.6254 21.9595 29.4256 18.4144 29.4256 14.0414C29.4256 12.7742 29.1065 11.5766 28.5393 10.5146L32.5595 7.14088C38.1762 10.084 41.875 14.0414 41.875 14.0414C41.875 14.0414 32.501 24.071 20.9375 24.071C18.4382 24.071 16.0411 23.6024 13.8189 22.8679Z" fill="#7D7D7D"/>
<path d="M20.0456 17.6424L24.8699 13.5939C24.8889 13.7406 24.8986 13.8899 24.8986 14.0414C24.8986 16.0821 23.1252 17.7365 20.9375 17.7365C20.6308 17.7365 20.3322 17.704 20.0456 17.6424Z" fill="#7D7D7D"/>
</svg>
