<svg width="40" height="28" viewBox="0 0 40 28" fill="none" xmlns="http://www.w3.org/2000/svg">
<path d="M20.3998 17.7137C22.4477 17.7137 24.1079 16.0511 24.1079 14C24.1079 11.949 22.4477 10.2864 20.3998 10.2864C18.3519 10.2864 16.6917 11.949 16.6917 14C16.6917 16.0511 18.3519 17.7137 20.3998 17.7137Z" fill="#7D7D7D"/>
<path fill-rule="evenodd" clip-rule="evenodd" d="M39.9998 14C39.9998 14 31.2246 24.08 20.3998 24.08C9.57502 24.08 0.799805 14 0.799805 14C0.799805 14 9.57502 3.92004 20.3998 3.92004C31.2246 3.92004 39.9998 14 39.9998 14ZM28.3457 14C28.3457 18.3951 24.7882 21.9579 20.3998 21.9579C16.0114 21.9579 12.4539 18.3951 12.4539 14C12.4539 9.60502 16.0114 6.04215 20.3998 6.04215C24.7882 6.04215 28.3457 9.60502 28.3457 14Z" fill="#7D7D7D"/>
</svg>