<svg width="42" height="28" fill="none" xmlns="http://www.w3.org/2000/svg"><path d="M37.741.994 36.782 0 4.602 27.006 5.56 28 37.74.994zM20.938 4.012c2.598 0 5.085.506 7.38 1.291l-2.608 2.19a8.882 8.882 0 0 0-4.773-1.37c-4.687 0-8.488 3.545-8.488 7.918 0 1.352.363 2.625 1.004 3.738l-3.91 3.28C3.799 18.107 0 14.042 0 14.042s9.374-10.03 20.938-10.03z"/><path d="M20.938 10.346c.409 0 .803.058 1.175.166l-5.062 4.247a3.471 3.471 0 0 1-.075-.718c0-2.04 1.774-3.695 3.962-3.695zM13.819 22.868l2.558-2.147a8.898 8.898 0 0 0 4.56 1.238c4.688 0 8.489-3.545 8.489-7.918 0-1.267-.32-2.464-.887-3.526l4.02-3.374c5.617 2.943 9.316 6.9 9.316 6.9s-9.374 10.03-20.938 10.03c-2.499 0-4.896-.469-7.118-1.203z"/><path d="m20.046 17.642 4.824-4.048c.019.147.029.296.029.447 0 2.041-1.774 3.695-3.962 3.695-.306 0-.605-.032-.891-.094z"/></svg>