<svg width="70" height="70" viewBox="0 0 70 70" fill="none" xmlns="http://www.w3.org/2000/svg">
<path d="M30.0628 21.0581C31.9355 16.3894 32.8719 14.0551 34.3931 13.7315C34.7931 13.6465 35.2066 13.6465 35.6066 13.7315C37.1278 14.0551 38.0642 16.3894 39.9369 21.0581C41.0019 23.713 41.5344 25.0405 42.5307 25.9434C42.8102 26.1967 43.1136 26.4222 43.4366 26.6169C44.5882 27.311 46.0258 27.4398 48.901 27.6973C53.7682 28.1332 56.2018 28.3511 56.945 29.7387C57.0989 30.0261 57.2036 30.3372 57.2546 30.6592C57.501 32.2139 55.7119 33.8416 52.1338 37.0969L51.1402 38.0009C49.4673 39.5228 48.6309 40.2838 48.1471 41.2335C47.8569 41.8032 47.6623 42.4167 47.5711 43.0495C47.4191 44.1044 47.6641 45.2083 48.1539 47.4162L48.3289 48.2051C49.2074 52.1645 49.6467 54.1443 49.0984 55.1174C48.6058 55.9915 47.6986 56.5511 46.6965 56.5989C45.5808 56.6522 44.0087 55.3712 40.8646 52.8092C38.7932 51.1213 37.7575 50.2773 36.6077 49.9477C35.557 49.6464 34.4427 49.6464 33.392 49.9477C32.2422 50.2773 31.2065 51.1213 29.1351 52.8092C25.991 55.3712 24.4189 56.6522 23.3032 56.5989C22.3011 56.5511 21.3938 55.9915 20.9013 55.1174C20.353 54.1443 20.7922 52.1645 21.6707 48.2051L21.8458 47.4162C22.3356 45.2083 22.5806 44.1044 22.4286 43.0495C22.3374 42.4167 22.1428 41.8032 21.8526 41.2335C21.3688 40.2838 20.5324 39.5228 18.8595 38.0009L17.8659 37.0969C14.2878 33.8416 12.4987 32.2139 12.7451 30.6592C12.7961 30.3372 12.9008 30.0261 13.0547 29.7387C13.7978 28.3511 16.2314 28.1332 21.0987 27.6973C23.9739 27.4398 25.4115 27.311 26.5631 26.6169C26.8861 26.4222 27.1895 26.1967 27.4689 25.9434C28.4653 25.0405 28.9978 23.713 30.0628 21.0581Z" fill="white" stroke="#7F203B" stroke-width="3"/>
</svg>
