<svg width="70" height="70" viewBox="0 0 70 70" fill="none" xmlns="http://www.w3.org/2000/svg"><path d="M30.063 21.058c1.873-4.669 2.809-7.003 4.33-7.326a2.92 2.92 0 0 1 1.214 0c1.52.323 2.457 2.657 4.33 7.326 1.065 2.655 1.597 3.983 2.594 4.885.28.254.583.48.906.674 1.151.694 2.589.823 5.464 1.08 4.867.436 7.3.654 8.044 2.042.154.287.259.598.31.92.246 1.555-1.543 3.183-5.121 6.438L51.14 38c-1.673 1.522-2.51 2.283-2.993 3.233a5.835 5.835 0 0 0-.576 1.816c-.152 1.054.093 2.158.583 4.366l.175.79c.878 3.958 1.318 5.938.77 6.911a2.917 2.917 0 0 1-2.402 1.482c-1.116.053-2.688-1.228-5.832-3.79-2.072-1.688-3.108-2.532-4.257-2.861a5.833 5.833 0 0 0-3.216 0c-1.15.33-2.186 1.173-4.257 2.861-3.144 2.562-4.716 3.843-5.832 3.79a2.917 2.917 0 0 1-2.402-1.482c-.548-.973-.109-2.953.77-6.912l.175-.789c.49-2.208.735-3.312.583-4.366a5.835 5.835 0 0 0-.576-1.816c-.484-.95-1.32-1.711-2.994-3.233l-.993-.904c-3.578-3.255-5.367-4.883-5.12-6.438.05-.322.155-.633.309-.92.743-1.388 3.176-1.606 8.044-2.042 2.875-.257 4.313-.386 5.464-1.08.323-.195.627-.42.906-.674.996-.902 1.529-2.23 2.594-4.885z" fill="#fff" stroke="#7F203B" stroke-width="3"/></svg>