<svg width="225" height="74" viewBox="0 0 225 74" fill="none" xmlns="http://www.w3.org/2000/svg">
<g id="googleplay">
<path id="Rectangle 1946" d="M0.653809 10.966C0.653809 5.10435 5.40562 0.352539 11.2673 0.352539H214.04C219.902 0.352539 224.654 5.10435 224.654 10.966V62.9161C224.654 68.7778 219.902 73.5296 214.04 73.5296H11.2673C5.40561 73.5296 0.653809 68.7778 0.653809 62.9161V10.966Z" fill="black"/>
<g id="Group 40">
<path id="Vector" d="M20.3207 17.709C19.9255 17.8114 19.646 18.1531 19.646 18.7407C19.646 20.4654 19.646 36.7293 19.646 36.7293C19.646 36.7293 19.646 54.3053 19.646 55.0815C19.646 55.5083 19.8345 55.7945 20.1245 55.9008L39.4396 36.6977L20.3207 17.709Z" fill="#4DB6AC"/>
<path id="Vector_2" d="M44.7577 31.4063L36.8072 26.8161C36.8072 26.8161 22.2163 18.3908 21.3588 17.896C20.9874 17.6816 20.6218 17.6251 20.3213 17.7036L39.4411 36.6923L44.7577 31.4063Z" fill="#DCE775"/>
<path id="Vector_3" d="M21.0012 55.7567C21.5104 55.4619 35.6294 47.3104 44.7993 42.0157L39.4386 36.6924L20.1235 55.8955C20.3609 55.9826 20.6652 55.95 21.0012 55.7567Z" fill="#D32F2F"/>
<path id="Vector_4" d="M52.565 35.9151C51.8031 35.5045 44.8125 31.4397 44.8125 31.4397L44.7541 31.4062L39.4365 36.6923L44.7972 42.0156C49.039 39.5664 52.2252 37.7278 52.5104 37.5623C53.4139 37.0416 53.3268 36.3257 52.565 35.9151Z" fill="#FBC02D"/>
</g>
<g id="Group">
<path id="Vector_5" fill-rule="evenodd" clip-rule="evenodd" d="M69.3669 46.9343C69.3669 40.9637 74.3852 36.1025 80.3558 36.1025C83.6566 36.1025 86.0051 37.3987 87.7774 39.0867L85.6908 41.1733C84.4242 39.9842 82.7066 39.0616 80.3535 39.0616C75.9935 39.0616 72.5856 42.572 72.5856 46.932C72.5856 51.292 75.9935 54.8069 80.3512 54.8069C83.1782 54.8069 84.7864 53.6725 85.8183 52.6383C86.6635 51.7932 87.217 50.579 87.4312 48.9138H80.3558V45.9616H90.3151C90.4198 46.4901 90.4745 47.1234 90.4745 47.809C90.4745 50.0255 89.8663 52.775 87.9095 54.7318C86.0051 56.7136 83.5768 57.7706 80.3535 57.7706C74.3807 57.7706 69.3623 52.9139 69.3623 46.9388L69.3669 46.9343ZM98.5249 43.818C94.6683 43.818 91.5201 46.752 91.5201 50.7909C91.5201 54.8092 94.666 57.7637 98.5249 57.7637C102.384 57.7637 105.525 54.8047 105.525 50.7886C105.525 46.7498 102.381 43.8157 98.5249 43.818ZM98.5249 55.0211C96.4132 55.0211 94.5885 53.2784 94.5885 50.7932C94.5885 48.2828 96.4109 46.5652 98.5249 46.5652C100.637 46.5652 102.459 48.2806 102.459 50.7932C102.459 53.2761 100.639 55.0211 98.5249 55.0211ZM113.799 43.818C109.942 43.818 106.798 46.752 106.798 50.7909C106.798 54.8092 109.942 57.7637 113.799 57.7637C117.655 57.7637 120.799 54.8047 120.799 50.7886C120.799 46.7498 117.658 43.8157 113.799 43.818ZM113.799 55.0211C111.687 55.0211 109.862 53.2784 109.862 50.7932C109.862 48.2828 111.685 46.5652 113.799 46.5652C115.91 46.5652 117.735 48.2806 117.735 50.7932C117.735 53.2761 115.91 55.0211 113.799 55.0211ZM132.544 44.2417V45.3762H132.439C131.754 44.5538 130.432 43.8157 128.769 43.8157C125.282 43.8157 122.081 46.8819 122.081 50.8205C122.081 54.7272 125.28 57.7683 128.769 57.7683C130.432 57.7683 131.754 57.0302 132.439 56.1851H132.544V57.1874C132.544 59.8549 131.118 61.2832 128.82 61.2832C126.943 61.2832 125.781 59.9346 125.305 58.8025L122.635 59.9119C123.4 61.7593 125.437 64.0327 128.817 64.0327C132.407 64.0327 135.446 61.9165 135.446 56.766V44.2394L132.544 44.2417ZM129.031 55.0211C126.92 55.0211 125.145 53.2488 125.145 50.8205C125.145 48.3648 126.917 46.5675 129.031 46.5675C131.118 46.5675 132.756 48.3626 132.756 50.8205C132.758 53.2488 131.12 55.0211 129.031 55.0211ZM137.562 36.8429H140.629V57.3446H137.562V36.8429ZM149.032 55.0211C147.474 55.0211 146.362 54.3058 145.654 52.9094L154.98 49.0482L154.659 48.2555C154.08 46.6996 152.308 43.818 148.688 43.818C145.096 43.818 142.109 46.645 142.109 50.7932C142.109 54.6999 145.068 57.766 149.032 57.766C152.23 57.766 154.08 55.8138 154.845 54.6748L152.467 53.0916C151.672 54.2557 150.588 55.0233 149.032 55.0211ZM148.793 46.5129C150.007 46.5129 151.037 47.1211 151.381 47.9913L145.143 50.5813C145.066 47.8865 147.232 46.5129 148.793 46.5129ZM168.433 36.8429H161.103V57.3446H164.162V49.579H168.436C171.828 49.579 175.163 47.1234 175.163 43.2098C175.163 39.3031 171.83 36.8452 168.44 36.8452L168.433 36.8429ZM168.513 46.7247H164.162V39.6949H168.513C170.8 39.6949 172.103 41.5924 172.103 43.2098C172.103 44.7998 170.8 46.7247 168.513 46.7247ZM179.908 57.3446V36.8429H176.848V57.3446H179.908ZM193.651 57.3082V49.4492C193.651 45.809 190.931 43.7793 187.42 43.7793C185.208 43.7793 182.914 44.7565 181.965 46.9183L184.68 48.0505C185.261 46.9183 186.341 46.547 187.477 46.547C189.058 46.547 190.666 47.4969 190.691 49.1872V49.399C190.138 49.0824 188.953 48.6063 187.5 48.6063C184.573 48.6063 181.593 50.2146 181.593 53.2215C181.593 55.9664 183.994 57.7319 186.685 57.7319C188.744 57.7319 189.876 56.8093 190.587 55.7295H190.691V57.3127H193.648L193.651 57.3082ZM187.056 55.0165C186.054 55.0165 184.655 54.5154 184.655 53.2784C184.655 51.6952 186.398 51.0847 187.901 51.0847C189.247 51.0847 189.878 51.374 190.698 51.7704C190.464 53.611 188.908 54.9937 187.056 55.0165ZM204.409 44.2281L200.901 53.1144H200.797L197.156 44.2281H193.86L199.318 56.6521L196.204 63.5612H199.396L207.808 44.2281H204.409Z" fill="white"/>
</g>
<g id="&#208;&#151;&#208;&#176;&#208;&#179;&#209;&#128;&#209;&#131;&#208;&#183;&#208;&#184;&#209;&#130;&#208;&#181; &#208;&#189;&#208;&#176;">
<path d="M71.6911 21.6182V20.4452H71.9593C72.0598 20.4452 72.1827 20.4452 72.3279 20.4452C72.4732 20.4452 72.6184 20.4396 72.7637 20.4284C72.9201 20.4172 73.0653 20.4117 73.1994 20.4117C73.3446 20.4005 73.4619 20.3837 73.5513 20.3614C73.8418 20.3167 74.1155 20.2441 74.3724 20.1435C74.6294 20.0318 74.8528 19.8922 75.0428 19.7246C75.2327 19.557 75.3835 19.3615 75.4952 19.138C75.607 18.9146 75.6628 18.6688 75.6628 18.4007C75.6628 18.032 75.6014 17.7248 75.4785 17.479C75.3556 17.2332 75.1824 17.0377 74.959 16.8925C74.7467 16.736 74.4953 16.6299 74.2049 16.574C73.9256 16.507 73.6239 16.4735 73.2999 16.4735C72.6966 16.4735 72.1827 16.5182 71.7582 16.6076C71.3336 16.6858 70.9929 16.7863 70.7359 16.9092L70.3673 15.8032C70.5907 15.6803 70.9929 15.5574 71.5738 15.4345C72.1548 15.3004 72.8083 15.2334 73.5345 15.2334C73.9814 15.2334 74.4171 15.2837 74.8417 15.3842C75.2774 15.4736 75.6628 15.63 75.998 15.8534C76.3443 16.0657 76.618 16.3618 76.8191 16.7416C77.0314 17.1103 77.1375 17.5684 77.1375 18.1158C77.1375 18.6744 76.9532 19.2107 76.5845 19.7246C76.2158 20.2273 75.6628 20.5904 74.9255 20.8138V20.8809C75.7187 20.9926 76.3443 21.2887 76.8024 21.7691C77.2604 22.2495 77.4894 22.8919 77.4894 23.6962C77.4894 24.333 77.361 24.8861 77.104 25.3553C76.8582 25.8133 76.5286 26.1932 76.1153 26.4948C75.7131 26.7965 75.2439 27.0199 74.7076 27.1652C74.1825 27.2992 73.6463 27.3663 73.0988 27.3663C72.3615 27.3663 71.7526 27.3216 71.2722 27.2322C70.803 27.154 70.4119 27.0534 70.0991 26.9306L70.451 25.6737C70.708 25.7966 71.0655 25.9027 71.5236 25.9921C71.9928 26.0815 72.557 26.1262 73.2161 26.1262C73.5625 26.1262 73.9032 26.0815 74.2384 25.9921C74.5735 25.8916 74.8696 25.7463 75.1266 25.5564C75.3947 25.3553 75.607 25.1095 75.7634 24.819C75.9309 24.5286 76.0147 24.1822 76.0147 23.78C76.0147 23.0762 75.7689 22.5623 75.2774 22.2383C74.7858 21.9031 74.1434 21.7076 73.3502 21.6518C73.2161 21.6406 73.0876 21.635 72.9648 21.635C72.853 21.6238 72.7357 21.6182 72.6128 21.6182H71.6911Z" fill="white"/>
<path d="M85.433 23.9141H81.1095L79.9364 27.1652H78.5622L83.0031 15.2502H83.6399L88.0976 27.1652H86.6396L85.433 23.9141ZM81.5619 22.7075H85.0141L83.707 19.138L83.288 17.3617H83.2713L82.8523 19.1716L81.5619 22.7075Z" fill="white"/>
<path d="M95.9397 16.6746H91.0464V27.1652H89.6554V15.4345H95.9397V16.6746Z" fill="white"/>
<path d="M97.0689 15.5518C97.4935 15.4513 97.9515 15.3842 98.4431 15.3507C98.9347 15.3172 99.4207 15.3004 99.9011 15.3004C100.415 15.3004 100.934 15.3507 101.46 15.4513C101.996 15.5518 102.482 15.7361 102.918 16.0043C103.353 16.2724 103.705 16.6411 103.973 17.1103C104.253 17.5795 104.392 18.1772 104.392 18.9034C104.392 19.6184 104.264 20.2217 104.007 20.7133C103.75 21.2049 103.409 21.6071 102.985 21.9199C102.56 22.2215 102.074 22.4394 101.527 22.5734C100.979 22.7075 100.415 22.7745 99.834 22.7745C99.7782 22.7745 99.6832 22.7745 99.5491 22.7745C99.4262 22.7745 99.2922 22.7745 99.1469 22.7745C99.0129 22.7634 98.8788 22.7522 98.7447 22.741C98.6107 22.7299 98.5157 22.7187 98.4599 22.7075V27.1652H97.0689V15.5518ZM99.9346 16.507C99.6441 16.507 99.3648 16.5126 99.0967 16.5238C98.8285 16.5349 98.6163 16.5629 98.4599 16.6076V21.4674C98.5157 21.4898 98.6051 21.5065 98.728 21.5177C98.8509 21.5177 98.9794 21.5233 99.1134 21.5344C99.2475 21.5344 99.376 21.5344 99.4989 21.5344C99.6218 21.5344 99.7111 21.5344 99.767 21.5344C100.147 21.5344 100.521 21.5009 100.89 21.4339C101.27 21.3557 101.61 21.2216 101.912 21.0317C102.214 20.8418 102.454 20.5736 102.633 20.2273C102.823 19.881 102.918 19.4397 102.918 18.9034C102.918 18.4454 102.828 18.0655 102.649 17.7639C102.482 17.4511 102.253 17.2053 101.962 17.0265C101.683 16.8366 101.365 16.7025 101.007 16.6243C100.65 16.5461 100.292 16.507 99.9346 16.507Z" fill="white"/>
<path d="M109.42 21.6182L109.856 23.1097H109.94L110.275 21.568L112.521 15.4345H113.945L110.979 23.0594C110.677 23.8527 110.409 24.5174 110.174 25.0536C109.951 25.5787 109.722 26.0089 109.487 26.344C109.253 26.668 109.001 26.9026 108.733 27.0479C108.465 27.1819 108.136 27.249 107.744 27.249C107.376 27.249 107.08 27.221 106.856 27.1652C106.644 27.0981 106.443 27.0032 106.253 26.8803L106.672 25.724C106.895 25.8469 107.102 25.9251 107.292 25.9586C107.482 25.9921 107.655 26.0089 107.812 26.0089C108.124 26.0089 108.387 25.8525 108.599 25.5396C108.811 25.2156 108.996 24.7408 109.152 24.1152L104.812 15.4345H106.421L109.42 21.6182Z" fill="white"/>
<path d="M116.287 21.6182V20.4452H116.555C116.655 20.4452 116.778 20.4452 116.923 20.4452C117.069 20.4452 117.214 20.4396 117.359 20.4284C117.516 20.4172 117.661 20.4117 117.795 20.4117C117.94 20.4005 118.057 20.3837 118.147 20.3614C118.437 20.3167 118.711 20.2441 118.968 20.1435C119.225 20.0318 119.448 19.8922 119.638 19.7246C119.828 19.557 119.979 19.3615 120.091 19.138C120.202 18.9146 120.258 18.6688 120.258 18.4007C120.258 18.032 120.197 17.7248 120.074 17.479C119.951 17.2332 119.778 17.0377 119.555 16.8925C119.342 16.736 119.091 16.6299 118.8 16.574C118.521 16.507 118.219 16.4735 117.895 16.4735C117.292 16.4735 116.778 16.5182 116.354 16.6076C115.929 16.6858 115.588 16.7863 115.331 16.9092L114.963 15.8032C115.186 15.6803 115.588 15.5574 116.169 15.4345C116.75 15.3004 117.404 15.2334 118.13 15.2334C118.577 15.2334 119.013 15.2837 119.437 15.3842C119.873 15.4736 120.258 15.63 120.594 15.8534C120.94 16.0657 121.214 16.3618 121.415 16.7416C121.627 17.1103 121.733 17.5684 121.733 18.1158C121.733 18.6744 121.549 19.2107 121.18 19.7246C120.811 20.2273 120.258 20.5904 119.521 20.8138V20.8809C120.314 20.9926 120.94 21.2887 121.398 21.7691C121.856 22.2495 122.085 22.8919 122.085 23.6962C122.085 24.333 121.957 24.8861 121.7 25.3553C121.454 25.8133 121.124 26.1932 120.711 26.4948C120.309 26.7965 119.839 27.0199 119.303 27.1652C118.778 27.2992 118.242 27.3663 117.694 27.3663C116.957 27.3663 116.348 27.3216 115.868 27.2322C115.399 27.154 115.007 27.0534 114.695 26.9306L115.047 25.6737C115.304 25.7966 115.661 25.9027 116.119 25.9921C116.588 26.0815 117.153 26.1262 117.812 26.1262C118.158 26.1262 118.499 26.0815 118.834 25.9921C119.169 25.8916 119.465 25.7463 119.722 25.5564C119.99 25.3553 120.202 25.1095 120.359 24.819C120.526 24.5286 120.61 24.1822 120.61 23.78C120.61 23.0762 120.364 22.5623 119.873 22.2383C119.381 21.9031 118.739 21.7076 117.946 21.6518C117.812 21.6406 117.683 21.635 117.56 21.635C117.449 21.6238 117.331 21.6182 117.208 21.6182H116.287Z" fill="white"/>
<path d="M131.621 19.2218L131.721 17.8812H131.654L130.934 19.2553L125.269 27.1652H124.448V15.4345H125.839V23.4784L125.722 24.8023H125.789L126.526 23.4281L132.19 15.4345H133.012V27.1652H131.621V19.2218Z" fill="white"/>
<path d="M143.429 16.6746H139.776V27.1652H138.385V16.6746H134.732V15.4345H143.429V16.6746Z" fill="white"/>
<path d="M145.15 15.4345H151.535V16.6746H146.541V20.5122H151.116V21.7523H146.541V25.9251H151.619V27.1652H145.15V15.4345Z" fill="white"/>
<path d="M165.624 21.7858H159.994V27.1652H158.603V15.4345H159.994V20.5457H165.624V15.4345H167.015V27.1652H165.624V21.7858Z" fill="white"/>
<path d="M175.442 23.9141H171.119L169.946 27.1652H168.572L173.012 15.2502H173.649L178.107 27.1652H176.649L175.442 23.9141ZM171.571 22.7075H175.023L173.716 19.138L173.297 17.3617H173.281L172.862 19.1716L171.571 22.7075Z" fill="white"/>
</g>
</g>
</svg>
