<svg width="225" height="74" viewBox="0 0 225 74" fill="none" xmlns="http://www.w3.org/2000/svg"><path d="M.654 10.966C.654 5.104 5.406.353 11.267.353H214.04c5.862 0 10.614 4.751 10.614 10.613v51.95c0 5.862-4.752 10.614-10.614 10.614H11.267C5.406 73.53.654 68.778.654 62.916v-51.95z" fill="#000"/><path d="M20.32 17.709c-.395.102-.674.444-.674 1.032v36.34c0 .427.188.713.479.82L39.44 36.698 20.32 17.709z" fill="#4DB6AC"/><path d="m44.758 31.406-7.95-4.59-15.45-8.92c-.37-.214-.736-.27-1.037-.192l19.12 18.988 5.317-5.286z" fill="#DCE775"/><path d="M21.001 55.757 44.8 42.016l-5.36-5.324-19.316 19.203c.238.088.542.055.878-.138z" fill="#D32F2F"/><path d="M52.565 35.915c-.762-.41-7.752-4.475-7.752-4.475l-.059-.034-5.317 5.286 5.36 5.324c4.242-2.45 7.428-4.288 7.713-4.454.904-.52.817-1.236.055-1.647z" fill="#FBC02D"/><g><path fill-rule="evenodd" clip-rule="evenodd" d="M69.367 46.934c0-5.97 5.018-10.831 10.989-10.831 3.3 0 5.65 1.296 7.421 2.984l-2.086 2.086c-1.267-1.189-2.984-2.111-5.338-2.111-4.36 0-7.767 3.51-7.767 7.87s3.407 7.875 7.765 7.875c2.827 0 4.435-1.135 5.467-2.169.846-.845 1.399-2.059 1.613-3.724h-7.075v-2.952h9.96c.104.528.159 1.161.159 1.847 0 2.217-.609 4.966-2.566 6.923-1.904 1.982-4.332 3.039-7.556 3.039-5.972 0-10.99-4.857-10.99-10.832l.004-.005zm29.158-3.116c-3.857 0-7.005 2.934-7.005 6.973 0 4.018 3.146 6.973 7.005 6.973s7-2.96 7-6.975c0-4.04-3.144-6.973-7-6.971zm0 11.203c-2.112 0-3.937-1.743-3.937-4.228 0-2.51 1.823-4.228 3.937-4.228 2.112 0 3.934 1.716 3.934 4.228 0 2.483-1.82 4.228-3.934 4.228zm15.274-11.203c-3.857 0-7.001 2.934-7.001 6.973 0 4.018 3.144 6.973 7.001 6.973 3.856 0 7-2.96 7-6.975 0-4.04-3.141-6.973-7-6.971zm0 11.203c-2.112 0-3.937-1.743-3.937-4.228 0-2.51 1.823-4.228 3.937-4.228 2.111 0 3.936 1.716 3.936 4.228 0 2.483-1.825 4.228-3.936 4.228zm18.745-10.78v1.135h-.105c-.685-.822-2.007-1.56-3.67-1.56-3.487 0-6.688 3.066-6.688 7.005 0 3.906 3.199 6.947 6.688 6.947 1.663 0 2.985-.738 3.67-1.583h.105v1.002c0 2.668-1.426 4.096-3.724 4.096-1.877 0-3.039-1.348-3.515-2.48l-2.67 1.109c.765 1.847 2.802 4.12 6.182 4.12 3.59 0 6.629-2.115 6.629-7.266V44.239l-2.902.003zm-3.513 10.78c-2.111 0-3.886-1.772-3.886-4.2 0-2.456 1.772-4.253 3.886-4.253 2.087 0 3.725 1.795 3.725 4.253.002 2.428-1.636 4.2-3.725 4.2zm8.531-18.178h3.067v20.502h-3.067V36.843zm11.47 18.178c-1.558 0-2.67-.715-3.378-2.112l9.326-3.86-.321-.794c-.579-1.555-2.351-4.437-5.971-4.437-3.592 0-6.579 2.827-6.579 6.975 0 3.907 2.959 6.973 6.923 6.973 3.198 0 5.048-1.952 5.813-3.091l-2.378-1.583c-.795 1.164-1.879 1.931-3.435 1.93zm-.239-8.508c1.214 0 2.244.608 2.588 1.478l-6.238 2.59c-.077-2.695 2.089-4.068 3.65-4.068zm19.64-9.67h-7.33v20.502h3.059v-7.766h4.274c3.392 0 6.727-2.456 6.727-6.37 0-3.906-3.333-6.364-6.723-6.364l-.007-.002zm.08 9.882h-4.351v-7.03h4.351c2.287 0 3.59 1.897 3.59 3.515 0 1.59-1.303 3.515-3.59 3.515zm11.395 10.62V36.843h-3.06v20.502h3.06zm13.743-.037V49.45c0-3.64-2.72-5.67-6.231-5.67-2.212 0-4.506.977-5.455 3.14l2.715 1.132c.581-1.133 1.661-1.504 2.797-1.504 1.581 0 3.189.95 3.214 2.64v.212c-.553-.317-1.738-.793-3.191-.793-2.927 0-5.907 1.609-5.907 4.615 0 2.745 2.401 4.51 5.092 4.51 2.059 0 3.191-.922 3.902-2.002h.104v1.584h2.957l.003-.005zm-6.595-2.291c-1.002 0-2.401-.502-2.401-1.739 0-1.583 1.743-2.193 3.246-2.193 1.346 0 1.977.289 2.797.685a3.716 3.716 0 0 1-3.642 3.246zm17.353-10.789-3.508 8.886h-.104l-3.641-8.886h-3.296l5.458 12.424-3.114 6.91h3.192l8.412-19.334h-3.399z" fill="#fff"/></g><g fill="#fff"><path d="M71.691 21.618v-1.173h.637c.145 0 .29-.005.436-.017.156-.01.301-.016.435-.016.146-.011.263-.028.352-.05a3.85 3.85 0 0 0 .821-.218c.257-.112.48-.252.67-.42.19-.167.341-.363.453-.586.112-.223.168-.47.168-.737 0-.369-.062-.676-.184-.922a1.468 1.468 0 0 0-.52-.587 1.837 1.837 0 0 0-.754-.318c-.28-.067-.581-.1-.905-.1-.603 0-1.117.044-1.542.134-.424.078-.765.178-1.022.301l-.369-1.106c.224-.123.626-.246 1.207-.369a8.743 8.743 0 0 1 1.96-.2c.447 0 .883.05 1.308.15.435.09.82.246 1.156.47.346.212.62.508.821.888.212.368.319.826.319 1.374 0 .558-.185 1.095-.553 1.609-.37.502-.922.865-1.66 1.089v.067c.794.112 1.42.408 1.877.888.458.48.687 1.123.687 1.927 0 .637-.128 1.19-.385 1.66a3.356 3.356 0 0 1-.989 1.139 4.11 4.11 0 0 1-1.407.67 6.48 6.48 0 0 1-1.61.201c-.736 0-1.345-.044-1.826-.134a5.925 5.925 0 0 1-1.173-.301l.352-1.257c.257.123.615.229 1.073.318.469.09 1.033.134 1.692.134a3.95 3.95 0 0 0 1.022-.134c.335-.1.632-.246.889-.436a2.24 2.24 0 0 0 .636-.737c.168-.29.252-.637.252-1.039 0-.704-.246-1.218-.738-1.542-.491-.335-1.134-.53-1.927-.586a4.637 4.637 0 0 0-.385-.017 3.534 3.534 0 0 0-.352-.017h-.922zM85.433 23.914h-4.324l-1.173 3.251h-1.374l4.441-11.915h.637l4.458 11.915H86.64l-1.207-3.25zm-3.871-1.207h3.452l-1.307-3.569-.419-1.776h-.017l-.419 1.81-1.29 3.535zM95.94 16.675h-4.894v10.49h-1.39v-11.73h6.284v1.24zM97.069 15.552c.424-.1.882-.168 1.374-.201.492-.034.978-.05 1.458-.05.514 0 1.033.05 1.559.15a4.25 4.25 0 0 1 1.458.553c.435.268.787.637 1.055 1.106.28.47.419 1.067.419 1.793 0 .715-.128 1.319-.385 1.81a3.475 3.475 0 0 1-1.022 1.207c-.425.301-.911.52-1.458.653a7.095 7.095 0 0 1-1.693.201h-.687l-.402-.033a2.848 2.848 0 0 1-.285-.034v4.458h-1.391V15.552zm2.866.955c-.29 0-.57.006-.838.017-.268.01-.48.039-.637.084v4.86c.056.022.145.038.268.05.123 0 .251.005.385.016h.654c.38 0 .754-.033 1.123-.1.38-.078.72-.212 1.022-.402a2.02 2.02 0 0 0 .721-.805c.19-.346.285-.787.285-1.324 0-.458-.09-.837-.269-1.14a1.894 1.894 0 0 0-.687-.737 2.703 2.703 0 0 0-.955-.402 5.002 5.002 0 0 0-1.072-.117zM109.42 21.618l.436 1.492h.084l.335-1.542 2.246-6.134h1.424l-2.966 7.625c-.302.794-.57 1.458-.805 1.995a7.102 7.102 0 0 1-.687 1.29c-.234.324-.486.559-.754.704-.268.134-.597.201-.989.201a3.8 3.8 0 0 1-.888-.084 2.488 2.488 0 0 1-.603-.285l.419-1.156c.223.123.43.201.62.235.19.033.363.05.52.05.312 0 .575-.157.787-.47.212-.323.397-.798.553-1.424l-4.34-8.68h1.609l2.999 6.183zM116.287 21.618v-1.173h.636c.146 0 .291-.005.436-.017.157-.01.302-.016.436-.016.145-.011.262-.028.352-.05a3.86 3.86 0 0 0 .821-.218c.257-.112.48-.252.67-.42.19-.167.341-.363.453-.586.111-.223.167-.47.167-.737 0-.369-.061-.676-.184-.922a1.47 1.47 0 0 0-.519-.587 1.841 1.841 0 0 0-.755-.318 3.872 3.872 0 0 0-.905-.1c-.603 0-1.117.044-1.541.134-.425.078-.766.178-1.023.301l-.368-1.106c.223-.123.625-.246 1.206-.369a8.747 8.747 0 0 1 1.961-.2c.447 0 .883.05 1.307.15.436.09.821.246 1.157.47.346.212.62.508.821.888.212.368.318.826.318 1.374 0 .558-.184 1.095-.553 1.609-.369.502-.922.865-1.659 1.089v.067c.793.112 1.419.408 1.877.888.458.48.687 1.123.687 1.927 0 .637-.128 1.19-.385 1.66a3.362 3.362 0 0 1-.989 1.139 4.112 4.112 0 0 1-1.408.67 6.478 6.478 0 0 1-1.609.201c-.737 0-1.346-.044-1.826-.134a5.912 5.912 0 0 1-1.173-.301l.352-1.257c.257.123.614.229 1.072.318.469.09 1.034.134 1.693.134.346 0 .687-.045 1.022-.134.335-.1.631-.246.888-.436.268-.2.48-.447.637-.737.167-.29.251-.637.251-1.039 0-.704-.246-1.218-.737-1.542-.492-.335-1.134-.53-1.927-.586a4.645 4.645 0 0 0-.386-.017 3.52 3.52 0 0 0-.352-.017h-.921zM131.621 19.222l.1-1.34h-.067l-.72 1.373-5.665 7.91h-.821v-11.73h1.391v8.043l-.117 1.324h.067l.737-1.374 5.664-7.994h.822v11.731h-1.391v-7.943zM143.429 16.675h-3.653v10.49h-1.391v-10.49h-3.653v-1.24h8.697v1.24zM145.15 15.434h6.385v1.24h-4.994v3.838h4.575v1.24h-4.575v4.173h5.078v1.24h-6.469v-11.73zM165.624 21.786h-5.63v5.38h-1.391V15.433h1.391v5.112h5.63v-5.111h1.391v11.73h-1.391v-5.38zM175.442 23.914h-4.323l-1.173 3.251h-1.374l4.44-11.915h.637l4.458 11.915h-1.458l-1.207-3.25zm-3.871-1.207h3.452l-1.307-3.569-.419-1.776h-.016l-.419 1.81-1.291 3.535z"/></g></svg>