<svg width="50" height="32" viewBox="0 0 50 32" fill="none" xmlns="http://www.w3.org/2000/svg">
<path d="M0 2.27273C0 1.01753 1.01753 0 2.27273 0H47.7273C48.9825 0 50 1.01753 50 2.27273C50 3.52792 48.9825 4.54545 47.7273 4.54545H2.27273C1.01753 4.54545 0 3.52792 0 2.27273Z" fill="white"/>
<path d="M0 15.9094C0 14.6543 1.01753 13.6367 2.27273 13.6367H47.7273C48.9825 13.6367 50 14.6543 50 15.9094C50 17.1646 48.9825 18.1822 47.7273 18.1822H2.27273C1.01753 18.1822 0 17.1646 0 15.9094Z" fill="white"/>
<path d="M0 29.5452C0 28.29 1.01753 27.2725 2.27273 27.2725H47.7273C48.9825 27.2725 50 28.29 50 29.5452C50 30.8004 48.9825 31.8179 47.7273 31.8179H2.27273C1.01753 31.8179 0 30.8004 0 29.5452Z" fill="white"/>
</svg>
