<svg width="70" height="70" viewBox="0 0 70 70" fill="none" xmlns="http://www.w3.org/2000/svg"><path d="M33.092 59.84 16.675 48.112c-.821-.586-1.232-.88-1.453-1.31C15 46.372 15 45.867 15 44.858V25.642c0-.322 0-.592.007-.825l19.41 13.864v22.05c-.357-.2-.773-.497-1.325-.892zM36.417 60.731c.356-.2.773-.497 1.325-.892l16.416-11.726c.821-.586 1.232-.88 1.454-1.31.221-.431.221-.936.221-1.945V25.642c0-.322 0-.592-.007-.825l-19.41 13.864v22.05zM54.96 22.978l-19.543 13.96-19.545-13.96c.212-.169.474-.357.803-.591L33.092 10.66c1.122-.802 1.684-1.203 2.325-1.203.64 0 1.202.4 2.325 1.203l16.416 11.726c.329.235.592.422.803.59z" fill="#fff"/><path d="M35.417 61.5V38.167m0 23.333-19.58-13.985c-.41-.293-.615-.44-.726-.655-.111-.216-.111-.468-.111-.973V23.583M35.417 61.5l19.579-13.985c.41-.293.616-.44.726-.655.111-.216.111-.468.111-.973V23.583M35.417 38.167 15 23.583m20.417 14.584 20.416-14.584m-40.833 0L34.254 9.83c.562-.4.842-.601 1.163-.601.32 0 .6.2 1.162.601l19.254 13.753" stroke="#7F203B" stroke-width="3" stroke-linejoin="round"/></svg>