<svg width="70" height="70" viewBox="0 0 70 70" fill="none" xmlns="http://www.w3.org/2000/svg">
<path d="M33.0917 59.8393L16.675 48.1131C15.8539 47.5266 15.4433 47.2333 15.2217 46.8026C15 46.3719 15 45.8673 15 44.8582V25.6418C15 25.3205 15 25.0503 15.0072 24.8174L34.4167 38.6813V60.7313C34.0599 60.5309 33.6437 60.2336 33.0917 59.8393Z" fill="white"/>
<path d="M36.4167 60.7313C36.7734 60.5309 37.1897 60.2336 37.7416 59.8393L54.1583 48.1131C54.9794 47.5266 55.39 47.2333 55.6117 46.8026C55.8333 46.3719 55.8333 45.8673 55.8333 44.8582V25.6418C55.8333 25.3205 55.8333 25.0503 55.8262 24.8174L36.4167 38.6813V60.7313Z" fill="white"/>
<path d="M54.9609 22.9776L35.4167 36.9378L15.8724 22.9776C16.0837 22.8093 16.3465 22.6215 16.675 22.3869L33.0917 10.6607C34.2144 9.85878 34.7757 9.45782 35.4167 9.45782C36.0576 9.45782 36.6189 9.85878 37.7416 10.6607L54.1583 22.3869C54.4868 22.6215 54.7496 22.8093 54.9609 22.9776Z" fill="white"/>
<path d="M35.4167 61.5V38.1667M35.4167 61.5L15.8375 47.5149C15.427 47.2216 15.2217 47.075 15.1108 46.8596C15 46.6443 15 46.392 15 45.8874V23.5833M35.4167 61.5L54.9958 47.5149C55.4064 47.2216 55.6117 47.075 55.7225 46.8596C55.8333 46.6443 55.8333 46.392 55.8333 45.8874V23.5833M35.4167 38.1667L15 23.5833M35.4167 38.1667L55.8333 23.5833M15 23.5833L34.2542 9.83034C34.8155 9.42938 35.0962 9.2289 35.4167 9.2289C35.7371 9.2289 36.0178 9.42938 36.5791 9.83034L55.8333 23.5833" stroke="#7F203B" stroke-width="3" stroke-linejoin="round"/>
</svg>
