<svg width="70" height="70" viewBox="0 0 70 70" fill="none" xmlns="http://www.w3.org/2000/svg"><path d="M15 34.774c0-3.96 0-5.94.8-7.68.801-1.74 2.304-3.03 5.311-5.607l2.917-2.5C29.462 14.33 32.18 12 35.417 12c3.236 0 5.954 2.33 11.389 6.987l2.916 2.5c3.007 2.578 4.51 3.866 5.31 5.607.801 1.74.801 3.72.801 7.68v12.368c0 5.5 0 8.25-1.708 9.958-1.709 1.709-4.459 1.709-9.958 1.709h-17.5c-5.5 0-8.25 0-9.959-1.709C15 55.392 15 52.642 15 47.142V34.774z" fill="#fff" stroke="#7F203B" stroke-width="3"/><path d="M39.792 41.31h-8.75a2.917 2.917 0 0 0-2.917 2.916v14.583h14.583V44.226a2.917 2.917 0 0 0-2.916-2.917z" fill="#fff" stroke="#7F203B" stroke-width="3" stroke-linecap="round" stroke-linejoin="round"/></svg>