<svg width="70" height="70" viewBox="0 0 70 70" fill="none" xmlns="http://www.w3.org/2000/svg">
<path d="M15 34.7744C15 30.8143 15 28.8342 15.8005 27.0938C16.601 25.3533 18.1044 24.0647 21.1112 21.4874L24.0278 18.9874C29.4625 14.3291 32.1798 12 35.4167 12C38.6535 12 41.3708 14.3291 46.8055 18.9874L49.7222 21.4874C52.7289 24.0647 54.2323 25.3533 55.0328 27.0938C55.8333 28.8342 55.8333 30.8143 55.8333 34.7744V47.1422C55.8333 52.6419 55.8333 55.3918 54.1248 57.1003C52.4163 58.8089 49.6664 58.8089 44.1667 58.8089H26.6667C21.1669 58.8089 18.4171 58.8089 16.7085 57.1003C15 55.3918 15 52.6419 15 47.1422V34.7744Z" fill="#7F203B" stroke="white" stroke-width="3"/>
<path d="M39.7917 41.3091H31.0417C29.4308 41.3091 28.125 42.6149 28.125 44.2257V58.8091H42.7083V44.2257C42.7083 42.6149 41.4025 41.3091 39.7917 41.3091Z" fill="#7F203B" stroke="white" stroke-width="3" stroke-linecap="round" stroke-linejoin="round"/>
</svg>
