<svg width="40" height="40" viewBox="0 0 40 40" fill="none" xmlns="http://www.w3.org/2000/svg">
<path d="M17 4.00144V7.31689C17 7.31689 16.5523 7.3169 16 7.3169H14C13.4477 7.3169 13 7.76461 13 8.3169V11.3169C13 11.8692 13.4477 12.3169 14 12.3169C14.9319 12.3169 17 12.3169 17 12.3169C17 12.3169 17 14.385 17 15.3169V17.0003C17 18.169 17 19.8169 17 19.8169C17 19.8169 15.8999 20.1177 14.5244 21.1737C12.3814 22.8188 11 25.4065 11 28.3169C11 33.2875 15.0294 37.3169 20 37.3169C24.9706 37.3169 29 33.2875 29 28.3169C29 25.2827 27.4986 22.5993 25.1981 20.9689C23.6972 19.9052 22.5 19.8169 22.5 19.8169C22.5 19.8169 22.5 17.8927 22.5 16.6597V5.91053C22.5 5.54459 22.3001 5.20787 21.9789 5.03264L18.4789 3.12354C17.8125 2.76007 17 3.24238 17 4.00144Z" stroke="#7F213C" stroke-width="2"/>
<rect x="19" y="30.8169" width="2" height="2" rx="1" stroke="#7F213C" stroke-width="2"/>
</svg>
