<svg width="31" height="22" fill="none" xmlns="http://www.w3.org/2000/svg"><path d="m9.955 1.382.393.309-.393-.31zm-1.55 1.97v.5h.242l.15-.19-.393-.31zm12.949-1.97.392-.31-.392.31zm1.55 1.97-.393.31.15.19h.243v-.5zM9.562 1.073l-1.55 1.972.785.618 1.551-1.971-.786-.618zM10.741.5a1.5 1.5 0 0 0-1.179.573l.786.618a.5.5 0 0 1 .393-.191v-1zm9.826 0h-9.826v1h9.826v-1zm1.18.573A1.5 1.5 0 0 0 20.566.5v1a.5.5 0 0 1 .393.19l.786-.617zm1.55 1.97-1.55-1.97-.787.618 1.551 1.971.786-.618zm-.393.81H28v-1h-5.096v1zm5.096 0a1.5 1.5 0 0 1 1.5 1.5h1a2.5 2.5 0 0 0-2.5-2.5v1zm1.5 1.5V19h1V5.353h-1zM29.5 19a1.5 1.5 0 0 1-1.5 1.5v1a2.5 2.5 0 0 0 2.5-2.5h-1zM28 20.5H3v1h25v-1zm-25 0A1.5 1.5 0 0 1 1.5 19h-1A2.5 2.5 0 0 0 3 21.5v-1zM1.5 19V5.353h-1V19h1zm0-13.647a1.5 1.5 0 0 1 1.5-1.5v-1a2.5 2.5 0 0 0-2.5 2.5h1zm1.5-1.5h5.404v-1H3v1z" fill="#000"/><path d="M15.808 15.618c2.64 0 4.82-2.046 4.82-4.618 0-2.573-2.18-4.618-4.82-4.618-2.638 0-4.819 2.045-4.819 4.618 0 2.572 2.18 4.618 4.82 4.618z" stroke="#000"/><path d="M15.809 17.97c4.002 0 7.287-3.098 7.287-6.97s-3.285-6.97-7.287-6.97S8.52 7.127 8.52 11s3.286 6.97 7.288 6.97z" stroke="#000"/><ellipse cx="4.702" cy="6.883" rx="1.234" ry="1.176" fill="#000"/></svg>