<svg width="31" height="22" viewBox="0 0 31 22" fill="none" xmlns="http://www.w3.org/2000/svg">
<path d="M9.95504 1.3817L10.348 1.69085V1.69085L9.95504 1.3817ZM8.40425 3.35294V3.85294H8.64708L8.79723 3.66209L8.40425 3.35294ZM21.3535 1.3817L21.7464 1.07255L21.7464 1.07255L21.3535 1.3817ZM22.9043 3.35294L22.5113 3.66209L22.6614 3.85294H22.9043V3.35294ZM9.56207 1.07255L8.01128 3.04379L8.79723 3.66209L10.348 1.69085L9.56207 1.07255ZM10.741 0.5C10.281 0.5 9.84647 0.711038 9.56207 1.07255L10.348 1.69085C10.4428 1.57035 10.5877 1.5 10.741 1.5V0.5ZM20.5675 0.5H10.741V1.5H20.5675V0.5ZM21.7464 1.07255C21.462 0.711039 21.0275 0.5 20.5675 0.5V1.5C20.7209 1.5 20.8657 1.57035 20.9605 1.69085L21.7464 1.07255ZM23.2972 3.04379L21.7464 1.07255L20.9605 1.69085L22.5113 3.66209L23.2972 3.04379ZM22.9043 3.85294H28V2.85294H22.9043V3.85294ZM28 3.85294C28.8284 3.85294 29.5 4.52451 29.5 5.35294H30.5C30.5 3.97223 29.3807 2.85294 28 2.85294V3.85294ZM29.5 5.35294V19H30.5V5.35294H29.5ZM29.5 19C29.5 19.8284 28.8284 20.5 28 20.5V21.5C29.3807 21.5 30.5 20.3807 30.5 19H29.5ZM28 20.5H3V21.5H28V20.5ZM3 20.5C2.17157 20.5 1.5 19.8284 1.5 19H0.5C0.5 20.3807 1.61929 21.5 3 21.5V20.5ZM1.5 19V5.35294H0.5V19H1.5ZM1.5 5.35294C1.5 4.52451 2.17157 3.85294 3 3.85294V2.85294C1.61929 2.85294 0.5 3.97223 0.5 5.35294H1.5ZM3 3.85294H8.40425V2.85294H3V3.85294Z" fill="black"/>
<path d="M15.8084 15.6176C18.4472 15.6176 20.6276 13.5725 20.6276 11C20.6276 8.42747 18.4472 6.38232 15.8084 6.38232C13.1696 6.38232 10.9893 8.42747 10.9893 11C10.9893 13.5725 13.1696 15.6176 15.8084 15.6176Z" stroke="black"/>
<path d="M15.8087 17.9705C19.8106 17.9705 23.096 14.8719 23.096 10.9999C23.096 7.12789 19.8106 4.0293 15.8087 4.0293C11.8069 4.0293 8.52148 7.12789 8.52148 10.9999C8.52148 14.8719 11.8069 17.9705 15.8087 17.9705Z" stroke="black"/>
<ellipse cx="4.7023" cy="6.88252" rx="1.23404" ry="1.17647" fill="black"/>
</svg>
