<svg width="39" height="39" viewBox="0 0 39 39" fill="none" xmlns="http://www.w3.org/2000/svg"><path d="M7.947 0A7.947 7.947 0 0 0 0 7.947v6.116a1.83 1.83 0 0 0 3.661 0v-5.05A5.352 5.352 0 0 1 9.013 3.66h5.05a1.83 1.83 0 1 0 0-3.661H7.947zM24.937 0a1.83 1.83 0 0 0 0 3.661h5.05a5.352 5.352 0 0 1 5.352 5.352v5.05a1.83 1.83 0 0 0 3.661 0V7.947A7.947 7.947 0 0 0 31.053 0h-6.116z" fill="#7F203B"/><path d="M11.967 5.408a6.56 6.56 0 1 0 0 13.118 6.56 6.56 0 0 0 0-13.118zm-2.712 6.56a2.712 2.712 0 1 1 5.424 0 2.712 2.712 0 0 1-5.424 0zM27.419 5.408a6.56 6.56 0 1 0 0 13.118 6.56 6.56 0 0 0 0-13.118zm-2.712 6.56a2.712 2.712 0 1 1 5.424 0 2.712 2.712 0 0 1-5.424 0zM11.967 20.474a6.56 6.56 0 1 0 0 13.118 6.56 6.56 0 0 0 0-13.118zm-2.712 6.559a2.712 2.712 0 1 1 5.424 0 2.712 2.712 0 0 1-5.424 0zM27.419 22.791a4.241 4.241 0 1 0 0 8.483 4.241 4.241 0 0 0 0-8.483z" fill="#7F203B"/><path d="M1.83 23.106A1.83 1.83 0 0 0 0 24.937l.002 6.12A7.946 7.946 0 0 0 7.948 39h6.115a1.83 1.83 0 0 0 0-3.661h-5.05a5.352 5.352 0 0 1-5.352-5.352v-5.05c0-1.012-.82-1.831-1.83-1.831zM37.17 23.106a1.83 1.83 0 0 0-1.831 1.83v5.051a5.352 5.352 0 0 1-5.352 5.352h-5.05a1.83 1.83 0 1 0 0 3.66l6.127-.006A7.943 7.943 0 0 0 39 31.05v-6.113a1.83 1.83 0 0 0-1.83-1.83z" fill="#7F203B"/></svg>