<svg width="39" height="39" viewBox="0 0 39 39" fill="none" xmlns="http://www.w3.org/2000/svg">
<path d="M7.94693 0C3.55797 0 0 3.55796 0 7.94692V14.0633C0 15.0743 0.819584 15.8939 1.83059 15.8939C2.8416 15.8939 3.66119 15.0743 3.66119 14.0633V9.01281C3.66119 6.05719 6.05719 3.66119 9.01281 3.66119L14.0633 3.66119C15.0744 3.66119 15.8939 2.8416 15.8939 1.83059C15.8939 0.819585 15.0744 0 14.0633 0H7.94693Z" fill="#7F203B"/>
<path d="M24.9367 0C23.9257 0 23.1061 0.819583 23.1061 1.83059C23.1061 2.8416 23.9257 3.66119 24.9367 3.66119H29.9872C32.9428 3.66119 35.3388 6.05719 35.3388 9.01281V14.0634C35.3388 15.0744 36.1584 15.894 37.1694 15.894C38.1804 15.894 39 15.0745 39 14.0634V7.94692C39 3.55796 35.442 0 31.0531 0H24.9367Z" fill="#7F203B"/>
<path d="M11.9673 5.40813C8.34475 5.40813 5.40812 8.34475 5.40812 11.9673C5.40812 15.5898 8.34475 18.5264 11.9673 18.5264C15.5898 18.5264 18.5264 15.5898 18.5264 11.9673C18.5264 8.34475 15.5898 5.40813 11.9673 5.40813ZM9.2553 11.9673C9.2553 10.4695 10.4695 9.25531 11.9673 9.25531C13.465 9.25531 14.6792 10.4695 14.6792 11.9673C14.6792 13.465 13.465 14.6792 11.9673 14.6792C10.4695 14.6792 9.2553 13.465 9.2553 11.9673Z" fill="#7F203B"/>
<path d="M27.419 5.40813C23.7965 5.40813 20.8599 8.34475 20.8599 11.9673C20.8599 15.5898 23.7965 18.5264 27.419 18.5264C31.0415 18.5264 33.9782 15.5898 33.9782 11.9673C33.9782 8.34475 31.0415 5.40813 27.419 5.40813ZM24.7071 11.9673C24.7071 10.4695 25.9213 9.25531 27.419 9.25531C28.9168 9.25531 30.131 10.4695 30.131 11.9673C30.131 13.465 28.9168 14.6792 27.419 14.6792C25.9213 14.6792 24.7071 13.465 24.7071 11.9673Z" fill="#7F203B"/>
<path d="M11.9673 20.4736C8.34475 20.4736 5.40812 23.4102 5.40812 27.0327C5.40812 30.6553 8.34475 33.5919 11.9673 33.5919C15.5898 33.5919 18.5264 30.6553 18.5264 27.0327C18.5264 23.4102 15.5898 20.4736 11.9673 20.4736ZM9.2553 27.0327C9.2553 25.535 10.4695 24.3208 11.9673 24.3208C13.465 24.3208 14.6792 25.535 14.6792 27.0327C14.6792 28.5305 13.465 29.7447 11.9673 29.7447C10.4695 29.7447 9.2553 28.5305 9.2553 27.0327Z" fill="#7F203B"/>
<path d="M27.419 22.7914C25.0766 22.7914 23.1777 24.6903 23.1777 27.0327C23.1777 29.3752 25.0766 31.2741 27.419 31.2741C29.7615 31.2741 31.6604 29.3752 31.6604 27.0327C31.6604 24.6903 29.7615 22.7914 27.419 22.7914Z" fill="#7F203B"/>
<path d="M1.83078 23.106C0.819624 23.106 1.88246e-05 23.9258 0.00036464 24.937L0.00245765 31.057C0.00395806 35.4442 3.56093 39 7.94815 39L14.0633 39C15.0743 39 15.8939 38.1804 15.8939 37.1694C15.8939 36.1584 15.0743 35.3388 14.0633 35.3388H9.01281C6.05719 35.3388 3.66118 32.9428 3.66119 29.9872L3.66119 24.9364C3.66119 23.9255 2.84168 23.106 1.83078 23.106Z" fill="#7F203B"/>
<path d="M37.1694 23.1061C36.1584 23.1061 35.3388 23.9257 35.3388 24.9367V29.9872C35.3388 32.9428 32.9428 35.3388 29.9872 35.3388H24.9361C23.9254 35.3388 23.1061 36.1582 23.1061 37.1689C23.1061 38.1803 23.9265 38.9999 24.9379 38.999L31.0644 38.993C35.4483 38.9887 39 35.4336 39 31.0496V24.9367C39 23.9257 38.1804 23.1061 37.1694 23.1061Z" fill="#7F203B"/>
</svg>
