<svg width="7" height="16" viewBox="0 0 7 16" fill="none" xmlns="http://www.w3.org/2000/svg">
<path fill-rule="evenodd" clip-rule="evenodd" d="M0.723331 1.10776C1.28019 0.473117 2.17519 3.74904e-05 3.49998 2.47025e-09C4.79548 -3.66878e-05 5.69292 0.408646 6.26197 1.02352C6.818 1.62433 7 2.35714 7 2.90908V8.72724C7 9.04856 6.73883 9.30905 6.41667 9.30905C6.0945 9.30905 5.83333 9.04856 5.83333 8.72724V2.90908C5.83333 2.58829 5.72366 2.15744 5.40469 1.81278C5.09874 1.48219 4.53785 1.1636 3.50002 1.16363C2.47984 1.16366 1.91651 1.51482 1.60127 1.87409C1.26575 2.25649 1.16667 2.69891 1.16667 2.90908V13.8969C1.25092 14.2032 1.62329 14.8364 2.625 14.8364C3.14082 14.8364 3.47333 14.6303 3.6979 14.3776C3.92168 14.1259 4.04116 13.8212 4.08333 13.6192V3.60495C4.04882 3.53616 3.99037 3.44569 3.90775 3.36746C3.80198 3.26731 3.67256 3.20005 3.5 3.20005C3.32744 3.20005 3.19802 3.26731 3.09225 3.36746C3.00963 3.44569 2.95118 3.53616 2.91667 3.60495V9.89093C2.91667 10.2123 2.6555 10.4728 2.33333 10.4728C2.01117 10.4728 1.75 10.2123 1.75 9.89093V3.39654L1.77993 3.30697C1.85562 3.08051 2.02064 2.77766 2.289 2.52356C2.56726 2.26007 2.97256 2.03642 3.5 2.03642C4.02744 2.03642 4.43274 2.26007 4.711 2.52356C4.97936 2.77766 5.14438 3.08051 5.22006 3.30697L5.25 3.39654V13.7209L5.24206 13.7684C5.17824 14.1503 4.97744 14.6923 4.57085 15.1496C4.1489 15.6243 3.50918 16 2.625 16C0.88171 16 0.149189 14.7653 0.0113279 14.0777L0 14.0213V2.90908C0 2.44046 0.186764 1.71929 0.723331 1.10776Z" fill="#7F203B"/>
</svg>
