<svg width="7" height="16" viewBox="0 0 7 16" fill="none" xmlns="http://www.w3.org/2000/svg"><path fill-rule="evenodd" clip-rule="evenodd" d="M.723 1.108C1.28.473 2.175 0 3.5 0c1.295 0 2.193.409 2.762 1.024.556.6.738 1.333.738 1.885v5.818a.583.583 0 0 1-1.167 0V2.91c0-.32-.11-.752-.428-1.096-.306-.33-.867-.65-1.905-.65-1.02 0-1.583.352-1.899.711-.335.382-.434.825-.434 1.035v10.988c.084.306.456.94 1.458.94.516 0 .848-.207 1.073-.46.224-.251.343-.556.385-.758V3.605a.878.878 0 0 0-.175-.238A.57.57 0 0 0 3.5 3.2a.57.57 0 0 0-.408.167.878.878 0 0 0-.175.238V9.89a.583.583 0 0 1-1.167 0V3.397l.03-.09c.076-.226.24-.53.509-.783A1.737 1.737 0 0 1 3.5 2.036c.527 0 .933.224 1.211.488.268.254.433.557.51.783l.029.09V13.72l-.008.047a2.875 2.875 0 0 1-.671 1.382c-.422.474-1.062.85-1.946.85C.882 16 .149 14.765.011 14.078L0 14.02V2.91c0-.469.187-1.19.723-1.801z" fill="#7F203B"/></svg>