<svg width="39" height="39" viewBox="0 0 39 39" fill="none" xmlns="http://www.w3.org/2000/svg">
<path d="M5.20746 17.8796C5.20746 10.881 10.881 5.20746 17.8796 5.20746C24.8783 5.20746 30.5518 10.881 30.5518 17.8796C30.5518 24.8783 24.8783 30.5518 17.8796 30.5518C10.881 30.5518 5.20746 24.8783 5.20746 17.8796ZM17.8796 0.983398C8.5481 0.983398 0.983398 8.5481 0.983398 17.8796C0.983398 27.2112 8.5481 34.7759 17.8796 34.7759C21.795 34.7759 25.3992 33.4441 28.2642 31.2089C28.4746 31.4675 28.7153 31.7057 28.9296 31.9177C28.9736 31.9612 29.0164 32.0036 29.0577 32.0449L35.3938 38.381C36.2186 39.2058 37.5558 39.2058 38.3806 38.381C39.2054 37.5562 39.2054 36.2189 38.3806 35.3941L32.0445 29.058C32.0033 29.0168 31.9609 28.974 31.9175 28.93C31.7055 28.7158 31.4672 28.475 31.2086 28.2646C33.444 25.3996 34.7759 21.7951 34.7759 17.8796C34.7759 8.5481 27.2112 0.983398 17.8796 0.983398Z" fill="#7F203B"/>
</svg>
