<svg width="39" height="39" viewBox="0 0 39 39" fill="none" xmlns="http://www.w3.org/2000/svg"><path d="M5.207 17.88c0-6.999 5.674-12.673 12.673-12.673 6.998 0 12.672 5.674 12.672 12.673 0 6.998-5.674 12.672-12.672 12.672-6.999 0-12.673-5.674-12.673-12.672zM17.88.983C8.548.983.983 8.548.983 17.88c0 9.331 7.565 16.896 16.897 16.896 3.915 0 7.52-1.332 10.384-3.567.21.259.451.497.666.709l.128.127 6.336 6.336a2.112 2.112 0 1 0 2.987-2.987l-6.337-6.336a26.402 26.402 0 0 1-.126-.128c-.212-.214-.45-.455-.71-.665a16.824 16.824 0 0 0 3.568-10.385C34.776 8.548 27.21.983 17.88.983z" fill="#7F203B"/></svg>