<svg width="23" height="25" viewBox="0 0 23 25" fill="none" xmlns="http://www.w3.org/2000/svg">
<g clip-path="url(#clip0_1624_55160)">
<path d="M11.8287 24.9714C9.65745 24.9714 0.0151367 16.5 0.0151367 3.32952C8.44913 4.99429 10.9687 0.832381 11.8287 0C12.6585 0.832381 17.7581 3.60698 21.1378 3.32952C21.701 11.9308 14 24.9714 11.8287 24.9714Z" fill="#23A104"/>
</g>
<g clip-path="url(#clip1_1624_55160)">
<path d="M11.8286 24.9714C13.8792 24.9714 22.9858 16.5 22.9858 3.32952C15.0204 4.99429 12.6408 0.832381 11.8286 0C11.0448 0.832381 6.22857 3.60698 3.03667 3.32952C2.50476 11.9308 9.77791 24.9714 11.8286 24.9714Z" fill="#23A104"/>
</g>
<path fill-rule="evenodd" clip-rule="evenodd" d="M18.8331 7.55314L10.9169 19.4745L5.36597 14.9233L6.63404 13.3767L10.4744 16.5254L17.1669 6.44678L18.8331 7.55314Z" fill="white"/>
<defs>
<clipPath id="clip0_1624_55160">
<rect width="11.8286" height="24.9714" fill="white"/>
</clipPath>
<clipPath id="clip1_1624_55160">
<rect width="11.1714" height="24.9714" fill="white" transform="matrix(-1 0 0 1 23 0)"/>
</clipPath>
</defs>
</svg>
