<svg width="23" height="25" viewBox="0 0 23 25" fill="none" xmlns="http://www.w3.org/2000/svg"><g clip-path="url(#a)"><path d="M11.829 24.971C9.657 24.971.015 16.5.015 3.33 8.45 4.994 10.97.832 11.83 0c.83.832 5.93 3.607 9.309 3.33.563 8.6-7.138 21.641-9.31 21.641z" fill="#23A104"/></g><g clip-path="url(#b)"><path d="M11.829 24.971c2.05 0 11.157-8.471 11.157-21.641C15.02 4.994 12.64.832 11.829 0c-.784.832-5.6 3.607-8.792 3.33-.532 8.6 6.74 21.641 8.792 21.641z" fill="#23A104"/></g><path fill-rule="evenodd" clip-rule="evenodd" d="m18.833 7.553-7.916 11.921-5.551-4.55 1.268-1.547 3.84 3.148 6.693-10.078 1.666 1.106z" fill="#fff"/><defs><clipPath id="a"><path fill="#fff" d="M0 0h11.829v24.971H0z"/></clipPath><clipPath id="b"><path fill="#fff" transform="matrix(-1 0 0 1 23 0)" d="M0 0h11.171v24.971H0z"/></clipPath></defs></svg>