<svg width="25" height="25" viewBox="0 0 25 25" fill="none" xmlns="http://www.w3.org/2000/svg">
<path d="M10.6872 7.48584C11.3529 5.82617 11.6858 4.99633 12.2266 4.88132C12.3688 4.85108 12.5158 4.85108 12.658 4.88132C13.1988 4.99633 13.5316 5.82617 14.1974 7.48584C14.576 8.42966 14.7652 8.90157 15.1194 9.22254C15.2188 9.31257 15.3266 9.39276 15.4415 9.46197C15.8509 9.70871 16.3619 9.75448 17.384 9.84602C19.1143 10.001 19.9794 10.0785 20.2436 10.5717C20.2983 10.6739 20.3355 10.7845 20.3536 10.899C20.4412 11.4516 19.8052 12.0303 18.5332 13.1875L18.18 13.5089C17.5853 14.0499 17.288 14.3204 17.116 14.658C17.0128 14.8605 16.9437 15.0786 16.9113 15.3036C16.8572 15.6786 16.9443 16.071 17.1184 16.8559L17.1807 17.1363C17.493 18.5439 17.6491 19.2477 17.4542 19.5936C17.2791 19.9043 16.9566 20.1033 16.6003 20.1203C16.2037 20.1392 15.6449 19.6838 14.5272 18.7731C13.7908 18.173 13.4226 17.873 13.0139 17.7558C12.6403 17.6487 12.2442 17.6487 11.8707 17.7558C11.462 17.873 11.0938 18.173 10.3574 18.7731C9.23971 19.6838 8.68086 20.1392 8.28424 20.1203C7.92798 20.1033 7.60548 19.9043 7.43039 19.5936C7.23547 19.2477 7.39161 18.5439 7.70391 17.1363L7.76613 16.8559C7.94027 16.071 8.02734 15.6786 7.97331 15.3036C7.9409 15.0786 7.87172 14.8605 7.76855 14.658C7.59657 14.3204 7.29923 14.0499 6.70455 13.5089L6.35132 13.1875C5.07933 12.0303 4.44333 11.4516 4.53092 10.899C4.54906 10.7845 4.58626 10.6739 4.64098 10.5717C4.90517 10.0785 5.77029 10.001 7.50054 9.84602C8.52265 9.75448 9.03371 9.70871 9.4431 9.46197C9.55792 9.39276 9.66577 9.31257 9.76512 9.22254C10.1193 8.90157 10.3086 8.42966 10.6872 7.48584Z" fill="#FE9901" stroke="#FE9901" stroke-width="2"/>
</svg>