<svg width="17" height="16" viewBox="0 0 17 16" fill="none" xmlns="http://www.w3.org/2000/svg">
<path id="Star 1" d="M6.88599 3.46524C7.56995 1.82175 7.91193 1 8.5 1C9.08807 1 9.43005 1.82175 10.114 3.46524L10.1459 3.54177C10.5323 4.47027 10.7255 4.93451 11.1192 5.21669C11.513 5.49887 12.0299 5.54348 13.0636 5.63272L13.2505 5.64885C14.9424 5.7949 15.7884 5.86793 15.9694 6.38669C16.1504 6.90546 15.5222 7.45637 14.2657 8.5582L13.8463 8.92593C13.2103 9.48369 12.8923 9.76257 12.744 10.1281C12.7164 10.1963 12.6934 10.2661 12.6752 10.3372C12.5778 10.7183 12.6709 11.1228 12.8572 11.932L12.9151 12.1838C13.2574 13.6709 13.4286 14.4144 13.1298 14.7351C13.0181 14.855 12.873 14.9413 12.7117 14.9837C12.2803 15.0971 11.6677 14.616 10.4427 13.6538C9.63821 13.022 9.23599 12.7061 8.77419 12.635C8.59255 12.6071 8.40745 12.6071 8.22581 12.635C7.76401 12.7061 7.36179 13.022 6.55734 13.6538C5.33225 14.616 4.7197 15.0971 4.28825 14.9837C4.12703 14.9413 3.9819 14.855 3.87024 14.7351C3.57141 14.4144 3.74256 13.6709 4.08486 12.1838L4.14283 11.932C4.32909 11.1228 4.42222 10.7183 4.32479 10.3372C4.30661 10.2661 4.28362 10.1963 4.25597 10.1281C4.10775 9.76257 3.78972 9.48369 3.15367 8.92593L2.73432 8.5582C1.47785 7.45637 0.849612 6.90546 1.03062 6.38669C1.21164 5.86793 2.05759 5.7949 3.74948 5.64885L3.93637 5.63272C4.97014 5.54348 5.48703 5.49887 5.88079 5.21669C6.27454 4.93451 6.46774 4.47027 6.85414 3.54177L6.88599 3.46524Z" stroke="#7F213C"/>
</svg>
