<svg width="25" height="25" viewBox="0 0 25 25" fill="none" xmlns="http://www.w3.org/2000/svg"><path d="M10.687 7.486c.666-1.66.999-2.49 1.54-2.605.142-.03.289-.03.431 0 .54.115.874.945 1.54 2.605.378.944.567 1.416.921 1.737.1.09.208.17.322.239.41.247.92.292 1.943.384 1.73.155 2.595.232 2.86.726.054.102.091.213.11.327.087.553-.549 1.131-1.82 2.289l-.354.32c-.595.542-.892.812-1.064 1.15-.103.203-.172.42-.205.646-.054.375.033.767.207 1.552l.063.28c.312 1.408.468 2.112.273 2.458-.175.31-.497.51-.854.526-.396.02-.955-.436-2.073-1.347-.736-.6-1.104-.9-1.513-1.017a2.074 2.074 0 0 0-1.143 0c-.409.117-.777.417-1.514 1.017-1.117.91-1.676 1.366-2.073 1.347a1.037 1.037 0 0 1-.854-.526c-.195-.346-.038-1.05.274-2.458l.062-.28c.174-.785.261-1.177.207-1.552a2.073 2.073 0 0 0-.204-.646c-.172-.338-.47-.608-1.064-1.15l-.354-.32c-1.272-1.158-1.908-1.736-1.82-2.289.018-.114.055-.225.11-.327.264-.493 1.13-.571 2.86-.726 1.022-.092 1.533-.137 1.942-.384.115-.07.223-.15.322-.24.354-.32.544-.792.922-1.736z"/></svg>