<svg width="17" height="16" fill="none" xmlns="http://www.w3.org/2000/svg"><path d="M6.886 3.465C7.57 1.822 7.912 1 8.5 1c.588 0 .93.822 1.614 2.465l.032.077c.386.928.58 1.393.973 1.675.394.282.91.326 1.945.416l.187.016c1.691.146 2.537.219 2.718.738.181.518-.447 1.07-1.703 2.171l-.42.368c-.636.558-.954.837-1.102 1.202-.028.068-.05.138-.069.21-.097.38-.004.785.182 1.594l.058.252c.342 1.487.514 2.23.215 2.551a.875.875 0 0 1-.418.249c-.432.113-1.044-.368-2.27-1.33-.804-.632-1.206-.948-1.668-1.019a1.807 1.807 0 0 0-.548 0c-.462.071-.864.387-1.669 1.019-1.225.962-1.837 1.443-2.269 1.33a.875.875 0 0 1-.418-.249c-.299-.32-.127-1.064.215-2.551l.058-.252c.186-.81.28-1.214.182-1.595a1.633 1.633 0 0 0-.069-.209c-.148-.365-.466-.644-1.102-1.202l-.42-.368C1.478 7.456.85 6.905 1.031 6.387c.18-.52 1.027-.592 2.718-.738l.187-.016c1.034-.09 1.551-.134 1.945-.416.394-.282.587-.747.973-1.675l.032-.077z" stroke="#7F213C"/></svg>