<svg width="16" height="17" viewBox="0 0 16 17" fill="none" xmlns="http://www.w3.org/2000/svg"><path fill-rule="evenodd" clip-rule="evenodd" d="M6.345 7.077c.082-.419.276-.822.584-1.165l3.653-4.072a2.557 2.557 0 0 1 3.562-.222 2.446 2.446 0 0 1 .226 3.497l-3.654 4.072a2.515 2.515 0 0 1-1.081.708 2.45 2.45 0 0 1-.577 1.16L5.422 15.15a2.552 2.552 0 0 1-3.558.238 2.45 2.45 0 0 1-.242-3.499l3.636-4.096c.303-.342.68-.581 1.087-.717zm7.394-2.508L10.085 8.64c-.13.145-.28.262-.444.351a2.46 2.46 0 0 0-.825-1.436 2.536 2.536 0 0 0-1.56-.61c.07-.174.17-.34.304-.488l3.654-4.072a1.705 1.705 0 0 1 2.374-.148 1.63 1.63 0 0 1 .15 2.33zm-5.014 5.456a1.646 1.646 0 0 1-.3.486l-3.637 4.097a1.701 1.701 0 0 1-2.372.158c-.7-.6-.771-1.645-.161-2.332l3.637-4.097c.13-.147.281-.266.445-.356.096.534.37 1.041.817 1.427a2.54 2.54 0 0 0 1.571.617zm.099-.824c-.396 0-.793-.135-1.114-.412a1.636 1.636 0 0 1-.555-1.018c.394 0 .789.134 1.109.408.319.274.507.64.56 1.022z" fill="#780827" stroke="#780827" stroke-width=".5"/></svg>