<svg width="16" height="17" viewBox="0 0 16 17" fill="none" xmlns="http://www.w3.org/2000/svg">
<path fill-rule="evenodd" clip-rule="evenodd" d="M6.34481 7.07674C6.42724 6.65816 6.62092 6.25498 6.92874 5.91193L10.5825 1.8399C11.5038 0.813225 13.0985 0.714014 14.1444 1.61831C15.1903 2.52261 15.2913 4.08797 14.3701 5.11465L10.7163 9.18667C10.4139 9.52372 10.0389 9.76081 9.63452 9.89526C9.55311 10.3112 9.36206 10.7122 9.05836 11.0543L5.42173 15.1511C4.5061 16.1826 2.91316 16.2889 1.8638 15.3885C0.814438 14.488 0.706026 12.9219 1.62165 11.8904L5.25828 7.7936C5.5611 7.45247 5.93799 7.21253 6.34481 7.07674ZM13.7388 4.56886L10.085 8.64088C9.95479 8.78605 9.80435 8.90339 9.64148 8.99245C9.54495 8.45424 9.26766 7.94366 8.81621 7.55628C8.36433 7.16853 7.81164 6.96746 7.25565 6.94657C7.32527 6.77213 7.42654 6.60645 7.56 6.45772L11.2138 2.3857C11.828 1.70124 12.8911 1.6351 13.5884 2.23797C14.2856 2.84083 14.353 3.88441 13.7388 4.56886ZM8.72504 10.0248C8.65635 10.198 8.55652 10.3627 8.42501 10.5109L4.78838 14.6077C4.17796 15.2954 3.116 15.3662 2.41643 14.7659C1.71686 14.1656 1.64458 13.1215 2.255 12.4339L5.89163 8.33706C6.02221 8.18995 6.17345 8.07108 6.33739 7.98096C6.4333 8.51502 6.70768 9.02196 7.15448 9.40827C7.60803 9.80041 8.16477 10.0038 8.72504 10.0248ZM8.824 9.20082C8.42829 9.20131 8.03079 9.06554 7.71049 8.78861C7.3943 8.51523 7.20763 8.15122 7.15532 7.77116C7.54863 7.7704 7.94393 7.90457 8.26358 8.17885C8.58253 8.45253 8.77109 8.81847 8.824 9.20082Z" fill="#780827" stroke="#780827" stroke-width="0.5"/>
</svg>
