<svg width="70" height="70" viewBox="0 0 70 70" fill="none" xmlns="http://www.w3.org/2000/svg"><circle cx="35" cy="35" r="26.25" fill="#fff" stroke="#7F213C" stroke-width="3"/><circle cx="35" cy="29.167" stroke="#7F213C" stroke-width="3" stroke-linecap="round" r="8.75"/><path d="M46.03 46.764c2.955 1.825 5.135 4.337 6.25 7.189a.906.906 0 0 1-.264 1.03C49.178 57.34 42.532 61 35 61c-7.532 0-14.177-3.659-17.016-6.018a.906.906 0 0 1-.265-1.03c1.116-2.85 3.296-5.362 6.252-7.188C27.135 44.809 31.01 43.75 35 43.75c3.988 0 7.865 1.06 11.03 3.014z" stroke="#7F213C" stroke-width="3" stroke-linecap="round"/></svg>