<svg width="40" height="40" fill="none" xmlns="http://www.w3.org/2000/svg"><path fill-rule="evenodd" clip-rule="evenodd" d="M28.41 8.2h-1.262v7.806L22.1 20.208l5.05 4.203v7.805h1.261v1.2H12v-1.2h1.263V25.01l5.049-4.803-5.05-4.803V8.201H12V7h16.41v1.2zm-2.524 1.202H14.525v5.506l4.31 4.1h.74l-1.262-1.261-1.263-1.141h6.311l-1.261 1.2-1.263 1.201h.788l4.261-3.546V9.4zM14.525 31.014h1.262v-6.004l3.787-3.602h-.74l-4.309 4.1v5.506zm11.361 0h-1.263v-6.004l-3.787-3.602h.789l4.261 3.547v6.059z" fill="#7F213C"/></svg>