<svg width="40" height="40" viewBox="0 0 40 40" fill="none" xmlns="http://www.w3.org/2000/svg">
<path id="Union" fill-rule="evenodd" clip-rule="evenodd" d="M28.4103 8.20075H27.1483V16.0056L22.099 20.2083L27.1483 24.4109V32.2158H28.4103V33.4165H12V32.2158H13.2627V25.0113L18.312 20.2083L13.2627 15.4053V8.20075H12V7H28.4103V8.20075ZM25.886 9.4015H14.525V14.9079L18.8349 19.0075H19.5742L18.3128 17.7467L17.0496 16.606H23.3612L22.0998 17.8068L20.8366 19.0075H21.6247L25.886 15.4608V9.4015ZM14.525 31.015L15.7871 31.015V25.0113L19.5741 21.409L18.8349 21.409L14.525 25.5086V31.015ZM25.886 31.015L24.6234 31.015V25.0113L20.8364 21.409L21.6247 21.409L25.886 24.9557V31.015Z" fill="#7F213C"/>
</svg>
