<svg width="21" height="21" viewBox="0 0 21 21" fill="none" xmlns="http://www.w3.org/2000/svg">
<path d="M3.88606 15.408L3.01332 18.0896L5.88343 17.2511L6.59767 17.6342C7.78762 18.2725 9.15071 18.6358 10.6054 18.6358C15.2601 18.6358 19.0334 14.8999 19.0334 10.2914C19.0334 5.68292 15.2601 1.94702 10.6054 1.94702C5.95064 1.94702 2.17726 5.68292 2.17726 10.2914C2.17726 11.8905 2.62964 13.379 3.41362 14.6451L3.88606 15.408ZM0 21L1.73705 15.6627C0.768871 14.0991 0.210702 12.2598 0.210702 10.2914C0.210702 4.60761 4.86454 0 10.6054 0C16.3462 0 21 4.60761 21 10.2914C21 15.9752 16.3462 20.5828 10.6054 20.5828C8.81551 20.5828 7.13132 20.1349 5.66089 19.3462L0 21Z" fill="#079151"/>
<path d="M8.80683 7.69544L7.75448 5.30703C7.08983 5.04042 6.3698 5.41812 6.09286 5.6403C4.85219 6.61788 5.28051 8.56564 5.64976 9.41732C7.03444 12.9722 10.9115 14.5274 11.9639 14.9718C13.0163 15.4161 14.6225 15.305 15.5087 14.4719C16.3949 13.6387 16.0072 12.5834 15.9518 12.5834C15.8964 12.5834 14.0686 11.6946 13.7917 11.5836C13.5701 11.4947 13.367 11.5465 13.2932 11.5836C13.0163 11.9539 12.4292 12.7167 12.2962 12.8055C12.1633 12.8944 11.8347 12.8426 11.687 12.8055C9.8038 12.1945 8.14219 9.86168 8.03141 9.69505C7.94279 9.56174 7.99449 9.30623 8.03141 9.19515C8.17911 8.99148 8.5299 8.52861 8.75144 8.30643C8.97299 8.08426 8.88068 7.80653 8.80683 7.69544Z" fill="#079151"/>
</svg>
