<svg width="21" height="21" viewBox="0 0 21 21" fill="none" xmlns="http://www.w3.org/2000/svg"><path d="m3.886 15.408-.873 2.682 2.87-.839.715.383a8.448 8.448 0 0 0 4.007 1.002c4.655 0 8.428-3.736 8.428-8.345 0-4.608-3.773-8.344-8.428-8.344-4.654 0-8.428 3.736-8.428 8.344 0 1.6.453 3.088 1.237 4.354l.472.763zM0 21l1.737-5.337A10.168 10.168 0 0 1 .211 10.29C.21 4.608 4.865 0 10.605 0 16.346 0 21 4.608 21 10.291c0 5.684-4.654 10.292-10.395 10.292-1.79 0-3.474-.448-4.944-1.237L0 21z" fill="#079151"/><path d="M8.807 7.695 7.754 5.307c-.664-.267-1.384.111-1.661.333-1.24.978-.812 2.926-.443 3.777 1.384 3.555 5.261 5.11 6.314 5.555 1.052.444 2.659.333 3.545-.5.886-.833.498-1.889.443-1.889-.056 0-1.883-.888-2.16-1a.65.65 0 0 0-.499 0c-.277.37-.864 1.134-.997 1.223-.133.088-.461.037-.609 0-1.883-.611-3.545-2.944-3.656-3.11-.088-.134-.037-.39 0-.5.148-.205.499-.667.72-.89.222-.222.13-.5.056-.61z" fill="#079151"/></svg>