<svg width="98" height="69" fill="none" xmlns="http://www.w3.org/2000/svg"><path d="M5.945 3.915C.873 7.78.297 20.858 0 27.992c0 .397.07 3.51.297 13.971.298 13.674.595 23.674 13.971 25.267 12.523 1.49 55.907 1.237 66.882.297 10.403-.892 13.376-3.567 15.456-12.485 1.869-8.006 1.19-21.996.595-37.453C96.687 4.212 89.77 1.834 84.717.943 82.239.447 71.462-.185 46.965.05 16.052.348 12.187-.841 5.946 3.915z" fill="#FD2220"/><path d="M5.945 3.915C.873 7.78.297 20.858 0 27.992c0 .397.07 3.51.297 13.971.298 13.674.595 23.674 13.971 25.267 12.523 1.49 55.907 1.237 66.882.297 10.403-.892 13.376-3.567 15.456-12.485 1.869-8.006 1.19-21.996.595-37.453C96.687 4.212 89.77 1.834 84.717.943 82.239.447 71.462-.185 46.965.05 16.052.348 12.187-.841 5.946 3.915z" fill="url(#a)"/><path d="M65.395 33.887 39.237 20.213v27.644l26.158-13.97z" fill="#fff"/><mask id="b" style="mask-type:alpha" maskUnits="userSpaceOnUse" x="39" y="20" width="27" height="28"><path d="M65.395 33.887 39.237 20.213v27.644l26.158-13.97z" fill="#fff"/></mask><g mask="url(#b)"><path d="m62.72 35.967-19.916-13.97L65.99 34.183l-3.27 1.783z" fill="#ECE0E2"/></g><defs><linearGradient id="a" x1="48.914" y1="0" x2="48.749" y2="68.368" gradientUnits="userSpaceOnUse"><stop stop-color="#FE2821"/><stop offset="1" stop-color="#E41118"/></linearGradient></defs></svg>