<svg width="98" height="69" viewBox="0 0 98 69" fill="none" xmlns="http://www.w3.org/2000/svg">
<path d="M5.9451 3.91509C0.87325 7.77935 0.297251 20.8584 0 27.9924C0 28.3887 0.0699003 31.5024 0.297308 41.9632C0.594559 55.6367 0.89181 65.6371 14.2681 67.2295C26.7909 68.7203 70.1754 68.4674 81.1495 67.5267C91.5533 66.635 94.5258 63.9597 96.6065 55.0422C98.4747 47.0357 97.7955 33.0457 97.201 17.5886C96.6866 4.21236 89.7698 1.83436 84.7165 0.942603C82.2394 0.447185 71.4626 -0.184725 46.9657 0.0508444C16.0516 0.348123 12.1873 -0.840897 5.9451 3.91509Z" fill="#FD2220"/>
<path d="M5.9451 3.91509C0.87325 7.77935 0.297251 20.8584 0 27.9924C0 28.3887 0.0699003 31.5024 0.297308 41.9632C0.594559 55.6367 0.89181 65.6371 14.2681 67.2295C26.7909 68.7203 70.1754 68.4674 81.1495 67.5267C91.5533 66.635 94.5258 63.9597 96.6065 55.0422C98.4747 47.0357 97.7955 33.0457 97.201 17.5886C96.6866 4.21236 89.7698 1.83436 84.7165 0.942603C82.2394 0.447185 71.4626 -0.184725 46.9657 0.0508444C16.0516 0.348123 12.1873 -0.840897 5.9451 3.91509Z" fill="url(#paint0_linear_3605_287759)"/>
<path d="M65.3949 33.8866L39.2368 20.2131V47.8574L65.3949 33.8866Z" fill="white"/>
<mask id="mask0_3605_287759" style="mask-type:alpha" maskUnits="userSpaceOnUse" x="39" y="20" width="27" height="28">
<path d="M65.3949 33.8866L39.2368 20.2131V47.8574L65.3949 33.8866Z" fill="white"/>
</mask>
<g mask="url(#mask0_3605_287759)">
<path d="M62.72 35.9671L42.8042 21.9963L65.9898 34.1836L62.72 35.9671Z" fill="#ECE0E2"/>
</g>
<defs>
<linearGradient id="paint0_linear_3605_287759" x1="48.9138" y1="-1.83058e-06" x2="48.7491" y2="68.3677" gradientUnits="userSpaceOnUse">
<stop stop-color="#FE2821"/>
<stop offset="1" stop-color="#E41118"/>
</linearGradient>
</defs>
</svg>
