<svg width="35" height="37" viewBox="0 0 35 37" fill="none" xmlns="http://www.w3.org/2000/svg">
<path d="M2.73477 17.2218C2.88044 15.4815 2.95328 14.6114 3.5273 14.0834C4.10133 13.5554 4.9745 13.5554 6.72083 13.5554H28.5292C30.2755 13.5554 31.1487 13.5554 31.7227 14.0834C32.2967 14.6114 32.3696 15.4815 32.5152 17.2218L33.8499 33.1664C33.9347 34.1802 33.9772 34.6871 33.6801 35.0102C33.3829 35.3332 32.8742 35.3332 31.8568 35.3332H3.39315C2.37576 35.3332 1.86706 35.3332 1.56995 35.0102C1.27283 34.6871 1.31526 34.1802 1.40013 33.1664L2.73477 17.2218Z" fill="#7F213C" stroke="#7F213C" stroke-width="2"/>
<path d="M10.333 19L10.333 11.7732C10.333 7.74607 13.5976 4.48148 17.6247 4.48148V4.48148C21.6518 4.48148 24.9163 7.74608 24.9163 11.7732L24.9163 19" stroke="white" stroke-width="7" stroke-linecap="round"/>
<path d="M10.333 19L10.333 11.7732C10.333 7.74607 13.5976 4.48148 17.6247 4.48148V4.48148C21.6518 4.48148 24.9163 7.74608 24.9163 11.7732L24.9163 19" stroke="#7F213C" stroke-width="2" stroke-linecap="round"/>
</svg>
