<svg width="40" height="41" viewBox="0 0 40 41" fill="none" xmlns="http://www.w3.org/2000/svg">
<path d="M40 0.414795H0V40.4148H40V0.414795Z" fill="#1877F2"/>
<path d="M30 20.4148C30 14.9148 25.5 10.4148 20 10.4148C14.5 10.4148 10 14.9148 10 20.4148C10 25.4148 13.625 29.5398 18.375 30.2898V23.2898H15.875V20.4148H18.375V18.1648C18.375 15.6648 19.875 14.2898 22.125 14.2898C23.25 14.2898 24.375 14.5398 24.375 14.5398V17.0398H23.125C21.875 17.0398 21.5 17.7898 21.5 18.5398V20.4148H24.25L23.75 23.2898H21.375V30.4148C26.375 29.6648 30 25.4148 30 20.4148Z" fill="white"/>
</svg>
