<svg width="40" height="41" viewBox="0 0 40 41" fill="none" xmlns="http://www.w3.org/2000/svg"><path d="M40 .415H0v40h40v-40z" fill="url(#a)"/><path d="M40 .415H0v40h40v-40z" fill="url(#b)"/><path d="M40 .415H0v40h40v-40z" fill="url(#c)"/><path d="M40 .415H0v40h40v-40z" fill="url(#d)"/><g fill="#fff"><path d="M20 11.915h4.25c1 0 1.5.25 1.875.375.5.25.875.375 1.25.75s.625.75.75 1.25c.125.375.25.875.375 1.875v8.5c0 1-.25 1.5-.375 1.875-.25.5-.375.875-.75 1.25s-.75.625-1.25.75c-.375.125-.875.25-1.875.375h-8.5c-1 0-1.5-.25-1.875-.375-.5-.25-.875-.375-1.25-.75s-.625-.75-.75-1.25c-.125-.375-.25-.875-.375-1.875v-8.5c0-1 .25-1.5.375-1.875.25-.5.375-.875.75-1.25s.75-.625 1.25-.75c.375-.125.875-.25 1.875-.375H20zm0-1.875h-4.25c-1.125 0-1.875.25-2.5.5s-1.25.625-1.875 1.25-.875 1.125-1.25 1.875c-.25.625-.375 1.375-.5 2.5v8.5c0 1.125.25 1.875.5 2.5s.625 1.25 1.25 1.875 1.125.875 1.875 1.25c.625.25 1.375.375 2.5.5h8.5c1.125 0 1.875-.25 2.5-.5a5.458 5.458 0 0 0 1.875-1.25c.625-.625.875-1.125 1.25-1.875.25-.625.375-1.375.5-2.5v-8.5c0-1.125-.25-1.875-.5-2.5a5.458 5.458 0 0 0-1.25-1.875c-.625-.625-1.125-.875-1.875-1.25-.625-.25-1.375-.375-2.5-.5H20z"/><path d="M20 15.04c-3 0-5.375 2.375-5.375 5.375S17 25.79 20 25.79s5.375-2.375 5.375-5.375S23 15.04 20 15.04zm0 8.875c-1.875 0-3.5-1.5-3.5-3.5 0-1.875 1.5-3.5 3.5-3.5 1.875 0 3.5 1.5 3.5 3.5 0 1.875-1.625 3.5-3.5 3.5zM25.5 16.165a1.25 1.25 0 1 0 0-2.5 1.25 1.25 0 0 0 0 2.5z"/></g><defs><radialGradient id="b" cx="0" cy="0" r="1" gradientUnits="userSpaceOnUse" gradientTransform="rotate(143.357 -1.122 21.083) scale(21.0397)"><stop stop-color="#EDC766"/><stop offset=".895" stop-color="#EFC25E" stop-opacity="0"/></radialGradient><radialGradient id="c" cx="0" cy="0" r="1" gradientUnits="userSpaceOnUse" gradientTransform="rotate(71.632 -4.145 24.065) scale(22.5633)"><stop stop-color="#F0345A" stop-opacity=".66"/><stop offset="1" stop-color="#F13855" stop-opacity="0"/></radialGradient><radialGradient id="d" cx="0" cy="0" r="1" gradientUnits="userSpaceOnUse" gradientTransform="rotate(52.386 -16.533 54.955) scale(12.8077)"><stop stop-color="#F04548"/><stop offset="1" stop-color="#F04843" stop-opacity="0"/></radialGradient><linearGradient id="a" x1="19.044" y1="1.246" x2="20" y2="40.415" gradientUnits="userSpaceOnUse"><stop stop-color="#344DEF"/><stop offset=".238" stop-color="#AB39B0"/><stop offset=".431" stop-color="#EE3181"/><stop offset=".652" stop-color="#EF4544"/><stop offset="1" stop-color="#EF732B"/></linearGradient></defs></svg>