<svg width="40" height="41" viewBox="0 0 40 41" fill="none" xmlns="http://www.w3.org/2000/svg">
<g id="instagram">
<g id="bg">
<path d="M40 0.414795H0V40.4148H40V0.414795Z" fill="url(#paint0_linear_3880_12891)"/>
<path d="M40 0.414795H0V40.4148H40V0.414795Z" fill="url(#paint1_radial_3880_12891)"/>
<path d="M40 0.414795H0V40.4148H40V0.414795Z" fill="url(#paint2_radial_3880_12891)"/>
<path d="M40 0.414795H0V40.4148H40V0.414795Z" fill="url(#paint3_radial_3880_12891)"/>
</g>
<g id="instagram_2">
<path d="M20 11.9148C22.75 11.9148 23.125 11.9148 24.25 11.9148C25.25 11.9148 25.75 12.1648 26.125 12.2898C26.625 12.5398 27 12.6648 27.375 13.0398C27.75 13.4148 28 13.7898 28.125 14.2898C28.25 14.6648 28.375 15.1648 28.5 16.1648C28.5 17.2898 28.5 17.5398 28.5 20.4148C28.5 23.2898 28.5 23.5398 28.5 24.6648C28.5 25.6648 28.25 26.1648 28.125 26.5398C27.875 27.0398 27.75 27.4148 27.375 27.7898C27 28.1648 26.625 28.4148 26.125 28.5398C25.75 28.6648 25.25 28.7898 24.25 28.9148C23.125 28.9148 22.875 28.9148 20 28.9148C17.125 28.9148 16.875 28.9148 15.75 28.9148C14.75 28.9148 14.25 28.6648 13.875 28.5398C13.375 28.2898 13 28.1648 12.625 27.7898C12.25 27.4148 12 27.0398 11.875 26.5398C11.75 26.1648 11.625 25.6648 11.5 24.6648C11.5 23.5398 11.5 23.2898 11.5 20.4148C11.5 17.5398 11.5 17.2898 11.5 16.1648C11.5 15.1648 11.75 14.6648 11.875 14.2898C12.125 13.7898 12.25 13.4148 12.625 13.0398C13 12.6648 13.375 12.4148 13.875 12.2898C14.25 12.1648 14.75 12.0398 15.75 11.9148C16.875 11.9148 17.25 11.9148 20 11.9148ZM20 10.0398C17.125 10.0398 16.875 10.0398 15.75 10.0398C14.625 10.0398 13.875 10.2898 13.25 10.5398C12.625 10.7898 12 11.1648 11.375 11.7898C10.75 12.4148 10.5 12.9148 10.125 13.6648C9.875 14.2898 9.75 15.0398 9.625 16.1648C9.625 17.2898 9.625 17.6648 9.625 20.4148C9.625 23.2898 9.625 23.5398 9.625 24.6648C9.625 25.7898 9.875 26.5398 10.125 27.1648C10.375 27.7898 10.75 28.4148 11.375 29.0398C12 29.6648 12.5 29.9148 13.25 30.2898C13.875 30.5398 14.625 30.6648 15.75 30.7898C16.875 30.7898 17.25 30.7898 20 30.7898C22.75 30.7898 23.125 30.7898 24.25 30.7898C25.375 30.7898 26.125 30.5398 26.75 30.2898C27.375 30.0398 28 29.6648 28.625 29.0398C29.25 28.4148 29.5 27.9148 29.875 27.1648C30.125 26.5398 30.25 25.7898 30.375 24.6648C30.375 23.5398 30.375 23.1648 30.375 20.4148C30.375 17.6648 30.375 17.2898 30.375 16.1648C30.375 15.0398 30.125 14.2898 29.875 13.6648C29.625 13.0398 29.25 12.4148 28.625 11.7898C28 11.1648 27.5 10.9148 26.75 10.5398C26.125 10.2898 25.375 10.1648 24.25 10.0398C23.125 10.0398 22.875 10.0398 20 10.0398Z" fill="white"/>
<path d="M20 15.0398C17 15.0398 14.625 17.4148 14.625 20.4148C14.625 23.4148 17 25.7898 20 25.7898C23 25.7898 25.375 23.4148 25.375 20.4148C25.375 17.4148 23 15.0398 20 15.0398ZM20 23.9148C18.125 23.9148 16.5 22.4148 16.5 20.4148C16.5 18.5398 18 16.9148 20 16.9148C21.875 16.9148 23.5 18.4148 23.5 20.4148C23.5 22.2898 21.875 23.9148 20 23.9148Z" fill="white"/>
<path d="M25.5 16.1648C26.1904 16.1648 26.75 15.6052 26.75 14.9148C26.75 14.2244 26.1904 13.6648 25.5 13.6648C24.8097 13.6648 24.25 14.2244 24.25 14.9148C24.25 15.6052 24.8097 16.1648 25.5 16.1648Z" fill="white"/>
</g>
</g>
<defs>
<linearGradient id="paint0_linear_3880_12891" x1="19.0437" y1="1.2464" x2="20" y2="40.4148" gradientUnits="userSpaceOnUse">
<stop stop-color="#344DEF"/>
<stop offset="0.237569" stop-color="#AB39B0"/>
<stop offset="0.430939" stop-color="#EE3181"/>
<stop offset="0.651934" stop-color="#EF4544"/>
<stop offset="1" stop-color="#EF732B"/>
</linearGradient>
<radialGradient id="paint1_radial_3880_12891" cx="0" cy="0" r="1" gradientUnits="userSpaceOnUse" gradientTransform="translate(10.5613 38.6684) rotate(143.357) scale(21.0397)">
<stop stop-color="#EDC766"/>
<stop offset="0.895028" stop-color="#EFC25E" stop-opacity="0"/>
</radialGradient>
<radialGradient id="paint2_radial_3880_12891" cx="0" cy="0" r="1" gradientUnits="userSpaceOnUse" gradientTransform="translate(20 20.4148) rotate(71.6318) scale(22.5633)">
<stop stop-color="#F0345A" stop-opacity="0.66"/>
<stop offset="1" stop-color="#F13855" stop-opacity="0"/>
</radialGradient>
<radialGradient id="paint3_radial_3880_12891" cx="0" cy="0" r="1" gradientUnits="userSpaceOnUse" gradientTransform="translate(37.0894 34.5104) rotate(52.386) scale(12.8077)">
<stop stop-color="#F04548"/>
<stop offset="1" stop-color="#F04843" stop-opacity="0"/>
</radialGradient>
</defs>
</svg>
