<svg width="40" height="41" viewBox="0 0 40 41" fill="none" xmlns="http://www.w3.org/2000/svg">
<path d="M40 0.414795H0V40.4148H40V0.414795Z" fill="#0088CC"/>
<path d="M10.1249 20.0502C15.4936 17.7111 19.0736 16.1691 20.8648 15.424C25.9792 13.2968 27.0419 12.9272 27.7346 12.9149C27.8869 12.9124 28.2276 12.9501 28.4482 13.1292C28.6345 13.2803 28.6858 13.4846 28.7103 13.6279C28.7348 13.7712 28.7654 14.0977 28.7411 14.3529C28.464 17.2649 27.2647 24.3317 26.6546 27.5932C26.3965 28.9733 25.8882 29.436 25.3961 29.4813C24.3266 29.5797 23.5145 28.7745 22.4787 28.0955C20.8578 27.033 19.9421 26.3716 18.3688 25.3348C16.5505 24.1366 17.7292 23.478 18.7654 22.4018C19.0366 22.1201 23.7487 17.8341 23.8399 17.4453C23.8513 17.3967 23.8619 17.2154 23.7542 17.1197C23.6465 17.024 23.4876 17.0567 23.3729 17.0828C23.2104 17.1197 20.621 18.8311 15.6049 22.2172C14.8699 22.7219 14.2042 22.9678 13.6077 22.9549C12.9501 22.9407 11.6853 22.5831 10.745 22.2774C9.59166 21.9025 8.67503 21.7043 8.75485 21.0676C8.79642 20.736 9.2531 20.3968 10.1249 20.0502Z" fill="white"/>
</svg>
