<svg width="40" height="41" viewBox="0 0 40 41" fill="none" xmlns="http://www.w3.org/2000/svg"><path fill="#000" d="M0 .415h40v40H0z"/><path d="M18.123 18.29v-.778a6.157 6.157 0 0 0-.818-.058c-3.339-.005-6.055 2.714-6.055 6.06a6.059 6.059 0 0 0 2.587 4.965 6.037 6.037 0 0 1-1.627-4.129 6.065 6.065 0 0 1 5.913-6.06z" fill="#25F4EE"/><path d="M18.27 27.118a2.769 2.769 0 0 0 2.76-2.665l.005-13.202h2.41a4.72 4.72 0 0 1-.076-.836h-3.29l-.004 13.201a2.769 2.769 0 0 1-2.76 2.665c-.463 0-.899-.115-1.286-.32a2.748 2.748 0 0 0 2.24 1.157zM27.948 15.732v-.734c-.92 0-1.774-.272-2.494-.743a4.573 4.573 0 0 0 2.494 1.477z" fill="#25F4EE"/><path d="M25.454 14.255a4.55 4.55 0 0 1-1.125-3.004h-.88a4.564 4.564 0 0 0 2.005 3.004zM17.31 20.742a2.77 2.77 0 0 0-2.766 2.767c0 1.064.605 1.99 1.485 2.452a2.74 2.74 0 0 1-.524-1.615 2.77 2.77 0 0 1 2.765-2.768c.284 0 .56.05.818.13v-3.364a6.156 6.156 0 0 0-.818-.058c-.049 0-.093.004-.142.004v2.58a2.78 2.78 0 0 0-.818-.128z" fill="#FE2C55"/><path d="M27.948 15.732v2.558a7.83 7.83 0 0 1-4.58-1.473v6.697c0 3.341-2.715 6.064-6.059 6.064-1.289 0-2.49-.409-3.472-1.099a6.048 6.048 0 0 0 4.433 1.936 6.07 6.07 0 0 0 6.06-6.065v-6.696a7.83 7.83 0 0 0 4.578 1.473v-3.293a4.5 4.5 0 0 1-.96-.102z" fill="#FE2C55"/><path d="M23.369 23.514v-6.697a7.83 7.83 0 0 0 4.579 1.473v-2.558a4.573 4.573 0 0 1-2.495-1.477 4.6 4.6 0 0 1-2.009-3.004h-2.41l-.004 13.202a2.769 2.769 0 0 1-2.76 2.665 2.777 2.777 0 0 1-2.246-1.153 2.778 2.778 0 0 1-1.485-2.451 2.77 2.77 0 0 1 2.766-2.768c.284 0 .56.05.818.13v-2.581c-3.272.07-5.913 2.758-5.913 6.055 0 1.593.618 3.044 1.627 4.13a6.033 6.033 0 0 0 3.472 1.098c3.339 0 6.06-2.723 6.06-6.064z" fill="#fff"/></svg>