<svg width="40" height="41" viewBox="0 0 40 41" fill="none" xmlns="http://www.w3.org/2000/svg">
<rect y="0.414795" width="40" height="40" fill="black"/>
<path d="M18.123 18.2901V17.5115C17.8562 17.4759 17.585 17.4536 17.305 17.4536C13.9663 17.4492 11.25 20.1678 11.25 23.5137C11.25 25.5649 12.2725 27.3802 13.8374 28.4792C12.8282 27.3981 12.2103 25.9431 12.2103 24.3502C12.2103 21.0532 14.851 18.3658 18.123 18.2901Z" fill="#25F4EE"/>
<path d="M18.2699 27.1178C19.7592 27.1178 20.9773 25.9298 21.0307 24.4526L21.0351 11.2513H23.4446C23.3957 10.9799 23.3691 10.6996 23.3691 10.4148H20.0793L20.0748 23.6161C20.0215 25.0933 18.8033 26.2813 17.3141 26.2813C16.8517 26.2813 16.4161 26.1656 16.0293 25.9609C16.5272 26.6595 17.3452 27.1178 18.2699 27.1178Z" fill="#25F4EE"/>
<path d="M27.9481 15.7318V14.9977C27.0279 14.9977 26.1743 14.7263 25.4541 14.2546C26.0943 14.9888 26.9612 15.5228 27.9481 15.7318Z" fill="#25F4EE"/>
<path d="M25.4537 14.2545C24.7512 13.4492 24.3289 12.3992 24.3289 11.2512H23.4487C23.6754 12.5059 24.4223 13.5827 25.4537 14.2545Z" fill="#FE2C55"/>
<path d="M17.3096 20.7417C15.7848 20.7417 14.5444 21.9831 14.5444 23.5092C14.5444 24.5727 15.149 25.4981 16.0293 25.9609C15.7003 25.507 15.5047 24.9509 15.5047 24.3457C15.5047 22.8196 16.745 21.5782 18.2699 21.5782C18.5544 21.5782 18.83 21.6271 19.0879 21.7072V18.3435C18.8211 18.3079 18.55 18.2856 18.2699 18.2856C18.221 18.2856 18.1765 18.2901 18.1276 18.2901V20.8708C17.8653 20.7906 17.5941 20.7417 17.3096 20.7417Z" fill="#FE2C55"/>
<path d="M27.9479 15.7318V18.2902C26.2407 18.2902 24.6581 17.743 23.3688 16.8175V23.5138C23.3688 26.8553 20.6526 29.5783 17.3094 29.5783C16.0202 29.5783 14.8199 29.169 13.8374 28.4793C14.9444 29.6673 16.5226 30.4148 18.2697 30.4148C21.6084 30.4148 24.3291 27.6962 24.3291 24.3503V17.6539C25.6183 18.5794 27.201 19.1267 28.9081 19.1267V15.8342C28.5747 15.8342 28.2546 15.7986 27.9479 15.7318Z" fill="#FE2C55"/>
<path d="M23.3685 23.5137V16.8174C24.6578 17.7429 26.2404 18.2901 27.9475 18.2901V15.7317C26.9606 15.5227 26.0937 14.9887 25.4535 14.2545C24.4221 13.5827 23.6797 12.5059 23.4441 11.2512H21.0345L21.0301 24.4525C20.9768 25.9297 19.7586 27.1177 18.2694 27.1177C17.3447 27.1177 16.5311 26.6594 16.0243 25.9653C15.1441 25.4981 14.5395 24.5772 14.5395 23.5137C14.5395 21.9876 15.7798 20.7462 17.3047 20.7462C17.5892 20.7462 17.8648 20.7951 18.1227 20.8752V18.2946C14.8507 18.3658 12.21 21.0532 12.21 24.3502C12.21 25.9431 12.8279 27.3936 13.8371 28.4793C14.8195 29.1689 16.0199 29.5783 17.3091 29.5783C20.6478 29.5783 23.3685 26.8552 23.3685 23.5137Z" fill="white"/>
</svg>
