<svg width="40" height="41" viewBox="0 0 40 41" fill="none" xmlns="http://www.w3.org/2000/svg"><path fill="#fff" d="M0 .415h40v40H0z"/><path d="M10 20.015c0-4.527 0-6.787 1.4-8.2 1.42-1.4 3.68-1.4 8.2-1.4h.8c4.527 0 6.787 0 8.2 1.4 1.4 1.42 1.4 3.68 1.4 8.2v.8c0 4.526 0 6.787-1.4 8.2-1.42 1.4-3.68 1.4-8.2 1.4h-.8c-4.527 0-6.787 0-8.2-1.4-1.4-1.42-1.4-3.68-1.4-8.2v-.8z" fill="#07F"/><path d="M20.64 24.821c-4.56 0-7.16-3.12-7.267-8.32h2.294c.073 3.814 1.753 5.427 3.086 5.76v-5.76h2.154v3.287c1.313-.14 2.7-1.64 3.166-3.293h2.147a6.354 6.354 0 0 1-2.92 4.153 6.58 6.58 0 0 1 3.42 4.173h-2.366c-.507-1.58-1.774-2.806-3.447-2.973v2.973h-.267z" fill="#fff"/></svg>