<svg width="40" height="41" viewBox="0 0 40 41" fill="none" xmlns="http://www.w3.org/2000/svg">
<rect y="0.414795" width="40" height="40" fill="white"/>
<path d="M10 20.0148C10 15.4881 10 13.2281 11.4 11.8148C12.82 10.4148 15.08 10.4148 19.6 10.4148H20.4C24.9267 10.4148 27.1867 10.4148 28.6 11.8148C30 13.2348 30 15.4948 30 20.0148V20.8148C30 25.3415 30 27.6015 28.6 29.0148C27.18 30.4148 24.92 30.4148 20.4 30.4148H19.6C15.0733 30.4148 12.8133 30.4148 11.4 29.0148C10 27.5948 10 25.3348 10 20.8148V20.0148Z" fill="#0077FF"/>
<path d="M20.6402 24.8214C16.0802 24.8214 13.4802 21.7014 13.3735 16.5014H15.6669C15.7402 20.3147 17.4202 21.9281 18.7535 22.2614V16.5014H20.9069V19.7881C22.2202 19.6481 23.6069 18.1481 24.0735 16.4948H26.2202C26.0452 17.3506 25.6955 18.1611 25.1931 18.8758C24.6907 19.5904 24.0463 20.1937 23.3002 20.6481C24.1328 21.0625 24.8681 21.6487 25.4576 22.3681C26.0471 23.0874 26.4775 23.9236 26.7202 24.8214H24.3535C23.8469 23.2414 22.5802 22.0147 20.9069 21.8481V24.8214H20.6469H20.6402Z" fill="white"/>
</svg>
