<svg width="40" height="41" viewBox="0 0 40 41" fill="none" xmlns="http://www.w3.org/2000/svg">
<path d="M40 0.414795H0V40.4148H40V0.414795Z" fill="#25D366"/>
<path d="M27 13.2898C25.125 11.4148 22.625 10.4148 20 10.4148C14.5 10.4148 10 14.9148 10 20.4148C10 22.1648 10.5 23.9148 11.375 25.4148L10 30.4148L15.25 29.0398C16.75 29.7898 18.375 30.2898 20 30.2898C25.5 30.2898 30 25.7898 30 20.2898C30 17.6648 28.875 15.1648 27 13.2898ZM20 28.6648C18.5 28.6648 17 28.2898 15.75 27.5398L15.5 27.4148L12.375 28.2898L13.25 25.2898L13 24.9148C12.125 23.5398 11.75 22.0398 11.75 20.5398C11.75 16.0398 15.5 12.2898 20 12.2898C22.25 12.2898 24.25 13.1648 25.875 14.6648C27.5 16.2898 28.25 18.2898 28.25 20.5398C28.25 24.9148 24.625 28.6648 20 28.6648ZM24.5 22.4148C24.25 22.2898 23 21.6648 22.75 21.6648C22.5 21.5398 22.375 21.5398 22.25 21.7898C22.125 22.0398 21.625 22.5398 21.5 22.7898C21.375 22.9148 21.25 22.9148 21 22.9148C20.75 22.7898 20 22.5398 19 21.6648C18.25 21.0398 17.75 20.1648 17.625 19.9148C17.5 19.6648 17.625 19.5398 17.75 19.4148C17.875 19.2898 18 19.1648 18.125 19.0398C18.25 18.9148 18.25 18.7898 18.375 18.6648C18.5 18.5398 18.375 18.4148 18.375 18.2898C18.375 18.1648 17.875 16.9148 17.625 16.4148C17.5 16.0398 17.25 16.0398 17.125 16.0398C17 16.0398 16.875 16.0398 16.625 16.0398C16.5 16.0398 16.25 16.0398 16 16.2898C15.75 16.5398 15.125 17.1648 15.125 18.4148C15.125 19.6648 16 20.7898 16.125 21.0398C16.25 21.1648 17.875 23.7898 20.375 24.7898C22.5 25.6648 22.875 25.4148 23.375 25.4148C23.875 25.4148 24.875 24.7898 25 24.2898C25.25 23.6648 25.25 23.1648 25.125 23.1648C25 22.5398 24.75 22.5398 24.5 22.4148Z" fill="white"/>
</svg>
