<svg width="40" height="41" viewBox="0 0 40 41" fill="none" xmlns="http://www.w3.org/2000/svg"><path d="M40 .415H0v40h40v-40z" fill="red"/><path d="M29.5 15.54a2.476 2.476 0 0 0-1.75-1.75c-1.5-.375-7.875-.375-7.875-.375s-6.25 0-7.875.375c-.875.25-1.5.875-1.75 1.75-.25 1.625-.25 4.875-.25 4.875s0 3.25.375 4.875c.25.875.875 1.5 1.75 1.75 1.5.375 7.875.375 7.875.375s6.25 0 7.875-.375c.875-.25 1.5-.875 1.75-1.75.375-1.625.375-4.875.375-4.875s0-3.25-.5-4.875zM18 23.415v-6l5.25 3-5.25 3z" fill="#fff"/></svg>