<svg width="40" height="41" viewBox="0 0 40 41" fill="none" xmlns="http://www.w3.org/2000/svg">
<path d="M40 0.414795H0V40.4148H40V0.414795Z" fill="#FF0000"/>
<path d="M29.5 15.5398C29.25 14.6648 28.625 14.0398 27.75 13.7898C26.25 13.4148 19.875 13.4148 19.875 13.4148C19.875 13.4148 13.625 13.4148 12 13.7898C11.125 14.0398 10.5 14.6648 10.25 15.5398C10 17.1648 10 20.4148 10 20.4148C10 20.4148 10 23.6648 10.375 25.2898C10.625 26.1648 11.25 26.7898 12.125 27.0398C13.625 27.4148 20 27.4148 20 27.4148C20 27.4148 26.25 27.4148 27.875 27.0398C28.75 26.7898 29.375 26.1648 29.625 25.2898C30 23.6648 30 20.4148 30 20.4148C30 20.4148 30 17.1648 29.5 15.5398ZM18 23.4148V17.4148L23.25 20.4148L18 23.4148Z" fill="white"/>
</svg>
