<svg width="360" height="79" viewBox="0 0 360 79" fill="none" xmlns="http://www.w3.org/2000/svg">
<path fill-rule="evenodd" clip-rule="evenodd" d="M42.6814 47.967C42.2826 47.8673 41.6842 47.7676 40.8864 47.7676V1.49583C40.8864 0.598333 40.3878 0.299166 40.0886 0.199465C39.6898 0.0997017 39.0914 0 37.9945 0H15.9557C15.2576 0 14.6593 0.0997017 14.3601 0.199465L14.3518 0.203626L14.3396 0.209441L14.3085 0.223824L14.27 0.241267C14.0222 0.352904 13.5623 0.56008 13.5623 0.997262V24.9309C13.5623 27.2245 13.4626 29.4184 13.3629 31.6122C13.2631 33.7064 13.0637 35.701 12.6648 37.5958C12.3656 39.3908 11.7673 41.0861 11.169 42.4822C10.4709 43.8784 9.57338 45.075 8.47648 46.0723L8.27702 46.2717C7.67868 46.6706 7.18005 46.9698 6.58172 47.2689C5.98339 47.5681 5.48476 47.7676 5.08589 47.7676C4.38779 47.7676 4.08863 47.7676 3.88922 47.8673H3.59006C2.6925 47.8673 1.99446 47.967 1.59559 48.2662C1.09696 48.5654 0.897499 48.9642 0.897499 49.2635V49.3632L0 55.4463C0 55.9449 0.598333 56.1444 0.897499 56.1444C1.29643 56.2441 1.795 56.2441 2.29363 56.2441C2.89196 56.2441 3.39059 56.2441 3.78946 56.1444C4.48756 55.9449 4.58726 55.546 4.58726 55.2469V55.1472L5.38505 49.762H38.9917L39.6898 55.546C39.7895 56.0447 40.2881 56.2441 40.4875 56.2441C40.8864 56.3438 41.385 56.4435 41.9834 56.4435C42.5817 56.4435 42.9806 56.3438 43.3795 56.2441C43.3967 56.2355 43.4177 56.2261 43.4417 56.2158L43.486 56.1968L43.4875 56.1963C43.7585 56.0817 44.277 55.8623 44.277 55.3466L43.4792 49.1637C43.4792 48.6651 43.1801 48.2662 42.6814 47.967ZM13.3629 45.6734C14.759 44.377 15.7562 42.6817 16.4543 40.6872C16.7663 39.8293 16.9563 38.9713 17.1674 38.0179C17.2262 37.7523 17.2866 37.4793 17.3518 37.1969C17.5512 36.0002 17.7507 34.7038 17.8504 33.4074C17.9502 32.111 18.0499 30.8146 18.0499 29.6179C18.1496 28.3215 18.1496 27.2246 18.1496 26.1276V1.99446H36.2992V47.8673H10.6703L10.6716 47.8664C11.5687 47.1686 12.4658 46.4708 13.3629 45.6734Z" fill="#7F203B"/>
<path d="M101.319 0.199403C101.019 0.0997017 100.82 0.0997017 100.521 0.199403C100.222 0.299105 99.9224 0.398868 99.723 0.698034L99.2244 1.19667L90.5485 18.2494C90.2684 18.8095 89.9844 19.3695 89.6979 19.9304C89.617 20.0888 89.5359 20.2473 89.4546 20.4058L89.3467 20.6163C89.1811 20.9393 89.0148 21.2627 88.8482 21.5866L88.8475 21.5878L88.8468 21.5889L88.842 21.5983C87.9742 23.286 87.0992 24.988 86.2604 26.7259C84.964 29.219 83.6675 31.8118 82.3712 34.4046C81.6602 32.9826 80.9492 31.6124 80.2514 30.2675L80.2506 30.266L80.2489 30.2627C79.5773 28.9684 78.918 27.6975 78.2825 26.4267C77.5871 25.0358 76.8669 23.645 76.1466 22.254L76.136 22.2335C75.4138 20.839 74.6917 19.4445 73.9945 18.0499C73.2972 16.6555 72.5751 15.261 71.853 13.8666L71.8505 13.8617C71.1275 12.4655 70.4045 11.0693 69.7064 9.67315C69.0719 8.40426 68.4136 7.1115 67.7431 5.79488L67.7376 5.78417L67.0099 4.35407C66.5483 3.44561 66.083 2.52608 65.6177 1.59553L65.2188 0.897499C65.144 0.673124 64.901 0.617 64.6579 0.560876C64.5768 0.542208 64.4958 0.52348 64.421 0.49857C64.2822 0.49857 64.1433 0.477087 63.9945 0.454074C63.8229 0.427389 63.6373 0.398868 63.4238 0.398868C63.3453 0.398868 63.2668 0.395012 63.189 0.388831C63.1144 0.382894 63.0405 0.374754 62.9681 0.365818C62.9104 0.358657 62.8536 0.351067 62.798 0.343601C62.6261 0.320588 62.4657 0.299105 62.3268 0.299105C62.1965 0.299105 62.0769 0.288456 61.9679 0.274134C61.8815 0.26275 61.8017 0.249101 61.7285 0.236554L61.727 0.236371C61.6625 0.225293 61.6032 0.215133 61.5491 0.208278C61.5058 0.20277 61.4659 0.199403 61.4293 0.199403C60.831 0.199403 60.3324 0.299105 59.9335 0.398868L59.9204 0.405172L59.9104 0.409824L59.8868 0.420412L59.8544 0.434428L59.8258 0.446546C59.5549 0.56112 59.036 0.780599 59.036 1.29637V1.9944L59.2354 1.8947C59.3352 2.09416 59.4349 2.29357 59.6343 2.59279C60.0332 3.29077 60.5317 4.28785 61.1299 5.48433C61.2583 5.76238 61.396 6.04551 61.5408 6.3347C61.7216 6.69605 61.9137 7.06768 62.1131 7.45333L62.1162 7.45957L62.1228 7.47224L62.1261 7.47848L62.1268 7.47977C62.5081 8.21691 62.9161 9.00565 63.3241 9.87261C64.2216 11.5679 65.1191 13.2632 66.0166 15.158C66.5152 16.1054 66.989 17.0528 67.4627 18.0002C67.9363 18.9475 68.41 19.8949 68.9086 20.8422L68.9108 20.8463C69.9072 22.7397 70.9037 24.6331 71.8005 26.5264L78.9806 40.388C78.888 40.5384 78.7982 40.6861 78.7107 40.8309L78.5881 41.0341L78.4166 41.3197C77.8839 42.2075 77.4347 42.956 76.9861 43.4794C76.3878 44.2772 75.8892 44.8756 75.4903 45.2745C75.1458 45.619 74.8489 45.8207 74.6653 45.9453C74.5832 46.0011 74.5239 46.0414 74.493 46.0722L74.1939 46.172V46.4712C74.1939 46.617 74.2472 46.7629 74.3149 46.9478C74.3397 47.0155 74.3666 47.0891 74.3933 47.1692C74.443 47.2686 74.5175 47.3927 74.592 47.5169L74.5935 47.5195C74.6681 47.6438 74.7426 47.7679 74.7923 47.8673C74.9917 48.1664 75.1911 48.3659 75.4903 48.5653C75.7895 48.7648 76.1883 48.9642 76.4875 48.9642C77.0858 48.9642 77.4847 48.6651 77.5844 48.4656C77.6842 48.3659 77.759 48.2661 77.8337 48.1664C77.9086 48.0667 77.9834 47.967 78.0831 47.8673L101.817 0.997201L101.917 0.897499C102.017 0.698034 101.917 0.299105 101.319 0.199403Z" fill="#7F203B"/>
<path d="M160.055 46.4712C159.854 46.2249 159.627 45.9485 159.378 45.6441L159.377 45.6432L159.374 45.6394C158.513 44.5888 157.379 43.2063 156.066 41.5847C155.338 40.685 154.518 39.6933 153.621 38.6094L153.612 38.5984L153.607 38.5927C152.421 37.1582 151.101 35.5627 149.684 33.8063C147.939 31.6248 145.982 29.2313 143.851 26.6257C143.06 25.6579 142.244 24.6608 141.407 23.6345L160.654 1.59559L160.753 1.49583V1.29643C160.753 0.797797 160.554 0.498631 160.355 0.398929C160.155 0.199465 159.756 0.0997017 159.258 0.0997017C159.158 0.0997017 159.058 0.0997017 158.958 0.199465C158.759 0.199465 158.56 0.299166 158.46 0.398929L139.812 21.8394C138.138 19.8174 136.367 17.6489 134.533 15.4025L134.507 15.3713L134.455 15.3076L134.452 15.3033L134.445 15.2954L133.49 14.1252C133.041 13.5755 132.588 13.0219 132.133 12.4655C130.667 10.6957 129.174 8.84872 127.631 6.93811L127.629 6.93634L127.627 6.93413L127.624 6.9304C126.126 5.07542 124.578 3.16022 122.958 1.19667C122.759 0.897499 122.46 0.698034 121.961 0.498631L120.765 0.199465C120.366 0.0997017 119.967 0.0997017 119.668 0.0997017C119.484 0.0997017 119.342 0.078525 119.243 0.0556959C119.127 0.0289496 119.069 0 119.069 0C118.77 0 118.471 0 117.972 0.0997017C117.759 0.0997017 117.545 0.128345 117.346 0.154969C117.26 0.166537 117.176 0.177676 117.097 0.185938C117.047 0.191202 116.998 0.195303 116.952 0.197567C116.926 0.198791 116.9 0.199465 116.875 0.199465C116.84 0.208278 116.806 0.216296 116.772 0.223701C116.712 0.236738 116.655 0.247816 116.599 0.257609C116.579 0.261158 116.559 0.264586 116.539 0.26783L116.494 0.275297C116.462 0.280315 116.432 0.285089 116.402 0.289741L116.382 0.292679L116.38 0.293046C116.263 0.310918 116.153 0.327687 116.045 0.352414C115.989 0.365328 115.934 0.380446 115.878 0.398929C115.679 0.398929 115.08 0.598333 115.08 0.997262V1.19667L136.022 26.1276L116.476 48.5654C115.978 49.2635 116.277 49.762 116.476 49.9615C116.776 50.2607 117.174 50.4601 117.773 50.4601C118.172 50.4601 118.371 50.2607 118.471 50.161L118.67 49.8618L118.571 49.762L137.518 28.0223L155.269 49.2635L155.368 49.3632C155.967 49.762 156.665 49.9616 157.363 50.161C158.061 50.2607 158.759 50.3604 159.357 50.2607C160.055 50.2607 160.554 50.0612 160.953 49.8618C161.252 49.6623 161.452 49.4629 161.551 49.1637C161.551 49.1153 161.557 49.0669 161.563 49.0171C161.582 48.8616 161.603 48.6923 161.452 48.4657C161.551 48.3659 161.452 48.1665 160.055 46.4712Z" fill="#7F203B"/>
<path d="M217.197 0.299166C216.997 0.199465 216.798 0.0997017 216.499 0.0997017C216.1 0 215.402 -0.0997017 214.504 0.199465C214.205 0.299166 213.906 0.398868 213.607 0.598333H213.407L213.307 0.797797L212.111 1.59559H212.809C210.117 4.886 207.524 8.37586 204.932 11.8657L204.931 11.8671C202.635 14.8757 200.402 17.8843 198.131 20.9428L198.128 20.9472L198.126 20.9497L198.123 20.9544L198.122 20.9554L198.102 20.9823C197.523 21.7631 196.941 22.5471 196.355 23.3353C194.961 25.2266 193.542 27.1428 192.124 29.059L192.109 29.0799C190.69 30.9961 189.272 32.9122 187.878 34.8035C187.14 35.7689 186.41 36.7342 185.683 37.695L185.677 37.7033L185.675 37.7051C183.852 40.1153 182.051 42.4966 180.199 44.7759V1.19667C180.199 0.736226 179.774 0.530886 179.552 0.423595C179.534 0.41472 179.517 0.406519 179.501 0.398868C179.102 0.199465 178.604 0.0997017 178.005 0.0997017C177.307 0.0997017 176.809 0.199465 176.41 0.299166C175.812 0.498631 175.712 0.997262 175.712 1.19667V48.2662C175.712 48.4657 175.712 48.5654 175.812 48.7648C175.911 48.9642 176.011 49.064 176.21 49.1637C176.41 49.2634 176.609 49.3632 176.909 49.3632C177.407 49.4629 178.404 49.4629 178.803 49.3632C178.993 49.3632 179.143 49.3231 179.252 49.2938C179.27 49.2889 179.287 49.2844 179.303 49.2804C179.318 49.2766 179.332 49.2732 179.345 49.2705C179.354 49.2687 179.362 49.2673 179.369 49.2662C179.381 49.2644 179.392 49.2635 179.402 49.2635C179.601 49.1637 179.701 49.064 179.8 48.9642L180 48.7648L213.307 4.78672V48.3659C213.307 48.7648 213.607 49.064 214.205 49.2635C214.604 49.3632 215.102 49.4629 215.701 49.4629C216.499 49.4629 216.997 49.3632 217.296 49.2635C217.795 49.064 217.895 48.6651 217.895 48.4657V1.29643C217.895 1.19667 217.895 0.997262 217.795 0.897499L217.777 0.87112L217.729 0.797736C217.57 0.553531 217.461 0.387362 217.197 0.299166Z" fill="#7F203B"/>
<path fill-rule="evenodd" clip-rule="evenodd" d="M298.571 8.17731C297.573 6.78118 296.377 5.48482 294.881 4.48756C293.385 3.39059 291.69 2.49309 289.695 1.79506C288.698 1.49589 287.601 1.19667 286.504 0.997262C285.407 0.797797 284.21 0.598333 283.014 0.498631L282.757 0.477148L282.755 0.476965C281.658 0.384975 280.634 0.299166 279.524 0.299166C278.912 0.299166 278.327 0.273154 277.754 0.247694C277.206 0.223334 276.67 0.199465 276.133 0.199465H265.662C265.363 0.199465 265.064 0.199465 264.765 0.299166C264.465 0.299166 264.166 0.398929 263.967 0.498631C263.468 0.698096 263.368 1.09696 263.368 1.29643V48.2662C263.368 48.6651 263.668 48.9642 264.166 49.064C264.565 49.1637 265.163 49.2635 265.861 49.2635C266.56 49.2635 267.058 49.1637 267.457 49.064C267.489 49.0481 267.536 49.0297 267.592 49.0075C267.891 48.8906 268.454 48.6695 268.454 48.1665V35.6013H276.133C278.23 35.6013 280.326 35.5101 282.51 35.415L282.524 35.4145L282.526 35.4143H282.528L282.814 35.4019C285.108 35.2024 287.302 34.8035 289.296 34.3049C291.391 33.7066 293.285 32.809 294.981 31.7121C296.676 30.5154 298.172 28.9199 299.269 26.9254C300.066 25.4295 300.565 23.9337 300.964 22.4378C301.363 20.9419 301.562 19.4461 301.562 18.05C301.562 16.2549 301.263 14.4599 300.765 12.7646C300.266 11.0693 299.568 9.57344 298.571 8.17731ZM290.792 5.38505C291.989 6.18285 292.986 7.08041 293.784 8.27708C294.582 9.37404 295.28 10.7702 295.679 12.4655C296.177 14.061 296.377 15.9558 296.377 18.1497C296.377 19.7453 296.177 21.2411 295.878 22.7369C295.579 24.2328 295.08 25.5293 294.482 26.6262C293.485 28.3215 292.288 29.6179 290.992 30.5154C289.596 31.5127 288.199 32.2107 286.604 32.7093C285.008 33.208 283.413 33.5071 281.717 33.7066L281.714 33.7068C280.02 33.8064 278.326 33.906 276.632 33.906H268.355V2.39339H277.23C279.025 2.39339 280.72 2.49309 282.316 2.69256C283.911 2.89196 285.507 3.19119 286.903 3.68976C288.399 3.98892 289.695 4.58726 290.792 5.38505Z" fill="#7F203B"/>
<path d="M359.302 0.199465C359.003 0.0997629 358.803 0.0997629 358.504 0.199465C358.205 0.299166 357.906 0.398929 357.706 0.698096L357.208 1.19667L348.532 18.2495C347.977 19.3583 347.407 20.4671 346.834 21.5822L346.831 21.5873L346.829 21.5925C345.96 23.282 345.084 24.986 344.244 26.7259C342.949 29.216 341.654 31.8055 340.359 34.3951L340.355 34.4046C339.644 32.9833 338.933 31.6135 338.236 30.2692L338.235 30.2676C337.562 28.9718 336.902 27.699 336.266 26.4268C335.57 25.0344 334.849 23.642 334.128 22.2497L334.122 22.2394L334.122 22.2384L334.121 22.2373C333.398 20.8416 332.676 19.4457 331.978 18.05C331.28 16.6539 330.557 15.2577 329.834 13.8616C329.111 12.4655 328.388 11.0693 327.69 9.67321C327.49 9.27373 327.288 8.87192 327.084 8.4673C326.858 8.02014 326.63 7.56962 326.4 7.11524L326.386 7.08733C325.478 5.29343 324.539 3.43968 323.601 1.49589L323.302 0.797797C323.227 0.573422 322.984 0.517298 322.741 0.461235L322.739 0.460868C322.659 0.442262 322.578 0.423656 322.504 0.398929C322.365 0.398929 322.226 0.377447 322.078 0.354373C322.02 0.345498 321.961 0.336378 321.9 0.328177C321.779 0.311836 321.649 0.299166 321.507 0.299166C321.369 0.299166 321.23 0.28717 321.096 0.271441C321.023 0.262933 320.952 0.253324 320.882 0.24396H320.881C320.709 0.220947 320.549 0.199465 320.41 0.199465C320.176 0.199465 319.977 0.165251 319.812 0.136914C319.695 0.116839 319.595 0.0997017 319.512 0.0997017C318.914 0.0997017 318.416 0.199465 318.017 0.299166L318 0.307245L317.98 0.316487C317.968 0.321689 317.955 0.327198 317.942 0.332951L317.909 0.346844C317.638 0.46148 317.119 0.680958 317.119 1.19667V1.89476L317.319 1.79506C317.369 1.89666 317.42 1.99832 317.484 2.11314C317.546 2.22367 317.62 2.34645 317.717 2.49309C318.114 3.18764 318.61 4.17835 319.204 5.36694L319.212 5.3831L319.213 5.38475C319.505 6.01803 319.845 6.67542 320.21 7.37958C320.591 8.11666 320.999 8.90601 321.407 9.77291L324.1 15.0583C324.598 16.0055 325.072 16.9528 325.546 17.9C326.019 18.8475 326.493 19.795 326.992 20.7425C327.989 22.6372 328.986 24.532 329.884 26.4268L337.064 40.2884C336.864 40.6124 336.677 40.924 336.5 41.2201C335.967 42.1082 335.518 42.8562 335.069 43.3798C334.471 44.1776 333.972 44.7759 333.573 45.1748C333.229 45.5193 332.932 45.721 332.748 45.8456L332.747 45.8467L332.692 45.884C332.673 45.8975 332.655 45.9099 332.639 45.9214C332.612 45.9411 332.591 45.9579 332.576 45.9726L332.277 46.0723V46.3714C332.277 46.5174 332.33 46.6633 332.398 46.8481L332.424 46.919C332.436 46.9522 332.448 46.9867 332.461 47.0227L332.476 47.0695C332.526 47.1693 332.601 47.294 332.676 47.4187C332.751 47.5433 332.826 47.6679 332.875 47.7676C333.075 48.0667 333.274 48.2662 333.573 48.4657C333.873 48.6651 334.271 48.8645 334.571 48.8645C335.169 48.8645 335.568 48.5654 335.668 48.3659C335.767 48.2663 335.842 48.1668 335.917 48.0672C335.991 47.9675 336.066 47.8673 336.166 47.7676L359.9 0.897499L359.993 0.804591C359.996 0.824972 359.998 0.844496 359.999 0.862796C360 0.874915 360 0.886482 360 0.897499V0.797797L359.993 0.804591C359.963 0.593436 359.817 0.285395 359.302 0.199465Z" fill="#7F203B"/>
<path d="M240.233 49.5626C241.995 49.5626 243.424 48.1339 243.424 46.3715C243.424 44.6091 241.995 43.1803 240.233 43.1803C238.47 43.1803 237.041 44.6091 237.041 46.3715C237.041 48.1339 238.47 49.5626 240.233 49.5626Z" fill="#7F203B"/>
<path fill-rule="evenodd" clip-rule="evenodd" d="M264.366 78.3827V77.483C265.373 77.4604 266.21 77.2674 266.958 76.9866C267.756 76.6874 268.355 76.2885 268.753 75.6902C269.152 75.0918 269.352 74.3937 269.352 73.5959C269.352 72.7982 269.152 72.1001 268.753 71.5018C268.355 70.9035 267.756 70.4048 266.958 70.1057C266.21 69.8248 265.373 69.6319 264.366 69.6093V68.7095H263.468V69.616C262.549 69.658 261.774 69.8436 261.075 70.1057C260.277 70.5045 259.679 70.9035 259.28 71.5018C258.881 72.1001 258.681 72.7982 258.681 73.5959C258.681 74.3937 258.881 75.0918 259.28 75.6902C259.679 76.1888 260.277 76.6874 261.075 76.9866C261.774 77.2487 262.549 77.4342 263.468 77.4762V78.3827H264.366ZM261.573 70.704C262.081 70.4499 262.733 70.3397 263.468 70.3122V76.6767C262.771 76.6461 262.139 76.55 261.573 76.3882C260.975 76.089 260.476 75.7899 260.078 75.2913C259.778 74.7927 259.579 74.1943 259.579 73.4962C259.579 72.7982 259.778 72.2996 260.078 71.8009C260.476 71.3023 260.975 70.9035 261.573 70.704ZM264.366 76.6815V70.309C265.141 70.3301 265.829 70.4385 266.36 70.704C267.058 71.0032 267.557 71.3023 267.856 71.8009C268.155 72.1999 268.355 72.7982 268.355 73.4962C268.355 74.0946 268.155 74.6929 267.856 75.1915C267.457 75.6902 266.958 75.9893 266.36 76.2885C265.844 76.5467 265.179 76.6563 264.366 76.6815Z" fill="#7F203B"/>
<path d="M1.6953 78.0836V69.0087H2.59279V76.488L8.37672 69.0087H9.27422V78.0836H8.37672V70.6043L2.59279 78.0836H1.6953Z" fill="#7F203B"/>
<path d="M23.9335 69.0087H23.0361V73.0974H17.3518V69.0087H16.3546V78.0836H17.3518V73.8952H23.0361V78.0836H23.9335V69.0087Z" fill="#7F203B"/>
<path d="M32.8088 69.9062V78.0836H33.7063V69.9062H36.8975V69.1085H29.6177V69.9062H32.8088Z" fill="#7F203B"/>
<path d="M43.5789 73.8952V77.2858H49.0637V78.0836H42.6814V69.0087H48.8642V69.8065H43.5789V73.0974H48.2659V73.8952H43.5789Z" fill="#7F203B"/>
<path fill-rule="evenodd" clip-rule="evenodd" d="M58.6371 69.0087H55.2465V78.1833H56.1441V75.391H58.6371C59.4349 75.391 60.0332 75.2913 60.6315 74.9921C61.2299 74.693 61.6288 74.3937 61.928 73.8952C62.2271 73.3965 62.4265 72.7982 62.4265 72.1999C62.4265 71.5018 62.2271 71.0032 61.928 70.5046C61.6288 70.006 61.2299 69.607 60.6315 69.4076C60.0332 69.1085 59.4349 69.0087 58.6371 69.0087ZM56.1441 74.3937H58.5374C59.4349 74.3937 60.1329 74.1943 60.6315 73.7954C61.1302 73.3965 61.3296 72.7982 61.3296 72.1001C61.3296 71.4021 61.1302 70.8037 60.6315 70.4048C60.1329 70.006 59.4349 69.8065 58.5374 69.8065H56.1441V74.3937Z" fill="#7F203B"/>
<path d="M75.7895 69.0087H74.892V73.0974H69.2077V69.0087H68.2105V78.0836H69.2077V73.8952H74.892V78.0836H75.7895V69.0087Z" fill="#7F203B"/>
<path d="M83.8671 73.8952V77.2858H89.3518V78.0836H82.9696V69.0087H89.1524V69.8065H83.8671V73.0974H88.554V73.8952H83.8671Z" fill="#7F203B"/>
<path d="M97.23 69.9062V78.0836H98.1275V69.9062H101.319V69.1085H94.0388V69.9062H97.23Z" fill="#7F203B"/>
<path d="M105.906 74.1943V74.9921H109.296V74.1943H105.906Z" fill="#7F203B"/>
<path d="M115.579 69.0087V78.0836H116.476V70.8457L120.066 76.9866H120.565L124.155 70.8457V78.0836H125.053V69.0087H124.255L120.363 75.7478L116.377 69.0087H115.579Z" fill="#7F203B"/>
<path fill-rule="evenodd" clip-rule="evenodd" d="M134.925 69.0087L130.737 78.0836H131.834L132.904 75.6902H137.944L139.014 78.0836H140.011L135.823 69.0087H134.925ZM137.587 74.8924L135.424 70.0531L133.26 74.8924H137.587Z" fill="#7F203B"/>
<path d="M145.695 69.0087V78.0836H146.593V69.8065H151.479V69.0087H145.695Z" fill="#7F203B"/>
<path fill-rule="evenodd" clip-rule="evenodd" d="M158.26 69.0087L154.072 78.0836H155.169L156.239 75.6902H161.279L162.349 78.0836H163.346L159.158 69.0087H158.26ZM160.922 74.8924L158.759 70.0531L156.596 74.8924H160.922Z" fill="#7F203B"/>
<path d="M168.432 76.2884L168.033 76.9865C168.36 77.3132 168.754 77.5062 169.433 77.8394C169.584 77.9129 169.748 77.9933 169.928 78.0835C170.094 78.1167 170.26 78.161 170.427 78.2054C170.759 78.2939 171.092 78.3827 171.424 78.3827C171.922 78.3827 172.421 78.3827 172.92 78.283C173.418 78.1832 173.817 77.9838 174.216 77.7843C174.615 77.4852 174.914 77.186 175.114 76.8868C175.313 76.4879 175.413 76.089 175.413 75.6901C175.413 75.2912 175.313 74.7926 175.014 74.4934C174.814 74.1943 174.416 73.8951 174.017 73.6957C173.917 73.6558 173.817 73.6199 173.717 73.5881C173.627 73.5595 173.537 73.5342 173.445 73.512C173.54 73.4782 173.631 73.4397 173.718 73.3965C174.116 73.197 174.416 72.8979 174.615 72.5987C174.814 72.2995 174.914 71.9007 174.914 71.5017C174.914 71.0031 174.814 70.6042 174.515 70.3051C174.216 70.0059 173.817 69.7067 173.418 69.5073C172.92 69.3078 172.521 69.2081 171.922 69.1084C171.367 69.0159 170.898 69.095 170.355 69.1866L170.227 69.2081L170.226 69.2085C169.628 69.4078 169.03 69.6071 168.532 69.9061L168.831 70.7039C169.23 70.4048 169.629 70.2053 170.127 70.1056C170.526 69.9061 171.025 69.9061 171.424 69.9061C171.922 69.9061 172.321 70.0059 172.621 70.1056C172.704 70.1614 172.788 70.2094 172.87 70.2562C173.079 70.3765 173.275 70.4885 173.418 70.7039C173.618 71.0031 173.718 71.3023 173.718 71.6014C173.718 72.0004 173.618 72.3992 173.219 72.6984C172.82 72.9976 172.321 73.0973 171.723 73.0973H169.828V73.8951H171.723C172.421 73.8951 173.019 73.9948 173.418 74.294C173.817 74.5931 174.017 74.9921 174.017 75.4906C174.017 75.9893 173.917 76.2884 173.618 76.5876C173.418 76.7871 173.019 77.0862 172.621 77.186C172.222 77.2857 171.723 77.3854 171.224 77.3854C170.726 77.3854 170.227 77.2857 169.729 77.0862C169.23 76.8868 168.831 76.5876 168.432 76.2884Z" fill="#7F203B"/>
<path d="M181.296 69.0087V78.0836H182.194L187.978 70.6043V78.0836H188.875V69.0087H187.978L182.194 76.488V69.0087H181.296Z" fill="#7F203B"/>
<path d="M203.535 69.0087H202.637V73.0974H196.953V69.0087H195.956V78.0836H196.953V73.8952H202.637V78.0836H203.535V69.0087Z" fill="#7F203B"/>
<path d="M217.994 69.0087V78.0836H218.892V69.9062H224.676V78.0836H225.573V69.0087H217.994Z" fill="#7F203B"/>
<path fill-rule="evenodd" clip-rule="evenodd" d="M235.546 69.0087L231.357 78.0836H232.454L233.524 75.6902H238.564L239.634 78.0836H240.632L236.443 69.0087H235.546ZM238.208 74.8924L236.044 70.0531L233.881 74.8924H238.208Z" fill="#7F203B"/>
<path fill-rule="evenodd" clip-rule="evenodd" d="M249.706 69.0087H246.316V78.1833H247.213V75.391H249.706C250.504 75.391 251.102 75.2913 251.701 74.9921C252.299 74.693 252.698 74.3937 252.997 73.8952C253.296 73.3965 253.496 72.7982 253.496 72.1999C253.496 71.5018 253.296 71.0032 252.997 70.5046C252.698 70.006 252.299 69.607 251.701 69.4076C251.102 69.1085 250.504 69.0087 249.706 69.0087ZM247.313 74.3937H249.706C250.604 74.3937 251.302 74.1943 251.801 73.7954C252.299 73.3965 252.499 72.7982 252.499 72.1001C252.499 71.4021 252.299 70.8037 251.801 70.4048C251.302 70.006 250.604 69.8065 249.706 69.8065H247.313V74.3937Z" fill="#7F203B"/>
<path fill-rule="evenodd" clip-rule="evenodd" d="M275.435 78.0836V69.0087H276.332V72.9977H278.358C278.401 72.5693 278.491 72.1392 278.626 71.8009C278.826 71.2026 279.125 70.704 279.524 70.3051C279.922 69.9066 280.42 69.6076 280.918 69.3086L280.92 69.3079C281.518 69.1085 282.116 69.0087 282.715 69.0087C283.313 69.0087 283.911 69.1085 284.51 69.3079C285.108 69.5073 285.507 69.8065 285.906 70.3051C286.305 70.704 286.604 71.2026 286.803 71.8009C287.003 72.3991 287.202 72.9979 287.202 73.596C287.202 74.1943 287.103 74.8924 286.803 75.391C286.604 75.9893 286.305 76.488 285.906 76.8868C285.507 77.2858 285.008 77.5849 284.51 77.8841C284.011 78.0836 283.413 78.1833 282.715 78.1833C282.116 78.1833 281.518 78.0836 280.92 77.8841C280.421 77.6846 279.922 77.2858 279.524 76.8868C279.125 76.488 278.826 75.9893 278.626 75.391C278.46 74.8924 278.363 74.3937 278.335 73.8952H276.332V78.0836H275.435ZM282.715 77.2858C283.213 77.2858 283.712 77.1861 284.111 76.9866C284.51 76.7871 284.909 76.488 285.208 76.1888C285.507 75.8896 285.806 75.4907 286.006 74.9921C286.205 74.4935 286.305 73.9949 286.305 73.4962C286.305 72.9977 286.205 72.3993 286.006 72.0004C285.806 71.5018 285.607 71.1029 285.208 70.8037C284.909 70.5046 284.51 70.2054 284.111 70.006C283.712 69.8065 283.213 69.7068 282.715 69.7068C282.216 69.7068 281.717 69.8065 281.319 70.006C280.92 70.2054 280.521 70.4048 280.222 70.8037C279.922 71.1029 279.623 71.5018 279.424 72.0004C279.224 72.3993 279.125 72.9977 279.125 73.4962C279.125 73.9949 279.224 74.5932 279.424 74.9921C279.623 75.3908 279.823 75.7901 280.222 76.1888C280.521 76.488 280.92 76.7871 281.319 76.9866C281.817 77.1861 282.216 77.2858 282.715 77.2858Z" fill="#7F203B"/>
<path d="M293.585 78.0836V69.0087H294.382L298.369 75.7478L302.26 69.0087H303.058V78.0836H302.161V70.8457L298.571 76.9866H298.072L294.482 70.8457V78.0836H293.585Z" fill="#7F203B"/>
<path d="M311.036 77.2858V73.8952H315.723V73.0974H311.036V69.8065H316.321V69.0087H310.139V78.0836H316.521V77.2858H311.036Z" fill="#7F203B"/>
<path fill-rule="evenodd" clip-rule="evenodd" d="M323.501 78.1833H322.604V69.0087H325.995C326.792 69.0087 327.391 69.1085 327.989 69.4076C328.587 69.607 328.986 70.006 329.285 70.5046C329.585 71.0032 329.784 71.5018 329.784 72.1999C329.784 72.7982 329.585 73.3965 329.285 73.8952C328.986 74.3937 328.587 74.693 327.989 74.9921C327.391 75.2913 326.792 75.391 325.995 75.391H323.501V78.1833ZM325.895 74.3937H323.501V69.8065H325.895C326.792 69.8065 327.49 70.006 327.989 70.4048C328.488 70.8037 328.687 71.4021 328.687 72.1001C328.687 72.7982 328.488 73.3965 327.989 73.7954C327.49 74.1943 326.792 74.3937 325.895 74.3937Z" fill="#7F203B"/>
<path d="M335.668 78.0836V69.0087H336.565V76.488L342.349 69.0087H343.247V78.0836H342.349V70.6043L336.565 78.0836H335.668Z" fill="#7F203B"/>
<path d="M350.327 78.0836V69.0087H351.224V76.488L357.008 69.0087H357.906V78.0836H357.008V70.6043L351.224 78.0836H350.327Z" fill="#7F203B"/>
</svg>
