<svg width="196" height="43" viewBox="0 0 196 43" fill="none" xmlns="http://www.w3.org/2000/svg">
<path fill-rule="evenodd" clip-rule="evenodd" d="M23.125 25.9821C22.9089 25.9281 22.5848 25.8741 22.1527 25.8741V0.810242C22.1527 0.324097 21.8826 0.162048 21.7205 0.108043C21.5045 0.0540051 21.1804 0 20.5862 0H8.64853C8.27039 0 7.9463 0.0540051 7.78425 0.108043L7.77974 0.110298L7.77314 0.113447L7.7563 0.121238L7.73545 0.130686C7.60122 0.191156 7.35211 0.303377 7.35211 0.540183V13.5042C7.35211 14.7466 7.2981 15.9349 7.2441 17.1233C7.19006 18.2576 7.08205 19.3381 6.86596 20.3644C6.70392 21.3367 6.37982 22.255 6.05572 23.0112C5.67762 23.7674 5.19144 24.4156 4.59729 24.9558L4.48924 25.0639C4.16515 25.2799 3.89505 25.442 3.57096 25.604C3.24686 25.7661 2.97677 25.8741 2.76072 25.8741C2.38258 25.8741 2.22053 25.8741 2.11252 25.9281H1.95047C1.4643 25.9281 1.08619 25.9821 0.87014 26.1442C0.600048 26.3062 0.492005 26.5223 0.492005 26.6844V26.7384L0.00585938 30.0334C0.00585938 30.3035 0.329956 30.4115 0.492005 30.4115C0.708091 30.4656 0.97815 30.4656 1.24824 30.4656C1.57234 30.4656 1.84243 30.4656 2.05848 30.4115C2.43662 30.3035 2.49062 30.0874 2.49062 29.9254V29.8714L2.92276 26.9544H21.1264L21.5045 30.0874C21.5585 30.3575 21.8286 30.4656 21.9366 30.4656C22.1527 30.5196 22.4227 30.5736 22.7469 30.5736C23.071 30.5736 23.287 30.5196 23.5031 30.4656C23.5124 30.4609 23.5238 30.4558 23.5368 30.4502L23.5608 30.4399L23.5616 30.4396C23.7084 30.3776 23.9893 30.2588 23.9893 29.9794L23.5571 26.6303C23.5571 26.3603 23.3951 26.1442 23.125 25.9821ZM7.2441 24.7398C8.00034 24.0375 8.54049 23.1192 8.91859 22.0389C9.0876 21.5742 9.1905 21.1095 9.30485 20.593C9.33671 20.4492 9.36946 20.3013 9.40477 20.1483C9.51278 19.5001 9.62082 18.7979 9.67482 18.0957C9.72886 17.3934 9.78287 16.6913 9.78287 16.043C9.83687 15.3408 9.83687 14.7466 9.83687 14.1524V1.08033H19.6679V25.9281H5.78563L5.78633 25.9276C6.27224 25.5497 6.75819 25.1717 7.2441 24.7398Z" fill="white"/>
<path d="M54.8867 0.10801C54.7247 0.0540051 54.6166 0.0540051 54.4546 0.10801C54.2925 0.162015 54.1305 0.216054 54.0225 0.378102L53.7524 0.648194L49.053 9.88509C48.9012 10.1885 48.7474 10.4918 48.5922 10.7956C48.5484 10.8814 48.5045 10.9673 48.4605 11.0531L48.402 11.1672C48.3123 11.3421 48.2222 11.5173 48.132 11.6927L48.1316 11.6934L48.1312 11.694L48.1286 11.6991C47.6586 12.6133 47.1846 13.5352 46.7302 14.4765C46.028 15.8269 45.3258 17.2314 44.6236 18.6358C44.2384 17.8656 43.8533 17.1234 43.4753 16.3949L43.4749 16.3941L43.474 16.3923C43.1102 15.6912 42.7531 15.0028 42.4089 14.3145C42.0322 13.5611 41.6421 12.8077 41.252 12.0543L41.2462 12.0431C40.855 11.2878 40.4639 10.5324 40.0862 9.77704C39.7085 9.02173 39.3174 8.26639 38.9263 7.51108L38.9249 7.5084C38.5332 6.75213 38.1416 5.99589 37.7635 5.23962C37.4198 4.55231 37.0632 3.85206 36.7 3.13889L36.6971 3.13309L36.3029 2.35845C36.0528 1.86637 35.8008 1.36829 35.5488 0.864247L35.3327 0.486145C35.2922 0.364609 35.1606 0.334208 35.0289 0.303808C34.985 0.293696 34.9411 0.283552 34.9006 0.270059C34.8254 0.270059 34.7502 0.258422 34.6696 0.245957C34.5766 0.231502 34.4761 0.216054 34.3604 0.216054C34.3179 0.216054 34.2754 0.213965 34.2332 0.210617C34.1928 0.207401 34.1528 0.202991 34.1136 0.198151C34.0823 0.194272 34.0516 0.190162 34.0214 0.186117C33.9283 0.173652 33.8415 0.162015 33.7662 0.162015C33.6957 0.162015 33.6309 0.156247 33.5718 0.148489C33.525 0.142323 33.4818 0.13493 33.4421 0.128134L33.4413 0.128034C33.4064 0.122034 33.3742 0.11653 33.3449 0.112817C33.3215 0.109834 33.2999 0.10801 33.2801 0.10801C32.956 0.10801 32.6859 0.162015 32.4698 0.216054L32.4627 0.219468L32.4573 0.221988L32.4445 0.227723L32.427 0.235315L32.4115 0.241879C32.2648 0.30394 31.9837 0.422824 31.9837 0.702199V1.0803L32.0917 1.0263C32.1457 1.13434 32.1998 1.24235 32.3078 1.40443C32.5238 1.7825 32.7939 2.32258 33.1179 2.97068C33.1874 3.12129 33.2621 3.27465 33.3405 3.4313C33.4384 3.62703 33.5424 3.82833 33.6504 4.03722L33.6521 4.0406L33.6557 4.04746L33.6575 4.05085L33.6579 4.05154C33.8644 4.45083 34.0854 4.87806 34.3064 5.34766C34.7926 6.26595 35.2787 7.18423 35.7649 8.21056C36.0349 8.72376 36.2915 9.23693 36.5481 9.75012C36.8047 10.2633 37.0613 10.7764 37.3313 11.2895L37.3325 11.2918C37.8723 12.3173 38.412 13.3429 38.8978 14.3685L42.787 21.8768C42.7369 21.9583 42.6882 22.0383 42.6408 22.1167L42.5744 22.2268L42.4815 22.3815C42.1929 22.8624 41.9497 23.2678 41.7067 23.5514C41.3826 23.9835 41.1125 24.3076 40.8964 24.5237C40.7098 24.7103 40.549 24.8195 40.4496 24.8871C40.4051 24.9173 40.373 24.9391 40.3562 24.9558L40.1942 25.0098V25.1719C40.1942 25.2509 40.2231 25.3299 40.2598 25.43C40.2732 25.4667 40.2878 25.5066 40.3022 25.55C40.3292 25.6038 40.3695 25.671 40.4099 25.7383L40.4107 25.7397C40.4511 25.807 40.4914 25.8743 40.5183 25.9281C40.6263 26.0902 40.7344 26.1982 40.8964 26.3062C41.0585 26.4143 41.2745 26.5223 41.4366 26.5223C41.7607 26.5223 41.9768 26.3603 42.0308 26.2522C42.0848 26.1982 42.1253 26.1442 42.1658 26.0902C42.2063 26.0362 42.2469 25.9821 42.3009 25.9281L55.1568 0.54015L55.2108 0.486145C55.2648 0.378102 55.2108 0.162015 54.8867 0.10801Z" fill="white"/>
<path d="M86.7025 25.1719C86.5934 25.0385 86.4706 24.8888 86.3355 24.7239L86.3351 24.7234L86.3334 24.7213C85.8669 24.1523 85.2529 23.4034 84.5419 22.5251C84.1474 22.0377 83.703 21.5006 83.2174 20.9134L83.2124 20.9075L83.2098 20.9044C82.567 20.1274 81.852 19.2631 81.0848 18.3117C80.1395 17.1301 79.0794 15.8336 77.9253 14.4223C77.4966 13.898 77.0549 13.358 76.6014 12.802L87.0266 0.86428L87.0806 0.810242V0.702232C87.0806 0.43214 86.9726 0.270092 86.8646 0.216087C86.7565 0.108043 86.5405 0.0540051 86.2704 0.0540051C86.2164 0.0540051 86.1623 0.0540051 86.1083 0.108043C86.0003 0.108043 85.8923 0.162048 85.8382 0.216087L75.7371 11.8297C74.8307 10.7344 73.8715 9.55983 72.8778 8.34304L72.864 8.32613L72.8358 8.29162L72.8339 8.28927L72.8304 8.28499L72.3128 7.65115C72.0695 7.35338 71.8245 7.05351 71.5779 6.75213C70.7836 5.7935 69.9753 4.79306 69.1392 3.75814L69.1384 3.75718L69.1374 3.75599L69.1358 3.75397C68.324 2.74919 67.4858 1.71179 66.6084 0.648194C66.5003 0.486145 66.3383 0.378102 66.0682 0.270092L65.42 0.108043C65.2039 0.0540051 64.9878 0.0540051 64.8258 0.0540051C64.7262 0.0540051 64.6496 0.0425344 64.5959 0.0301686C64.5331 0.015681 64.5017 0 64.5017 0C64.3396 0 64.1776 0 63.9075 0.0540051C63.7917 0.0540051 63.6759 0.0695204 63.5685 0.0839416C63.5218 0.0902074 63.4764 0.0962411 63.4336 0.100717C63.4063 0.103568 63.3799 0.105789 63.3547 0.107016C63.3405 0.107679 63.3267 0.108043 63.3133 0.108043C63.2943 0.112817 63.2757 0.11716 63.2574 0.121172C63.2251 0.128233 63.194 0.134234 63.1638 0.139538C63.1529 0.141461 63.142 0.143317 63.1313 0.145074L63.1065 0.149119C63.0897 0.151837 63.0731 0.154423 63.0567 0.156943L63.0464 0.158534L63.0448 0.158733C62.9815 0.168414 62.9219 0.177497 62.8636 0.190891C62.8332 0.197886 62.8032 0.206075 62.7732 0.216087C62.6651 0.216087 62.341 0.324097 62.341 0.540183V0.648194L73.6845 14.1524L63.0973 26.3062C62.8272 26.6844 62.9892 26.9544 63.0973 27.0625C63.2593 27.2245 63.4754 27.3326 63.7995 27.3326C64.0155 27.3326 64.1236 27.2245 64.1776 27.1705L64.2856 27.0085L64.2316 26.9544L74.4948 15.1787L84.1097 26.6844L84.1637 26.7384C84.4878 26.9544 84.8661 27.0625 85.2441 27.1705C85.6223 27.2245 86.0003 27.2785 86.3244 27.2245C86.7025 27.2245 86.9726 27.1165 87.1887 27.0085C87.3507 26.9004 87.4588 26.7924 87.5128 26.6303C87.5128 26.6041 87.5159 26.5779 87.5192 26.5509C87.5294 26.4667 87.5406 26.375 87.4588 26.2522C87.5128 26.1982 87.4588 26.0902 86.7025 25.1719Z" fill="white"/>
<path d="M117.654 0.162048C117.546 0.108043 117.438 0.0540051 117.276 0.0540051C117.06 0 116.682 -0.0540051 116.196 0.108043C116.034 0.162048 115.871 0.216054 115.709 0.324097H115.601L115.547 0.43214L114.899 0.86428H115.277C113.819 2.64658 112.415 4.53692 111.011 6.42727L111.01 6.428C109.766 8.05766 108.557 9.68733 107.327 11.344L107.325 11.3464L107.324 11.3478L107.322 11.3503L107.322 11.3508L107.311 11.3654C106.997 11.7884 106.682 12.213 106.365 12.64C105.61 13.6644 104.841 14.7023 104.073 15.7403L104.065 15.7516C103.296 16.7895 102.528 17.8274 101.773 18.8519C101.373 19.3748 100.978 19.8977 100.584 20.4181L100.581 20.4226L100.58 20.4236C99.5926 21.7291 98.617 23.019 97.6139 24.2536V0.648194C97.6139 0.398789 97.3835 0.287563 97.2632 0.229447C97.2532 0.22464 97.244 0.220198 97.2357 0.216054C97.0197 0.108043 96.7496 0.0540051 96.4255 0.0540051C96.0474 0.0540051 95.7773 0.108043 95.5612 0.162048C95.2371 0.270092 95.1831 0.540183 95.1831 0.648194V26.1442C95.1831 26.2522 95.1831 26.3062 95.2371 26.4143C95.2912 26.5223 95.3452 26.5763 95.4532 26.6303C95.5612 26.6843 95.6693 26.7384 95.8313 26.7384C96.1014 26.7924 96.6416 26.7924 96.8576 26.7384C96.9604 26.7384 97.0414 26.7167 97.1007 26.7008C97.1104 26.6982 97.1195 26.6957 97.1281 26.6936C97.1363 26.6915 97.1439 26.6897 97.1511 26.6882C97.1557 26.6872 97.16 26.6864 97.1642 26.6858C97.1706 26.6849 97.1764 26.6844 97.1817 26.6844C97.2898 26.6303 97.3438 26.5763 97.3978 26.5223L97.5058 26.4143L115.547 2.59281V26.1982C115.547 26.4143 115.709 26.5763 116.034 26.6844C116.25 26.7384 116.52 26.7924 116.844 26.7924C117.276 26.7924 117.546 26.7384 117.708 26.6844C117.978 26.5763 118.032 26.3603 118.032 26.2522V0.702232C118.032 0.648194 118.032 0.540183 117.978 0.486145L117.969 0.471857L117.943 0.432107C117.856 0.299829 117.797 0.209821 117.654 0.162048Z" fill="white"/>
<path fill-rule="evenodd" clip-rule="evenodd" d="M161.732 4.42938C161.191 3.67314 160.543 2.97094 159.733 2.43076C158.923 1.83657 158.004 1.35043 156.924 0.972324C156.384 0.810275 155.79 0.648194 155.196 0.540183C154.601 0.43214 153.953 0.324097 153.305 0.270092L153.166 0.258455L153.165 0.258356C152.57 0.208528 152.016 0.162048 151.414 0.162048C151.083 0.162048 150.766 0.147959 150.456 0.134167C150.159 0.120973 149.869 0.108043 149.578 0.108043H143.906C143.744 0.108043 143.582 0.108043 143.42 0.162048C143.258 0.162048 143.096 0.216087 142.988 0.270092C142.718 0.378135 142.664 0.594189 142.664 0.702232V26.1442C142.664 26.3603 142.826 26.5223 143.096 26.5763C143.312 26.6303 143.636 26.6844 144.014 26.6844C144.392 26.6844 144.662 26.6303 144.878 26.5763C144.896 26.5677 144.921 26.5577 144.952 26.5457C145.113 26.4824 145.419 26.3626 145.419 26.0902V19.2841H149.578C150.714 19.2841 151.849 19.2346 153.032 19.1831L153.04 19.1828L153.041 19.1827H153.042L153.197 19.176C154.439 19.068 155.628 18.8519 156.708 18.5818C157.842 18.2577 158.869 17.7716 159.787 17.1774C160.705 16.5292 161.516 15.6649 162.11 14.5846C162.542 13.7743 162.812 12.9641 163.028 12.1538C163.244 11.3436 163.352 10.5333 163.352 9.77708C163.352 8.80475 163.19 7.83246 162.92 6.91418C162.65 5.99589 162.272 5.18562 161.732 4.42938ZM157.518 2.9169C158.167 3.34904 158.707 3.83522 159.139 4.48342C159.571 5.07761 159.949 5.83384 160.165 6.75213C160.435 7.61637 160.543 8.6427 160.543 9.83108C160.543 10.6954 160.435 11.5056 160.273 12.3158C160.111 13.1261 159.841 13.8284 159.517 14.4225C158.977 15.3408 158.329 16.043 157.626 16.5292C156.87 17.0694 156.114 17.4475 155.25 17.7175C154.385 17.9876 153.521 18.1497 152.603 18.2577L152.601 18.2578C151.683 18.3118 150.766 18.3658 149.848 18.3658H145.365V1.29642H150.172C151.144 1.29642 152.063 1.35043 152.927 1.45847C153.791 1.56648 154.655 1.72856 155.412 1.99862C156.222 2.16067 156.924 2.48476 157.518 2.9169Z" fill="white"/>
<path d="M194.628 0.108043C194.466 0.0540382 194.358 0.0540382 194.196 0.108043C194.034 0.162048 193.872 0.216087 193.763 0.378135L193.493 0.648194L188.794 9.88512C188.494 10.4857 188.185 11.0864 187.874 11.6904L187.873 11.6931L187.871 11.6959C187.401 12.6111 186.926 13.5341 186.471 14.4765C185.77 15.8253 185.069 17.228 184.367 18.6307L184.365 18.6358C183.98 17.8659 183.595 17.124 183.217 16.3958L183.216 16.395C182.852 15.693 182.494 15.0036 182.15 14.3145C181.773 13.5603 181.382 12.8061 180.992 12.0519L180.989 12.0463L180.989 12.0458L180.988 12.0452C180.597 11.2892 180.205 10.5331 179.827 9.77708C179.449 9.02084 179.057 8.2646 178.666 7.50836C178.274 6.75213 177.883 5.99589 177.504 5.23965C177.396 5.02327 177.287 4.80562 177.176 4.58645C177.054 4.34424 176.931 4.10021 176.806 3.85409L176.798 3.83897C176.306 2.86728 175.798 1.86316 175.29 0.810275L175.128 0.43214C175.087 0.310604 174.956 0.280203 174.824 0.249836L174.823 0.249637C174.779 0.239558 174.736 0.22948 174.696 0.216087C174.62 0.216087 174.545 0.20445 174.465 0.191952C174.433 0.187145 174.402 0.182205 174.368 0.177763C174.303 0.168911 174.232 0.162048 174.155 0.162048C174.08 0.162048 174.006 0.155551 173.933 0.14703C173.893 0.142422 173.855 0.137217 173.817 0.132145H173.816C173.723 0.11968 173.636 0.108043 173.561 0.108043C173.435 0.108043 173.327 0.0895112 173.237 0.0741617C173.174 0.0632877 173.12 0.0540051 173.075 0.0540051C172.751 0.0540051 172.481 0.108043 172.265 0.162048L172.256 0.166425L172.245 0.171431C172.238 0.174248 172.232 0.177232 172.224 0.180348L172.207 0.187874C172.06 0.249968 171.779 0.368852 171.779 0.648194V1.02633L171.887 0.972324C171.914 1.02736 171.942 1.08242 171.976 1.14462C172.01 1.20449 172.05 1.27099 172.103 1.35043C172.318 1.72664 172.586 2.26327 172.908 2.90709L172.913 2.91584L172.913 2.91674C173.071 3.25977 173.255 3.61585 173.453 3.99727C173.659 4.39652 173.88 4.82409 174.101 5.29366L175.56 8.15656C175.83 8.66966 176.086 9.18275 176.343 9.69585C176.6 10.2091 176.856 10.7223 177.126 11.2355C177.667 12.2618 178.207 13.2882 178.693 14.3145L182.582 21.8229C182.474 21.9984 182.373 22.1672 182.277 22.3276C181.988 22.8086 181.745 23.2138 181.502 23.4974C181.178 23.9295 180.908 24.2536 180.691 24.4697C180.505 24.6563 180.344 24.7656 180.245 24.8331L180.244 24.8337L180.214 24.8538C180.203 24.8611 180.194 24.8679 180.185 24.8741C180.171 24.8847 180.159 24.8939 180.151 24.9018L179.989 24.9558V25.1179C179.989 25.1969 180.018 25.2759 180.055 25.3761L180.069 25.4144C180.075 25.4325 180.082 25.4511 180.089 25.4706L180.097 25.496C180.124 25.55 180.165 25.6176 180.205 25.6851C180.246 25.7526 180.286 25.8201 180.313 25.8741C180.421 26.0362 180.529 26.1442 180.691 26.2522C180.854 26.3603 181.07 26.4683 181.232 26.4683C181.556 26.4683 181.772 26.3062 181.826 26.1982C181.88 26.1443 181.92 26.0903 181.961 26.0364C182.001 25.9824 182.042 25.9281 182.096 25.8741L194.952 0.486145L195.002 0.43582C195.004 0.44686 195.005 0.457435 195.005 0.467348C195.006 0.473912 195.006 0.480178 195.006 0.486145V0.43214L195.002 0.43582C194.986 0.321445 194.907 0.154589 194.628 0.108043Z" fill="white"/>
<path d="M130.132 26.8464C131.087 26.8464 131.86 26.0726 131.86 25.1179C131.86 24.1632 131.087 23.3893 130.132 23.3893C129.177 23.3893 128.403 24.1632 128.403 25.1179C128.403 26.0726 129.177 26.8464 130.132 26.8464Z" fill="white"/>
<path fill-rule="evenodd" clip-rule="evenodd" d="M143.204 42.4573V41.9699C143.749 41.9577 144.203 41.8532 144.608 41.7011C145.04 41.539 145.365 41.3229 145.581 40.9988C145.797 40.6747 145.905 40.2966 145.905 39.8645C145.905 39.4323 145.797 39.0542 145.581 38.7301C145.365 38.406 145.04 38.1359 144.608 37.9739C144.203 37.8218 143.749 37.7173 143.204 37.705V37.2177H142.718V37.7087C142.22 37.7314 141.8 37.8319 141.421 37.9739C140.989 38.1899 140.665 38.406 140.449 38.7301C140.233 39.0542 140.125 39.4323 140.125 39.8645C140.125 40.2966 140.233 40.6747 140.449 40.9988C140.665 41.2689 140.989 41.539 141.421 41.7011C141.8 41.843 142.22 41.9436 142.718 41.9663V42.4573H143.204ZM141.691 38.298C141.967 38.1604 142.32 38.1007 142.718 38.0858V41.5332C142.34 41.5167 141.998 41.4646 141.691 41.3769C141.367 41.2149 141.097 41.0529 140.881 40.7828C140.719 40.5127 140.611 40.1886 140.611 39.8105C140.611 39.4324 140.719 39.1623 140.881 38.8922C141.097 38.6221 141.367 38.406 141.691 38.298ZM143.204 41.5358V38.0841C143.624 38.0955 143.997 38.1542 144.284 38.298C144.662 38.46 144.932 38.6221 145.094 38.8922C145.257 39.1083 145.365 39.4324 145.365 39.8105C145.365 40.1346 145.257 40.4587 145.094 40.7288C144.878 40.9988 144.608 41.1609 144.284 41.3229C144.005 41.4628 143.644 41.5222 143.204 41.5358Z" fill="white"/>
<path d="M0.924145 42.2953V37.3797H1.41029V41.431L4.54325 37.3797H5.02939V42.2953H4.54325V38.244L1.41029 42.2953H0.924145Z" fill="white"/>
<path d="M12.9699 37.3797H12.4837V39.5944H9.40477V37.3797H8.86458V42.2953H9.40477V40.0266H12.4837V42.2953H12.9699V37.3797Z" fill="white"/>
<path d="M17.7773 37.8659V42.2953H18.2635V37.8659H19.992V37.4337H16.0488V37.8659H17.7773Z" fill="white"/>
<path d="M23.6111 40.0266V41.8631H26.582V42.2953H23.125V37.3797H26.474V37.8118H23.6111V39.5944H26.1499V40.0266H23.6111Z" fill="white"/>
<path fill-rule="evenodd" clip-rule="evenodd" d="M31.7676 37.3797H29.931V42.3493H30.4172V40.8368H31.7676C32.1998 40.8368 32.5238 40.7828 32.8479 40.6207C33.172 40.4587 33.3881 40.2966 33.5502 40.0266C33.7122 39.7565 33.8202 39.4324 33.8202 39.1083C33.8202 38.7301 33.7122 38.46 33.5502 38.19C33.3881 37.9199 33.172 37.7038 32.8479 37.5958C32.5238 37.4337 32.1998 37.3797 31.7676 37.3797ZM30.4172 40.2966H31.7136C32.1998 40.2966 32.5779 40.1886 32.8479 39.9725C33.118 39.7565 33.2261 39.4324 33.2261 39.0542C33.2261 38.6761 33.118 38.352 32.8479 38.1359C32.5779 37.9199 32.1998 37.8118 31.7136 37.8118H30.4172V40.2966Z" fill="white"/>
<path d="M41.0585 37.3797H40.5723V39.5944H37.4934V37.3797H36.9532V42.2953H37.4934V40.0266H40.5723V42.2953H41.0585V37.3797Z" fill="white"/>
<path d="M45.4338 40.0266V41.8631H48.4048V42.2953H44.9477V37.3797H48.2967V37.8118H45.4338V39.5944H47.9726V40.0266H45.4338Z" fill="white"/>
<path d="M52.6721 37.8659V42.2953H53.1582V37.8659H54.8868V37.4337H50.9436V37.8659H52.6721Z" fill="white"/>
<path d="M57.3715 40.1886V40.6207H59.2081V40.1886H57.3715Z" fill="white"/>
<path d="M62.6111 37.3797V42.2953H63.0973V38.3748L65.0419 41.7011H65.312L67.2566 38.3748V42.2953H67.7427V37.3797H67.3106L65.2026 41.0301L63.0433 37.3797H62.6111Z" fill="white"/>
<path fill-rule="evenodd" clip-rule="evenodd" d="M73.0903 37.3797L70.8216 42.2953H71.4158L71.9954 40.9988H74.7255L75.305 42.2953H75.8452L73.5765 37.3797H73.0903ZM74.5322 40.5667L73.3604 37.9455L72.1886 40.5667H74.5322Z" fill="white"/>
<path d="M78.9241 37.3797V42.2953H79.4103V37.8118H82.0571V37.3797H78.9241Z" fill="white"/>
<path fill-rule="evenodd" clip-rule="evenodd" d="M85.7302 37.3797L83.4615 42.2953H84.0557L84.6353 40.9988H87.3653L87.9449 42.2953H88.4851L86.2164 37.3797H85.7302ZM87.1722 40.5667L86.0003 37.9455L84.8285 40.5667H87.1722Z" fill="white"/>
<path d="M91.2399 41.3229L91.0239 41.701C91.2009 41.878 91.4141 41.9825 91.7823 42.163C91.8636 42.2028 91.9525 42.2464 92.0502 42.2952C92.1402 42.3132 92.2303 42.3372 92.3203 42.3612C92.5002 42.4092 92.6805 42.4573 92.8605 42.4573C93.1305 42.4573 93.4006 42.4573 93.6707 42.4033C93.9408 42.3492 94.1568 42.2412 94.3729 42.1332C94.589 41.9711 94.751 41.8091 94.8591 41.647C94.9671 41.431 95.0211 41.2149 95.0211 40.9988C95.0211 40.7828 94.9671 40.5127 94.805 40.3506C94.697 40.1886 94.4809 40.0265 94.2649 39.9185C94.2109 39.8969 94.1569 39.8775 94.1024 39.8602C94.0539 39.8447 94.0049 39.831 93.9553 39.819C94.0067 39.8007 94.056 39.7798 94.1028 39.7564C94.3189 39.6484 94.4809 39.4863 94.589 39.3243C94.697 39.1622 94.751 38.9462 94.751 38.7301C94.751 38.46 94.697 38.244 94.535 38.0819C94.3729 37.9199 94.1568 37.7578 93.9408 37.6498C93.6707 37.5417 93.4547 37.4877 93.1305 37.4337C92.8298 37.3836 92.5756 37.4265 92.2816 37.476L92.2123 37.4877L92.2117 37.4879C91.8878 37.5959 91.5639 37.7039 91.294 37.8658L91.456 38.298C91.6721 38.1359 91.8882 38.0279 92.1582 37.9739C92.3743 37.8658 92.6444 37.8658 92.8605 37.8658C93.1305 37.8658 93.3466 37.9199 93.5087 37.9739C93.554 38.0041 93.5994 38.0301 93.6435 38.0554C93.7572 38.1206 93.863 38.1813 93.9408 38.298C94.0488 38.46 94.1028 38.6221 94.1028 38.7841C94.1028 39.0002 94.0488 39.2162 93.8327 39.3783C93.6167 39.5404 93.3466 39.5944 93.0225 39.5944H91.9962V40.0265H93.0225C93.4006 40.0265 93.7247 40.0805 93.9408 40.2426C94.1568 40.4046 94.2649 40.6207 94.2649 40.8908C94.2649 41.1609 94.2109 41.3229 94.0488 41.485C93.9408 41.593 93.7247 41.755 93.5087 41.8091C93.2926 41.8631 93.0225 41.9171 92.7524 41.9171C92.4823 41.9171 92.2123 41.8631 91.9422 41.755C91.6721 41.647 91.456 41.485 91.2399 41.3229Z" fill="white"/>
<path d="M98.2081 37.3797V42.2953H98.6942L101.827 38.244V42.2953H102.313V37.3797H101.827L98.6942 41.431V37.3797H98.2081Z" fill="white"/>
<path d="M110.254 37.3797H109.768V39.5944H106.689V37.3797H106.149V42.2953H106.689V40.0266H109.768V42.2953H110.254V37.3797Z" fill="white"/>
<path d="M118.086 37.3797V42.2953H118.572V37.8659H121.705V42.2953H122.191V37.3797H118.086Z" fill="white"/>
<path fill-rule="evenodd" clip-rule="evenodd" d="M127.593 37.3797L125.324 42.2953H125.919L126.498 40.9988H129.228L129.808 42.2953H130.348L128.079 37.3797H127.593ZM129.035 40.5667L127.863 37.9455L126.691 40.5667H129.035Z" fill="white"/>
<path fill-rule="evenodd" clip-rule="evenodd" d="M135.263 37.3797H133.427V42.3493H133.913V40.8368H135.263C135.696 40.8368 136.02 40.7828 136.344 40.6207C136.668 40.4587 136.884 40.2966 137.046 40.0266C137.208 39.7565 137.316 39.4324 137.316 39.1083C137.316 38.7301 137.208 38.46 137.046 38.19C136.884 37.9199 136.668 37.7038 136.344 37.5958C136.02 37.4337 135.696 37.3797 135.263 37.3797ZM133.967 40.2966H135.263C135.75 40.2966 136.128 40.1886 136.398 39.9725C136.668 39.7565 136.776 39.4324 136.776 39.0542C136.776 38.6761 136.668 38.352 136.398 38.1359C136.128 37.9199 135.75 37.8118 135.263 37.8118H133.967V40.2966Z" fill="white"/>
<path fill-rule="evenodd" clip-rule="evenodd" d="M149.2 42.2953V37.3797H149.686V39.5404H150.783C150.807 39.3083 150.855 39.0754 150.928 38.8922C151.036 38.5681 151.198 38.298 151.414 38.0819C151.63 37.8661 151.9 37.7041 152.17 37.5422L152.171 37.5418C152.495 37.4337 152.819 37.3797 153.143 37.3797C153.467 37.3797 153.791 37.4337 154.115 37.5418C154.439 37.6498 154.655 37.8118 154.872 38.0819C155.088 38.298 155.25 38.5681 155.358 38.8922C155.466 39.2162 155.574 39.5405 155.574 39.8645C155.574 40.1886 155.52 40.5667 155.358 40.8368C155.25 41.1609 155.088 41.431 154.872 41.647C154.655 41.8631 154.385 42.0252 154.115 42.1872C153.845 42.2953 153.521 42.3493 153.143 42.3493C152.819 42.3493 152.495 42.2953 152.171 42.1872C151.901 42.0792 151.63 41.8631 151.414 41.647C151.198 41.431 151.036 41.1609 150.928 40.8368C150.838 40.5667 150.786 40.2966 150.771 40.0266H149.686V42.2953H149.2ZM153.143 41.8631C153.413 41.8631 153.683 41.8091 153.899 41.7011C154.115 41.593 154.331 41.431 154.493 41.2689C154.655 41.1069 154.817 40.8908 154.926 40.6207C155.034 40.3507 155.088 40.0806 155.088 39.8105C155.088 39.5404 155.034 39.2163 154.926 39.0002C154.817 38.7301 154.709 38.5141 154.493 38.352C154.331 38.19 154.115 38.0279 153.899 37.9199C153.683 37.8118 153.413 37.7578 153.143 37.7578C152.873 37.7578 152.603 37.8118 152.387 37.9199C152.171 38.0279 151.955 38.1359 151.793 38.352C151.631 38.5141 151.468 38.7301 151.36 39.0002C151.252 39.2163 151.198 39.5404 151.198 39.8105C151.198 40.0806 151.252 40.4047 151.36 40.6207C151.468 40.8367 151.577 41.053 151.793 41.2689C151.955 41.431 152.171 41.593 152.387 41.7011C152.657 41.8091 152.873 41.8631 153.143 41.8631Z" fill="white"/>
<path d="M159.031 42.2953V37.3797H159.463L161.622 41.0301L163.73 37.3797H164.162V42.2953H163.676V38.3748L161.732 41.7011H161.462L159.517 38.3747V42.2953H159.031Z" fill="white"/>
<path d="M168.484 41.8631V40.0266H171.022V39.5944H168.484V37.8118H171.347V37.3797H167.998V42.2953H171.455V41.8631H168.484Z" fill="white"/>
<path fill-rule="evenodd" clip-rule="evenodd" d="M175.236 42.3493H174.75V37.3797H176.586C177.018 37.3797 177.342 37.4337 177.667 37.5958C177.991 37.7038 178.207 37.9199 178.369 38.19C178.531 38.46 178.639 38.7301 178.639 39.1083C178.639 39.4324 178.531 39.7565 178.369 40.0266C178.207 40.2966 177.991 40.4587 177.667 40.6207C177.342 40.7828 177.018 40.8368 176.586 40.8368H175.236V42.3493ZM176.532 40.2966H175.236V37.8118H176.532C177.018 37.8118 177.396 37.9199 177.667 38.1359C177.937 38.352 178.045 38.6761 178.045 39.0542C178.045 39.4324 177.937 39.7565 177.667 39.9725C177.396 40.1886 177.018 40.2966 176.532 40.2966Z" fill="white"/>
<path d="M181.826 42.2953V37.3797H182.312V41.431L185.445 37.3797H185.931V42.2953H185.445V38.244L182.312 42.2953H181.826Z" fill="white"/>
<path d="M189.766 42.2953V37.3797H190.252V41.431L193.385 37.3797H193.872V42.2953H193.385V38.244L190.252 42.2953H189.766Z" fill="white"/>
</svg>
