<svg width="191" height="150" viewBox="0 0 191 150" fill="none" xmlns="http://www.w3.org/2000/svg">
<path d="M70.3887 92.8359L89.4931 76.1195L152.627 78.0598V91.4927C152.03 93.3832 150.717 97.0449 150.239 96.5673C149.642 95.9703 144.419 103.582 145.016 105.373C145.613 107.164 77.5529 101.791 75.7618 101.791C74.329 101.791 71.5827 95.821 70.3887 92.8359Z" fill="#3361AD"/>
<path fill-rule="evenodd" clip-rule="evenodd" d="M153.97 95.0747L154.961 80.0991C155.072 78.4109 153.766 76.9644 152.076 76.9032L92.24 74.7372C90.2783 74.6662 88.359 75.3189 86.8473 76.5711L72.2411 88.6703C70.3209 90.2609 69.2521 92.6558 69.3507 95.1473L71.0017 136.893C71.1624 140.959 74.349 144.256 78.4066 144.556L143.867 149.387C148.401 149.721 152.303 146.214 152.451 141.669L153.97 95.0747ZM150.82 94.9305L151.881 78.3583L90.6869 76.1195L72.2332 91.3332L150.82 94.9305Z" fill="#ACDEF2"/>
<mask id="mask0_98_7939" style="mask-type:alpha" maskUnits="userSpaceOnUse" x="69" y="74" width="86" height="76">
<path fill-rule="evenodd" clip-rule="evenodd" d="M153.97 95.0745L154.961 80.099C155.072 78.4107 153.766 76.9642 152.076 76.903L92.24 74.737C90.2783 74.666 88.359 75.3187 86.8473 76.571L72.2411 88.6702C70.3209 90.2608 69.2521 92.6557 69.3507 95.1471L71.0017 136.893C71.1624 140.959 74.349 144.256 78.4066 144.555L143.867 149.386C148.401 149.721 152.303 146.214 152.451 141.669L153.97 95.0745ZM150.538 96.8656L151.881 78.3581L90.6869 76.1193L70.5376 93.2835L150.538 96.8656Z" fill="#ACDEF2"/>
</mask>
<g mask="url(#mask0_98_7939)">
<rect width="3.54605" height="61.4032" transform="matrix(0.999617 -0.0276662 0.0222085 0.999753 73.332 91.1998)" fill="#4B74B9"/>
<rect width="3.54605" height="61.4032" transform="matrix(0.999898 -0.014314 0.00885491 0.999961 80.9326 90.7273)" fill="#4B74B9"/>
<rect width="3.54605" height="61.4032" transform="matrix(1 -0.000380337 -0.00507912 0.999987 88.5557 90.3871)" fill="#4B74B9"/>
<rect width="3.54605" height="61.4032" transform="matrix(1 -0.00089598 -0.00456349 0.99999 95.7256 90.588)" fill="#4B74B9"/>
<rect width="3.54605" height="61.4032" transform="matrix(0.999991 -0.0042528 -0.00120667 0.999999 102.811 90.7558)" fill="#4B74B9"/>
<rect width="3.54605" height="61.4032" transform="matrix(0.999997 0.00228379 -0.0077432 0.99997 110.201 90.7861)" fill="#4B74B9"/>
<rect width="3.54605" height="61.4032" transform="matrix(0.999998 -0.00174947 -0.00371001 0.999993 117.262 91.0555)" fill="#4B74B9"/>
<rect width="3.54605" height="61.4032" transform="matrix(0.999998 -0.00174947 -0.00371001 0.999993 124.449 91.2323)" fill="#4B74B9"/>
<rect width="3.54605" height="61.4032" transform="matrix(0.999998 -0.00174947 -0.00371001 0.999993 131.636 91.4091)" fill="#4B74B9"/>
<rect width="3.54605" height="61.4032" transform="matrix(0.999998 -0.00174947 -0.00371001 0.999993 138.823 91.585)" fill="#4B74B9"/>
<rect width="3.54605" height="61.4032" transform="matrix(0.999998 -0.00174947 -0.00371001 0.999993 146.01 91.7617)" fill="#4B74B9"/>
<path d="M152.329 94.4775L153.225 87.9103L155.911 134.478L154.419 143.731L152.329 94.4775Z" fill="#4B74B9"/>
<path d="M153.523 84.3282L154.153 79.7064L157.702 117.164L156.806 125.373L153.523 84.3282Z" fill="#4B74B9"/>
</g>
<path d="M89.4931 48.0601L82.9259 12.2392L37.5528 61.7914L33.9707 104.776L89.4931 48.0601Z" fill="#4B74B9"/>
<path d="M88.7467 47.9108L82.9258 12.2392L94.8661 21.1944L104.12 59.1048L88.7467 47.9108Z" fill="#3361AD"/>
<path d="M104.119 59.104L88.7462 47.9099L34.2686 104.477L49.1939 112.238L104.119 59.104Z" fill="#5988D7"/>
<path d="M66.5075 71.0443L81.4329 81.3429L70.2388 92.2384L55.612 82.3876L56.3583 65.3727L35.3135 86.119L35.9105 77.1638L58.7463 54.6264V38.6563L63.0747 33.8802L64.1194 48.3578L85.015 24.7757L98.4478 34.6264L100.09 41.9399L86.5075 33.8802L65.9105 55.6712L66.5075 71.0443Z" fill="#F16562"/>
<path d="M59.8727 56.1821C59.8727 56.1821 49.0194 39.9478 52.4112 27.2823C55.8051 14.6203 55.3434 10.5509 60.0259 4.97762C64.7156 -0.599833 69.9483 3.00927 72.1378 9.22711C74.3288 15.445 73.3283 44.8894 66.4462 54.3313C59.5707 63.7697 62.1276 58.5125 62.1276 58.5125C62.1276 58.5125 69.0682 13.2374 63.8623 7.86048C63.8623 7.86048 60.5476 5.51792 56.479 16.4004C52.4105 27.283 61.726 50.9111 61.1761 52.1387C60.6261 53.3676 59.8727 56.1821 59.8727 56.1821Z" fill="#F16460"/>
<path d="M59.2335 58.9397C59.2335 58.9397 40.3987 78.9287 15.4822 67.3992C15.4822 67.3992 6.82709 57.7936 14.5891 51.771C22.3522 45.7501 50.737 48.639 58.8709 55.0429C67.0009 61.4482 60.192 57.16 60.192 57.16C60.192 57.16 25.2998 53.3276 19.4584 55.7946C13.6192 58.2614 15.1455 62.61 16.7597 64.2496C18.378 65.8879 23.2789 69.0131 30.1575 66.7812C37.0324 64.5493 54.3263 58.1768 59.2335 58.9397Z" fill="#F16460"/>
<path d="M159.94 75.1704C155.641 61.3196 140.238 77.7574 133.074 87.7077C157.403 57.5585 158 86.8121 158.298 89.4987C158.597 92.1852 159.194 105.32 160.686 106.514C162.179 107.708 166.358 108.358 168.746 105.32C171.134 102.281 186.109 90.5932 190.388 89.4987V85.3196C181.582 85.3196 167.104 103.827 165.91 104.424C164.716 105.021 165.313 92.4838 159.94 75.1704Z" fill="#F16562"/>
<path d="M42.4003 99.3217C29.5668 92.5673 30.2986 115.082 32.2686 127.184C28.1527 88.6624 49.2603 108.926 51.371 110.614C53.4818 112.303 63.1913 121.168 65.091 120.957C66.9907 120.746 70.4055 118.251 69.9458 114.414C69.486 110.577 71.8103 91.7229 74.0618 87.9235L71.1067 84.9685C64.8799 91.1952 67.7295 114.519 67.3073 115.786C66.8851 117.052 58.4421 107.765 42.4003 99.3217Z" fill="#F16562"/>
<path d="M109.492 13.1342L111.819 17.6118H107.166L109.492 13.1342Z" fill="#F16562"/>
<path d="M111.296 45.2837L113.105 48.8657H109.486L111.296 45.2837Z" fill="#F16562"/>
<path d="M125.026 18.4184L122.7 16.1796L127.353 16.1796L125.026 18.4184Z" fill="#F16562"/>
<path d="M101.485 37.9898L101.141 29.7853L105.886 31.0566L101.485 37.9898Z" fill="#F16562"/>
<path d="M143.921 20.8049L140.946 16.8713L146.63 16.6833L143.921 20.8049Z" fill="#F16562"/>
<path d="M157.858 15.8893L160.962 18.6585L159.245 19.8113L157.858 15.8893Z" fill="#F16562"/>
<path d="M132.175 46.7153L130.748 43.5516L134.993 44.689L132.175 46.7153Z" fill="#F16562"/>
<path d="M137.925 30.6206L136.983 25.6464L141.228 26.7839L137.925 30.6206Z" fill="#F16562"/>
<path d="M142.973 59.478L138.259 53.8538L141.394 52.3112L142.973 59.478Z" fill="#F16562"/>
<path d="M152.738 65.5635L153.677 59.4546L158.142 62.5645L152.738 65.5635Z" fill="#F16562"/>
<path d="M110.303 68.3051L110.113 63.8158L114.579 66.9257L110.303 68.3051Z" fill="#F16562"/>
<path d="M97.7858 54.8854L95.2878 51.9265L99.6202 51.4751L97.7858 54.8854Z" fill="#F16562"/>
<path d="M91.0705 67.4976L87.7115 65.5708L91.6286 63.6657L91.0705 67.4976Z" fill="#F16562"/>
<path d="M93.6986 82.0464L92.2562 74.0058L98.5005 75.4378L93.6986 82.0464Z" fill="#F16562"/>
<path d="M86.299 83.6384L84.6447 81.0008L88.9373 81.9852L86.299 83.6384Z" fill="#F16562"/>
<path d="M127.197 83.4521L123.426 81.3235L127.24 79.1214L127.197 83.4521Z" fill="#F16562"/>
<path d="M123.144 69.2235L119.823 67.8755L123.637 65.6734L123.144 69.2235Z" fill="#F16562"/>
<path d="M111.72 83.0543L110.523 79.8128L113.827 80.3157L111.72 83.0543Z" fill="#F16562"/>
</svg>
