<svg width="67" height="66" viewBox="0 0 67 66" fill="none" xmlns="http://www.w3.org/2000/svg">
<g id="Blogger">
<g id="Group">
<g id="Group_2">
<path id="Vector" d="M61.9463 26.7517H58.9239C56.4254 26.7517 54.3929 24.767 54.3929 22.3189V20.8413C54.3929 9.4167 44.9202 0.159668 33.2386 0.159668H21.149C9.46479 0.159668 0 9.41927 0 20.8413V44.4807C0 55.9052 9.46742 65.1597 21.149 65.1597H45.323C57.0099 65.1597 66.4773 55.9026 66.4773 44.4807V31.182C66.4773 28.7365 64.4474 26.7517 61.9463 26.7517ZM21.149 17.8886H36.261C37.9276 17.8886 39.2782 19.2143 39.2782 20.8413C39.2782 22.4682 37.925 23.7939 36.261 23.7939H21.149C19.4825 23.7939 18.1318 22.4682 18.1318 20.8413C18.1318 19.2143 19.4825 17.8886 21.149 17.8886ZM45.323 47.4308H21.149C19.4825 47.4308 18.1318 46.1076 18.1318 44.4807C18.1318 42.8537 19.4851 41.5254 21.149 41.5254H45.323C46.9948 41.5254 48.3454 42.8537 48.3454 44.4807C48.3454 46.1076 46.9948 47.4308 45.323 47.4308Z" fill="#EAAB51"/>
</g>
</g>
</g>
</svg>
