<svg width="71" height="78" viewBox="0 0 71 78" fill="none" xmlns="http://www.w3.org/2000/svg">
<g id="&#208;&#148;&#209;&#131;&#209;&#133;&#208;&#184;">
<g id="Ellipse 6">
<ellipse cx="29.6384" cy="47.061" rx="29.6384" ry="29.7172" fill="url(#paint0_linear_1953_82090)"/>
<ellipse cx="29.6384" cy="47.061" rx="29.6384" ry="29.7172" fill="url(#paint1_radial_1953_82090)"/>
<ellipse cx="29.6384" cy="47.061" rx="29.6384" ry="29.7172" fill="url(#paint2_radial_1953_82090)" fill-opacity="0.35"/>
</g>
<g id="Union">
<path fill-rule="evenodd" clip-rule="evenodd" d="M33.1127 7.98909C35.438 7.28273 37.016 5.90762 37.016 4.32698C37.016 2.02544 33.6705 0.159668 29.5436 0.159668C25.4167 0.159668 22.0711 2.02544 22.0711 4.32698C22.0711 5.9247 23.6834 7.31241 26.05 8.01174C26.1436 8.22312 26.2248 8.43857 26.2934 8.65701C23.0286 8.95068 22.7017 9.59815 22.7017 9.59815C24.9661 12.0172 24.9932 15.7696 22.764 18.221L22.7017 18.2895C22.7017 18.2895 25.7116 17.3436 29.6384 17.3436C30.7618 17.3436 31.823 17.421 32.7658 17.5316C46.8015 19.6869 57.5425 31.6634 57.5425 46.1149C57.5425 62.092 44.4141 75.0439 28.2194 75.0439C19.6695 75.0439 11.9742 71.4338 6.61426 65.6744C12.2627 73.0843 21.2851 77.8816 31.4513 77.8816C48.5602 77.8816 62.4297 64.2944 62.4297 47.5338C62.4297 34.2186 53.6764 22.9063 41.4995 18.8181L41.3423 18.7549C40.5901 18.4528 39.7152 18.1013 38.388 17.6589C36.1726 16.9205 35.2233 15.3364 35.2224 13.3389C35.3392 12.0051 35.843 10.6987 36.7327 9.59815C36.7327 9.59815 36.7327 8.85548 32.9038 8.60016C32.9636 8.39406 33.0332 8.19012 33.1127 7.98909ZM70.4425 19.2793C68.4651 22.8486 61.8115 22.944 55.5811 19.4924C49.3507 16.0409 45.903 10.3493 47.8803 6.78007C49.8576 3.21079 56.5113 3.11536 62.7417 6.56692C68.972 10.0185 72.4198 15.71 70.4425 19.2793Z" fill="#7F203B"/>
<path fill-rule="evenodd" clip-rule="evenodd" d="M33.1127 7.98909C35.438 7.28273 37.016 5.90762 37.016 4.32698C37.016 2.02544 33.6705 0.159668 29.5436 0.159668C25.4167 0.159668 22.0711 2.02544 22.0711 4.32698C22.0711 5.9247 23.6834 7.31241 26.05 8.01174C26.1436 8.22312 26.2248 8.43857 26.2934 8.65701C23.0286 8.95068 22.7017 9.59815 22.7017 9.59815C24.9661 12.0172 24.9932 15.7696 22.764 18.221L22.7017 18.2895C22.7017 18.2895 25.7116 17.3436 29.6384 17.3436C30.7618 17.3436 31.823 17.421 32.7658 17.5316C46.8015 19.6869 57.5425 31.6634 57.5425 46.1149C57.5425 62.092 44.4141 75.0439 28.2194 75.0439C19.6695 75.0439 11.9742 71.4338 6.61426 65.6744C12.2627 73.0843 21.2851 77.8816 31.4513 77.8816C48.5602 77.8816 62.4297 64.2944 62.4297 47.5338C62.4297 34.2186 53.6764 22.9063 41.4995 18.8181L41.3423 18.7549C40.5901 18.4528 39.7152 18.1013 38.388 17.6589C36.1726 16.9205 35.2233 15.3364 35.2224 13.3389C35.3392 12.0051 35.843 10.6987 36.7327 9.59815C36.7327 9.59815 36.7327 8.85548 32.9038 8.60016C32.9636 8.39406 33.0332 8.19012 33.1127 7.98909ZM70.4425 19.2793C68.4651 22.8486 61.8115 22.944 55.5811 19.4924C49.3507 16.0409 45.903 10.3493 47.8803 6.78007C49.8576 3.21079 56.5113 3.11536 62.7417 6.56692C68.972 10.0185 72.4198 15.71 70.4425 19.2793Z" fill="url(#paint3_linear_1953_82090)"/>
</g>
</g>
<defs>
<linearGradient id="paint0_linear_1953_82090" x1="29.9571" y1="20.5391" x2="29.9571" y2="74.2219" gradientUnits="userSpaceOnUse">
<stop stop-color="#FFEEE7"/>
<stop offset="0.644966" stop-color="#F18D8B"/>
<stop offset="1" stop-color="#D76C80"/>
</linearGradient>
<radialGradient id="paint1_radial_1953_82090" cx="0" cy="0" r="1" gradientUnits="userSpaceOnUse" gradientTransform="translate(21.3026 25.6035) rotate(41.6667) scale(13.2787 14.4532)">
<stop stop-color="white"/>
<stop offset="1" stop-color="white" stop-opacity="0"/>
</radialGradient>
<radialGradient id="paint2_radial_1953_82090" cx="0" cy="0" r="1" gradientUnits="userSpaceOnUse" gradientTransform="translate(49.0202 68.606) rotate(-134.424) scale(30.1677 25.5804)">
<stop stop-color="#B43346"/>
<stop offset="1" stop-color="#C2475A" stop-opacity="0"/>
</radialGradient>
<linearGradient id="paint3_linear_1953_82090" x1="61.7471" y1="8.82389" x2="-3.75486" y2="44.5557" gradientUnits="userSpaceOnUse">
<stop stop-color="#A72A4D"/>
<stop offset="1" stop-color="#7F203B" stop-opacity="0"/>
</linearGradient>
</defs>
</svg>
