<svg width="66" height="66" viewBox="0 0 66 66" fill="none" xmlns="http://www.w3.org/2000/svg">
<g id="Group">
<g id="Group_2">
<g id="Group_3">
<path id="Vector" d="M32.5006 65.1597C50.4502 65.1597 65.0012 50.6089 65.0012 32.6597C65.0012 14.7104 50.4502 0.159668 32.5006 0.159668C14.551 0.159668 0 14.7104 0 32.6597C0 50.6089 14.551 65.1597 32.5006 65.1597Z" fill="#AF4F4A"/>
<path id="Vector_2" d="M32.5006 54.1905C44.392 54.1905 54.0319 44.5508 54.0319 32.6596C54.0319 20.7684 44.392 11.1287 32.5006 11.1287C20.6091 11.1287 10.9692 20.7684 10.9692 32.6596C10.9692 44.5508 20.6091 54.1905 32.5006 54.1905Z" fill="white"/>
<path id="Vector_3" d="M32.5006 42.5126C37.9424 42.5126 42.3538 38.1013 42.3538 32.6596C42.3538 27.2179 37.9424 22.8066 32.5006 22.8066C27.0589 22.8066 22.6475 27.2179 22.6475 32.6596C22.6475 38.1013 27.0589 42.5126 32.5006 42.5126Z" fill="#AF4F4A"/>
<path id="Vector_4" d="M32.5004 10.1203C34.925 10.1203 36.8905 8.15481 36.8905 5.73029C36.8905 3.30577 34.925 1.3403 32.5004 1.3403C30.0759 1.3403 28.1104 3.30577 28.1104 5.73029C28.1104 8.15481 30.0759 10.1203 32.5004 10.1203Z" fill="white"/>
<path id="Vector_5" d="M34.0749 10.1203H30.9243V26.0668H34.0749V10.1203Z" fill="#AF4F4A"/>
</g>
</g>
</g>
</svg>
