<svg width="113" height="66" viewBox="0 0 113 66" fill="none" xmlns="http://www.w3.org/2000/svg">
<g id="&#208;&#146;&#208;&#154;&#208;&#190;&#208;&#189;&#209;&#130;&#208;&#176;&#208;&#186;&#209;&#130;&#208;&#181;">
<g id="Group">
<g id="Group_2">
<path id="Vector" d="M99.7913 45.0499C108.814 53.4967 110.688 57.6252 110.996 58.1323C114.719 64.3937 106.864 64.8845 106.864 64.8845L91.8189 65.1004C91.8189 65.1004 88.5671 65.7448 84.3208 62.7842C78.6809 58.8912 70.9833 48.7368 66.8515 50.0552C62.6576 51.3932 63.9923 62.0383 63.9923 62.0383C63.9923 62.0383 64.0283 63.3404 63.0796 64.3905C62.0327 65.493 60.0012 65.0677 60.0012 65.0677H55.6666C55.6666 65.0677 39.6072 65.1364 26.5085 51.3605C12.2419 36.348 0.307812 8.26949 0.307812 8.26949C0.307812 8.26949 -0.418441 6.49311 0.360154 5.5444C1.25652 4.47792 3.67736 4.49429 3.67736 4.49429H19.776C19.776 4.49429 21.2808 4.69711 22.3636 5.5117C23.2764 6.17252 23.7703 7.4222 23.7703 7.4222C23.7703 7.4222 25.7168 12.6532 29.1682 18.6758C35.8876 30.4235 39.0184 32.9948 41.3018 31.7255C44.6223 29.8804 43.6212 15.1231 43.6212 15.1231C43.6212 15.1231 43.6899 9.75471 41.943 7.36985C40.5886 5.50842 38.0664 4.96864 36.9541 4.81488C36.0381 4.71347 37.5266 2.58051 39.46 1.6318C42.3552 0.208742 47.4815 0.107329 53.5238 0.176028C58.2281 0.2251 60.0045 0.159668 60.0045 0.159668C65.556 1.51403 63.675 6.76137 63.675 19.2843C63.675 23.3081 62.9487 28.9644 65.8243 30.8258C67.0609 31.6568 71.4936 31.7745 79.0244 18.823C82.6131 12.6826 85.4396 6.90859 85.4396 6.90859C85.4396 6.90859 86.0514 5.60656 86.9478 5.06678C87.8932 4.49101 89.1461 4.49102 89.1461 4.49102L106.092 4.57607C106.092 4.57607 111.186 3.9316 112 6.26739C112.864 8.70459 109.916 12.9705 103.014 22.294C91.6357 37.6238 90.3631 36.1975 99.7913 45.0499Z" fill="#4A85BA"/>
</g>
</g>
</g>
</svg>
