<svg width="84" height="66" viewBox="0 0 84 66" fill="none" xmlns="http://www.w3.org/2000/svg">
<g id="&#208;&#175;&#208;&#189;&#208;&#180;&#208;&#181;&#208;&#186;&#209;&#129;&#208;&#156;&#208;&#176;&#209;&#128;&#208;&#186;&#208;&#181;&#209;&#130;">
<g id="Group">
<g id="Group_2">
<g id="Group_3">
<path id="Vector" d="M10.7841 29.1077V18.2921H7.14023L3.50599 29.1077H0L4.20526 16.8016C2.0131 15.2095 0.917026 12.6085 0.917026 8.98877C0.917026 6.21591 1.50741 4.06247 2.69301 2.51635C3.87861 0.975069 5.53361 0.188703 7.6556 0.159668H14.0578V29.1077H10.7841ZM4.17622 9.20895C4.17622 10.8398 4.47383 12.11 5.06905 13.0247C5.66427 13.9393 6.55226 14.3966 7.7427 14.3966H10.7817V4.21733H7.74512C6.54017 4.21733 5.6425 4.66011 5.05695 5.54811C4.47141 6.4361 4.17622 7.65557 4.17622 9.20895Z" fill="#D24A45"/>
<path id="Vector_2" d="M28.8027 29.1462H25.8677V21.2245H20.7866V29.1462H17.8564V9.52817H20.7866V17.704H25.8677V9.52817H28.8027V29.1462Z" fill="black"/>
<path id="Vector_3" d="M31.0336 24.6848C31.8418 23.3201 32.391 22.0208 32.6644 20.7989C32.9427 19.5697 33.1097 18.0018 33.1653 16.0904L33.3347 8.58478H42.3985V24.6848H44.2083V32.2315L41.2879 32.246V28.2004H32.9137L32.9088 32.246H29.9448L29.9593 24.6848H31.0336ZM34.4695 24.6848H39.478V12.3714H36.185L36.1003 16.1267C35.9866 19.727 35.4421 22.5797 34.4695 24.6848Z" fill="black"/>
<path id="Vector_4" d="M52.0482 29.0349C50.1899 29.0349 48.6825 28.159 47.5308 26.3976C46.3766 24.6385 45.8008 22.2988 45.8008 19.3735V18.8267C45.8008 16.8692 46.0524 15.1198 46.5581 13.581C47.059 12.0373 47.7631 10.8372 48.6704 9.98062C49.5826 9.12408 50.594 8.69339 51.7143 8.69339C53.4903 8.69339 54.8622 9.54751 55.8348 11.2509C56.8027 12.9567 57.2914 15.3666 57.2914 18.4855V20.2615H48.7575C48.8471 21.8802 49.2076 23.1602 49.8391 24.1062C50.4682 25.0474 51.2618 25.5193 52.22 25.5193C53.5677 25.5193 54.6589 24.7014 55.5034 23.0706L57.0809 25.3378C56.5559 26.5089 55.8615 27.4211 54.988 28.0647C54.1194 28.7107 53.1346 29.0349 52.0482 29.0349ZM51.7046 12.2284C50.8964 12.2284 50.248 12.6518 49.752 13.4987C49.256 14.3456 48.9438 15.5239 48.8059 17.0337H54.3879V16.7071C54.3274 15.2336 54.0661 14.1181 53.6088 13.3632C53.1491 12.6083 52.5127 12.2284 51.7046 12.2284Z" fill="black"/>
<path id="Vector_5" d="M64.2038 20.9149H62.7158V28.6746H59.7856V9.05893H62.7158V16.8912H64.0103L67.6155 9.05893H71.2352L66.5194 18.4494L71.632 28.677H67.8235L64.2038 20.9149Z" fill="black"/>
<path id="Vector_6" d="M78.4145 25.5193C79.1476 25.5193 79.7574 25.1974 80.2389 24.5587C80.7204 23.9199 80.9768 23.1263 81.0083 22.1851H83.7739C83.74 23.4069 83.4908 24.5466 83.0141 25.6015C82.5423 26.6613 81.8987 27.4961 81.0857 28.1131C80.2727 28.7301 79.3944 29.0373 78.4532 29.0373C76.624 29.0373 75.1771 28.1518 74.11 26.3709C73.043 24.5974 72.5034 22.1415 72.5034 19.0105V18.5557C72.5034 15.5723 73.0333 13.1817 74.0955 11.384C75.1577 9.59348 76.6046 8.69339 78.4435 8.69339C79.9945 8.69339 81.2551 9.3733 82.2326 10.7331C83.2101 12.0953 83.7207 13.881 83.7739 16.0925H81.0083C80.9744 14.9674 80.7204 14.0431 80.2437 13.3197C79.7622 12.5938 79.1573 12.2308 78.4145 12.2308C77.4636 12.2308 76.7329 12.7486 76.2223 13.7842C75.707 14.8198 75.4432 16.3853 75.4336 18.4879V19.1944C75.4336 21.3213 75.6876 22.9085 76.203 23.9562C76.7135 24.9966 77.4491 25.5193 78.4145 25.5193Z" fill="black"/>
<path id="Vector_7" d="M2.73881 30.8328L8.60391 54.3972L14.4932 30.8328H16.2837V57.5306H14.9408V45.9044L15.0497 33.9831L9.12896 57.5282H8.08853L2.18956 34.0774L2.29844 45.8318V57.5282H0.955566V30.8328H2.73881Z" fill="black"/>
<path id="Vector_8" d="M29.9886 57.5307C29.841 56.9112 29.7515 55.9845 29.7104 54.7602C29.2095 55.7619 28.5659 56.5411 27.7916 57.0855C27.0125 57.625 26.1947 57.8984 25.3237 57.8984C24.0752 57.8984 23.0686 57.3685 22.2992 56.3063C21.5297 55.2441 21.145 53.8964 21.145 52.2705C21.145 50.3372 21.6701 48.8104 22.7178 47.6853C23.7654 46.5602 25.2269 45.9989 27.1045 45.9989H29.6983V43.7414C29.6983 42.3284 29.4104 41.2081 28.8418 40.3951C28.2707 39.5869 27.4384 39.1756 26.3471 39.1756C25.3503 39.1756 24.5228 39.5676 23.8719 40.3515C23.2162 41.1306 22.8944 42.0719 22.8944 43.1728L21.4571 43.1534C21.4571 41.5759 21.9338 40.2136 22.8944 39.0571C23.8501 37.9029 25.0261 37.3222 26.4197 37.3222C27.8667 37.3222 28.999 37.8787 29.8314 38.982C30.6685 40.0926 31.0968 41.6339 31.121 43.6132V53.0036C31.121 54.9223 31.2541 56.3596 31.5178 57.3129V57.5307H29.9886ZM25.4906 55.9579C26.4488 55.9579 27.3005 55.6047 28.0578 54.8957C28.8103 54.1819 29.3571 53.2359 29.7031 52.0503V47.6877H27.1408C25.7132 47.7119 24.5978 48.1136 23.7945 48.8879C22.9863 49.6621 22.5847 50.7316 22.5847 52.0866C22.5847 53.1972 22.8533 54.1239 23.3928 54.857C23.9251 55.5901 24.6292 55.9579 25.4906 55.9579Z" fill="black"/>
<path id="Vector_9" d="M45.3431 47.816C45.3431 50.9107 44.8979 53.3593 44.0051 55.1788C43.1122 56.9935 41.917 57.9009 40.4144 57.9009C38.6481 57.9009 37.2907 56.9451 36.3495 55.0409V65.1596H34.9268V37.6924H36.2551L36.3253 40.4991C37.2568 38.382 38.607 37.3222 40.3805 37.3222C41.9266 37.3222 43.1413 38.2199 44.0196 40.0201C44.9027 41.8154 45.3431 44.31 45.3431 47.5014V47.816ZM43.9059 47.4313C43.9059 44.898 43.5696 42.8994 42.8896 41.4331C42.2146 39.9644 41.2685 39.2313 40.0587 39.2313C39.1804 39.2313 38.4231 39.5579 37.794 40.2039C37.1649 40.85 36.6834 41.7912 36.3471 43.0252V52.5439C36.6882 53.6835 37.1794 54.5473 37.8158 55.1474C38.4521 55.7474 39.2094 56.045 40.0805 56.045C41.2806 56.045 42.2218 55.3119 42.8921 53.8335C43.5696 52.3672 43.9059 50.2307 43.9059 47.4313Z" fill="black"/>
<path id="Vector_10" d="M53.0036 48.4378H51.2929V57.5306H50.0444V37.6924H51.2929V46.4924H52.9842L57.0806 37.6924H58.6412L54.0561 47.3199L59.1469 57.5331H57.5161L53.0036 48.4378Z" fill="black"/>
<path id="Vector_11" d="M66.0283 57.9009C64.9225 57.9009 63.9305 57.4847 63.0425 56.6523C62.1545 55.8248 61.4601 54.6634 60.9689 53.173C60.4729 51.6946 60.2261 50.0251 60.2261 48.1813V47.395C60.2261 45.4859 60.468 43.7656 60.9495 42.2388C61.431 40.712 62.1037 39.5119 62.9626 38.6385C63.8264 37.765 64.758 37.3246 65.7645 37.3246C67.3324 37.3246 68.5809 38.1521 69.498 39.7926C70.4247 41.4379 70.882 43.6809 70.882 46.5312V47.7603H61.6488V48.1862C61.6488 50.4316 62.0698 52.3067 62.9142 53.8045C63.7514 55.3022 64.8088 56.0499 66.0863 56.0499C66.8509 56.0499 67.5284 55.8369 68.114 55.4063C68.6995 54.9804 69.2342 54.2957 69.7109 53.3544L70.6085 54.3997C69.5536 56.7322 68.0268 57.9009 66.0283 57.9009ZM65.7621 39.195C64.6854 39.195 63.778 39.7999 63.0401 41.0097C62.3021 42.2243 61.8545 43.8503 61.6923 45.8924H69.452V45.6504C69.4133 43.7414 69.06 42.1904 68.3898 40.9903C67.7244 39.795 66.8437 39.195 65.7621 39.195Z" fill="black"/>
<path id="Vector_12" d="M83.7738 39.5651H79.0629V57.5331H77.6257V39.5651H73.0938V37.6924H83.7738V39.5651Z" fill="black"/>
</g>
</g>
</g>
</g>
</svg>
