<svg width="87" height="66" viewBox="0 0 87 66" fill="none" xmlns="http://www.w3.org/2000/svg">
<g id="YouTube">
<g id="Group">
<g id="Group_2">
<g id="surface1">
<path id="Vector" d="M84.9292 54.105C84.0657 58.6591 80.3865 62.1246 75.8296 62.7715C68.6764 63.8544 56.761 65.1597 43.3295 65.1597C30.109 65.1597 18.1936 63.8544 10.8295 62.7715C6.27543 62.1246 2.59624 58.6591 1.72987 54.105C0.860661 49.1291 0 41.7536 0 32.6568C0 23.5629 0.863511 16.1902 1.72987 11.2143C2.59909 6.65739 6.27828 3.19194 10.8295 2.54502C17.9827 1.46206 29.8981 0.159668 43.3295 0.159668C56.761 0.159668 68.4655 1.46206 75.8296 2.54502C80.3894 3.19194 84.0685 6.65739 84.9292 11.2143C85.8041 16.1902 86.8842 23.5629 86.8842 32.6568C86.6648 41.7536 85.8013 49.1291 84.9292 54.105Z" fill="#D45645"/>
<path id="Vector_2" d="M34.6602 47.8239V17.4926L60.6596 32.6568L34.6602 47.8239Z" fill="white"/>
</g>
</g>
</g>
</g>
</svg>
