<svg width="190" height="150" viewBox="0 0 190 150" fill="none" xmlns="http://www.w3.org/2000/svg">
<path d="M96.6445 19.3473L82.069 16.0198L45.8251 0L45.7656 150L82.9213 133.142L98.5274 131.588L144.49 139.365V4.17868L96.6445 19.3473Z" fill="#F4D7E8"/>
<path opacity="0.5" d="M81.7344 16.0712L96.645 19.3978L98.5711 131.609L82.6062 133.163L81.7344 16.0712Z" fill="#DDA6C8"/>
<path d="M103.162 44.9086C103.154 44.905 103.145 44.9015 103.138 44.8989C100.608 43.9056 98.2668 43.5989 96.2754 43.6244V123.97C100.038 124.094 102.577 123.013 103.163 122.738V117.398C101.805 79.2492 102.787 54.6113 103.163 47.267V44.9086H103.162Z" fill="#AFBBDF"/>
<path d="M96.2754 40.5615V44.045L100.102 44.388C99.9579 40.7138 98.8061 40.5615 98.8061 40.5615C98.8061 40.5615 97.5549 40.5615 96.2754 40.5615Z" fill="#AFD8F3"/>
<path d="M98.1199 34.4403C98.1199 34.4403 97.1736 34.4403 96.2754 34.4403V40.5618H98.5713C98.5713 40.5618 98.5713 36.199 98.5713 35.2873C98.5704 34.3773 98.1199 34.4403 98.1199 34.4403Z" fill="#969696"/>
<path d="M89.3877 44.9086C89.3969 44.905 89.4052 44.9015 89.4127 44.8989C91.9417 43.9056 94.285 43.5989 96.2755 43.6244V123.97C92.5102 124.094 89.9729 123.013 89.3877 122.738V117.398C90.7471 79.2492 89.7656 54.6113 89.3877 47.267V44.9086Z" fill="#DDE4F3"/>
<path d="M96.2757 40.5615V44.045L92.4492 44.388C92.5924 40.7138 93.7439 40.5615 93.7439 40.5615C93.7439 40.5615 94.9963 40.5615 96.2757 40.5615Z" fill="#D9E9F7"/>
<path d="M95.0445 34.4403C95.0445 34.4403 95.6763 34.4403 96.2757 34.4403V40.5618H94.7451C94.7451 40.5618 94.7451 36.199 94.7451 35.2873C94.7451 34.3773 95.0445 34.4403 95.0445 34.4403Z" fill="#C1C1C0"/>
<path d="M102.62 45.9191C102.62 45.9191 101.314 113.441 103.163 121.684C103.163 121.684 100.117 89.1339 102.62 45.9191Z" fill="#7AA0D4"/>
<path d="M89.9456 102.552C89.9456 102.552 89.3877 120.938 89.3877 121.83C89.3877 122.724 100.086 124.44 102.398 121.83C102.398 121.83 95.5785 123.715 90.4073 120.815C90.4073 120.815 90.0498 118.933 89.9456 102.552Z" fill="#7AA0D4"/>
<path opacity="0.25" d="M101.633 51.9493C101.633 51.9493 98.7952 100.926 99.4525 109.589C100.11 118.247 96.7393 120.233 94.4923 119.096C92.2426 117.963 92.332 100.075 92.5608 93.8286C92.7895 87.5824 94.6386 64.4434 93.9314 58.3378C93.2268 52.2331 100.263 44.7073 101.633 51.9493Z" fill="#AABCD6"/>
<path d="M90.1523 45.919C90.1523 45.919 97.3095 43.099 99.336 45.1144C99.336 45.1144 96.6335 44.5767 90.1523 45.919Z" fill="#BAC5DD"/>
<path d="M90.1523 47.4499C90.1523 47.4499 91.8546 75.0896 91.0117 84.1846C91.0117 84.1846 92.9909 71.9394 90.1523 47.4499Z" fill="#CDD4EC"/>
<path d="M101.52 69.6432C101.52 69.6432 100.875 110.956 101.52 115.514C102.161 120.074 99.7714 105.544 101.52 69.6432Z" fill="#CDD4EC"/>
<path d="M94.7451 40.6493C94.7451 40.6493 93.872 40.2476 93.2271 41.1623C92.5845 42.0769 92.4492 43.6227 92.4492 43.6227C92.4492 43.6227 92.9242 40.2329 94.7451 40.6493Z" fill="#07B3CD"/>
<path d="M99.3369 41.3268C99.3369 41.3268 100.152 42.6288 100.099 43.6228C100.099 43.6236 100.193 43.4941 99.3369 41.3268Z" fill="#07B3CD"/>
<path d="M98.5713 40.5615C98.5713 40.5615 100.024 43.0166 100.102 43.6227C100.103 43.6227 99.6964 42.0934 98.5713 40.5615Z" fill="#07B3CD"/>
<path d="M97.8058 40.5617C97.7963 40.5316 98.4964 43.1066 98.571 43.6227C98.57 43.6227 98.4823 42.6243 97.8058 40.5617Z" fill="#07B3CD"/>
<path d="M96.2751 40.5615C96.2751 40.5615 95.4761 43.2267 95.5109 43.6227C95.5109 43.6237 95.8393 41.3886 96.2751 40.5615Z" fill="#07B3CD"/>
<path d="M95.5104 40.5615C95.5104 40.5615 94.7786 42.879 94.7451 43.6227C94.7451 43.6227 95.0751 41.2581 95.5104 40.5615Z" fill="#07B3CD"/>
<path d="M94.7455 40.5615C94.7455 40.5615 93.5393 41.228 93.2148 43.6227C93.2148 43.6227 93.6147 41.5165 94.7455 40.5615Z" fill="#07B3CD"/>
<path d="M94.7448 40.5615C94.7448 40.5615 94.0437 42.5495 93.9795 43.6227C93.98 43.6227 94.1642 41.7727 94.7448 40.5615Z" fill="#07B3CD"/>
<path d="M97.041 40.5615C97.041 40.5615 98.0056 42.8124 97.7689 43.6227C97.7689 43.6227 98.048 42.2082 97.041 40.5615Z" fill="#07B3CD"/>
<path d="M97.8057 40.5615C97.8057 40.5615 99.1846 42.4268 99.3363 43.6227C99.3363 43.6227 99.1411 42.1427 97.8057 40.5615Z" fill="#07B3CD"/>
<path opacity="0.52" d="M98.5716 35.2047H94.7451V35.97H98.5716V35.2047Z" fill="white"/>
<path opacity="0.56" d="M98.5716 39.7961H94.7451V40.5614H98.5716V39.7961Z" fill="#434343"/>
<path opacity="0.48" d="M93.5969 58.1641C94.6535 58.1641 95.5101 55.5943 95.5101 52.4243C95.5101 49.2543 94.6535 46.6845 93.5969 46.6845C92.5402 46.6845 91.6836 49.2543 91.6836 52.4243C91.6836 55.5943 92.5402 58.1641 93.5969 58.1641Z" fill="white"/>
<path opacity="0.48" d="M99.3369 120.154C100.605 120.154 101.633 118.441 101.633 116.327C101.633 114.214 100.605 112.501 99.3369 112.501C98.0689 112.501 97.041 114.214 97.041 116.327C97.041 118.441 98.0689 120.154 99.3369 120.154Z" fill="white"/>
<path opacity="0.48" d="M94.7455 42.0921C95.5908 42.0921 96.2761 41.7494 96.2761 41.3268C96.2761 40.9041 95.5908 40.5615 94.7455 40.5615C93.9001 40.5615 93.2148 40.9041 93.2148 41.3268C93.2148 41.7494 93.9001 42.0921 94.7455 42.0921Z" fill="white"/>
<path opacity="0.25" d="M95.5104 38.2661C95.9331 38.2661 96.2757 37.9234 96.2757 37.5008C96.2757 37.0781 95.9331 36.7355 95.5104 36.7355C95.0878 36.7355 94.7451 37.0781 94.7451 37.5008C94.7451 37.9234 95.0878 38.2661 95.5104 38.2661Z" fill="white"/>
<path opacity="0.29" d="M82.5 132.892L81.6482 16.0198L45.0594 0L45 150L82.5 133.142L82.479 130.2L82.5 132.892Z" fill="white"/>
<path d="M88.6221 123.287L97.7385 124.745L104.693 123.287V113.265L97.4881 115.819L88.6221 113.265V123.287Z" fill="#EEC5DD"/>
<path d="M88.6221 26.3117V35.0588L96.4723 33.4178L104.693 35.969V26.3117L96.2383 24.4894L88.6221 26.3117Z" fill="#EEC5DD"/>
<path d="M104.694 26.3117V35.969L96.5084 33.4178L96.2754 24.4894L104.694 26.3117Z" fill="#DDA6C8"/>
<path d="M104.693 113.265V123.287L98.045 124.745L97.8057 115.819L104.693 113.265Z" fill="#DDA6C8"/>
<path d="M88.6221 34.7697C88.6221 34.7697 96.0074 32.7173 96.6116 32.9226C97.2158 33.1269 104.384 35.5199 104.685 35.9316C104.986 36.3423 97.2293 33.2631 96.3988 33.4685C95.5665 33.6759 95.4528 33.2652 88.6221 34.7697Z" fill="#96758B"/>
<path d="M88.6221 113.265L97.4877 116.327L104.693 113.265C104.693 113.265 98.8623 115.291 97.3557 115.526C95.8448 115.762 88.6221 113.265 88.6221 113.265Z" fill="#96758B"/>
<path opacity="0.21" d="M48.0615 6.12213V133.163L77.9085 99.4859V21.1869L48.0615 6.12213Z" fill="white"/>
<path opacity="0.25" d="M138.367 24.4894L123.826 131.257L131.097 134.694L138.367 39.4567V24.4894Z" fill="white"/>
<path opacity="0.43" d="M89.3877 27.2621L89.607 32.908L90.0833 27.7136L95.5101 26.0202L89.3877 27.2621Z" fill="white"/>
<path d="M88.6221 117.092V122.775L97.0404 123.98C97.0404 123.98 89.018 123.137 89.018 121.481C89.018 119.827 88.6221 117.092 88.6221 117.092Z" fill="#F9DEEB"/>
<path opacity="0.3" d="M88.6221 44.4982C88.6221 44.4982 88.7147 112.346 89.1469 113.685L89.8283 114.03L90.2645 78.5899L89.6274 45.1681L92.709 44.1004C92.709 44.1004 92.5458 40.3126 94.5613 40.5259L94.4367 35.1321C94.4367 35.1321 94.6974 34.4385 94.7425 34.4385C94.7877 34.4385 94.0431 34.5078 94.0431 35.1321C94.0431 35.7573 94.1636 39.9289 94.1636 39.9289C94.1636 39.9289 92.4244 40.5163 92.431 43.7905L88.6221 44.4982Z" fill="#96758B"/>
<path d="M81.7344 60.4596H96.7029H111.581V74.2351H96.9438H81.8386" fill="#EEC5DD"/>
<path d="M111.582 60.4596H97.041V74.2351H111.582V60.4596Z" fill="#DDA6C8"/>
<path opacity="0.56" d="M81.7344 60.4596H96.9442H111.581C111.581 60.4596 98.0048 61.2249 96.9941 61.2249C95.895 61.2249 85.3847 60.5868 81.7344 60.4596Z" fill="#96758B"/>
<path opacity="0.51" d="M82.5 62.7548V74.2344H95.5102C95.5102 74.2344 84.0078 74.2344 83.2548 72.6438C82.5 71.0524 82.5 62.7548 82.5 62.7548Z" fill="#DDA6C8"/>
<path d="M45.9667 149.555L82.7499 133.145L98.357 131.633L144.49 139.203L98.357 135.906L82.7499 137.046L45.7656 150" fill="#96758B"/>
</svg>
